<?xml version="1.0" encoding="utf-8"?>
<!-- Generator: Adobe Illustrator 25.2.1, SVG Export Plug-In . SVG Version: 6.00 Build 0)  -->
<svg version="1.1" id="Layer_1" xmlns="http://www.w3.org/2000/svg" xmlns:xlink="http://www.w3.org/1999/xlink" x="0px" y="0px"
	 viewBox="0 0 250 42.3" style="enable-background:new 0 0 250 42.3;" xml:space="preserve">
<style type="text/css">
	.st0{fill:#FFFFFF;}
	.st1{fill:#ED1C24;}
</style>
<g id="Layer_2_1_">
	<g id="Elementos">
		<path class="st0" d="M30.8,32.1c0.4,0,0.8,0.2,1.1,0.5l3,3.3c-1.7,2.1-3.8,3.7-6.2,4.8c-2.8,1.2-5.8,1.7-8.8,1.7
			c-2.8,0-5.7-0.5-8.3-1.6c-2.4-1-4.5-2.5-6.3-4.4c-1.8-1.9-3.1-4.2-4-6.7C0.4,26.9,0,24,0,21.1c0-2.9,0.5-5.8,1.5-8.5
			c0.9-2.5,2.4-4.8,4.2-6.7c1.8-1.9,4-3.4,6.4-4.4C14.8,0.5,17.6,0,20.4,0c2.7,0,5.5,0.5,8,1.5c2.2,0.9,4.3,2.2,6,3.9L31.8,9
			c-0.2,0.2-0.4,0.4-0.6,0.6c-0.3,0.2-0.6,0.3-1,0.3c-0.3,0-0.6-0.1-0.9-0.2c-0.3-0.2-0.6-0.4-1-0.6s-0.8-0.5-1.3-0.8
			c-0.5-0.3-1.1-0.6-1.7-0.8C24.7,7.2,24,7,23.2,6.8c-1-0.2-1.9-0.3-2.9-0.2c-1.7,0-3.5,0.3-5.1,1c-1.5,0.6-2.9,1.6-4,2.9
			c-1.1,1.3-2,2.9-2.5,4.5c-0.6,2-1,4.1-0.9,6.2c0,2.1,0.3,4.2,1,6.2c0.6,1.7,1.5,3.2,2.7,4.6c1.1,1.2,2.5,2.2,4,2.9
			c1.6,0.7,3.2,1,4.9,1c1,0,1.9-0.1,2.9-0.2c0.8-0.1,1.6-0.4,2.3-0.6c0.7-0.3,1.4-0.6,2-1c0.7-0.4,1.3-0.9,1.9-1.4
			c0.2-0.2,0.4-0.3,0.6-0.4C30.3,32.1,30.6,32,30.8,32.1z"/>
		<path class="st0" d="M75.7,6.3c-0.1,0.3-0.4,0.5-0.7,0.5c-0.4-0.1-0.7-0.2-1-0.5c-1.2-1-2.6-1.8-4.1-2.4c-2.5-0.8-5.1-0.7-7.6,0.1
			c-1,0.4-2,1-2.8,1.7c-0.7,0.7-1.3,1.6-1.7,2.5c-0.4,1-0.6,2-0.6,3c0,1.2,0.3,2.4,0.9,3.4c0.6,0.9,1.4,1.7,2.3,2.3
			c1,0.7,2.1,1.2,3.2,1.6c1.2,0.4,2.5,0.9,3.7,1.3c1.3,0.4,2.5,0.9,3.7,1.4c1.2,0.5,2.3,1.1,3.3,1.9c1,0.8,1.7,1.7,2.3,2.8
			c0.6,1.3,0.9,2.7,0.9,4.2c0,1.6-0.3,3.3-0.9,4.8c-0.6,1.5-1.4,2.8-2.5,3.9c-1.2,1.2-2.6,2-4.1,2.6c-1.7,0.7-3.6,1-5.5,1
			c-2.4,0.1-4.7-0.4-6.9-1.4c-1.9-1-3.6-2.3-5-3.9l0.8-1.3c0.2-0.3,0.5-0.4,0.8-0.4c0.3,0,0.5,0.2,0.7,0.3l1,0.8
			c0.4,0.3,0.8,0.7,1.4,1.1c0.6,0.4,1.2,0.8,1.9,1.1c0.8,0.4,1.6,0.6,2.4,0.8c1,0.2,2.1,0.4,3.1,0.3c1.5,0,2.9-0.2,4.3-0.7
			c1.2-0.4,2.3-1.1,3.2-2c0.9-0.8,1.6-1.9,2-3c0.5-1.2,0.7-2.4,0.7-3.7c0.1-1.2-0.3-2.5-0.9-3.5c-0.6-0.9-1.4-1.7-2.3-2.3
			c-1-0.7-2.1-1.2-3.3-1.6c-1.2-0.4-2.5-0.8-3.7-1.2c-1.3-0.4-2.5-0.8-3.7-1.3c-1.2-0.5-2.3-1.1-3.2-1.9c-1-0.8-1.7-1.8-2.3-2.9
			c-0.6-1.4-0.9-2.8-0.9-4.3c0-1.3,0.3-2.7,0.8-3.9c0.5-1.3,1.3-2.4,2.3-3.3c1.1-1,2.3-1.8,3.7-2.3c1.6-0.6,3.3-0.9,5-0.9
			c1.9,0,3.8,0.3,5.7,1c1.7,0.7,3.3,1.7,4.6,3.1L75.7,6.3z"/>
		<path class="st0" d="M111.8,1.3v2.5H97.6v38h-2.9v-38H80.3V1.3H111.8z"/>
		<path class="st0" d="M132.3,39.7c1.8,0,3.6-0.3,5.2-1c1.5-0.6,2.8-1.6,3.9-2.8c1.1-1.2,1.9-2.7,2.4-4.2c0.6-1.7,0.9-3.5,0.8-5.3
			v-25h2.9v25c0,2.1-0.3,4.2-1.1,6.2c-0.7,1.9-1.7,3.6-3,5.1c-1.4,1.5-3,2.6-4.8,3.4c-4.1,1.6-8.7,1.6-12.8,0
			c-1.8-0.8-3.5-1.9-4.8-3.4c-1.3-1.5-2.3-3.2-3-5.1c-0.7-2-1.1-4.1-1.1-6.3v-25h2.9v25c0,1.8,0.3,3.6,0.8,5.3
			c0.5,1.6,1.3,3,2.4,4.2c1.1,1.2,2.4,2.2,3.9,2.8C128.8,39.4,130.5,39.8,132.3,39.7z"/>
		<path class="st0" d="M192,21.6c0,2.9-0.4,5.7-1.4,8.4c-0.9,2.4-2.2,4.6-3.9,6.4c-1.7,1.8-3.8,3.1-6.1,4c-2.5,1-5.2,1.4-7.9,1.4
			h-14.8V1.3h14.8c2.7,0,5.3,0.4,7.9,1.4c2.3,0.9,4.4,2.2,6.1,4c1.7,1.8,3.1,4,3.9,6.4C191.6,15.8,192.1,18.7,192,21.6z M189,21.6
			c0-2.6-0.4-5.1-1.2-7.6c-0.7-2.1-1.8-4-3.3-5.6c-1.4-1.5-3.2-2.7-5.1-3.5c-2.1-0.8-4.4-1.2-6.6-1.2h-11.8v35.8h11.8
			c2.3,0,4.5-0.4,6.6-1.2c2-0.8,3.7-2,5.1-3.5c1.5-1.6,2.6-3.5,3.3-5.6C188.6,26.7,189,24.1,189,21.6z"/>
		<path class="st0" d="M203.2,41.8h-2.9V1.3h2.9V41.8z"/>
		<path class="st0" d="M250,21.6c0,2.9-0.4,5.8-1.4,8.5c-0.9,2.4-2.2,4.6-3.9,6.5c-1.7,1.8-3.8,3.2-6.1,4.2c-5,2-10.6,2-15.7,0
			c-2.3-0.9-4.4-2.4-6.1-4.2c-1.7-1.9-3.1-4.1-3.9-6.5c-1-2.7-1.4-5.6-1.4-8.5c0-2.9,0.4-5.8,1.4-8.5c0.9-2.4,2.2-4.6,3.9-6.5
			c1.7-1.8,3.8-3.2,6.1-4.2c2.5-1,5.2-1.5,7.8-1.5c2.7,0,5.4,0.5,7.9,1.5c2.3,0.9,4.4,2.4,6.1,4.2c1.7,1.9,3.1,4.1,3.9,6.5
			C249.6,15.8,250,18.7,250,21.6z M247,21.6c0-2.6-0.4-5.1-1.2-7.6c-0.7-2.1-1.8-4.1-3.3-5.7c-1.4-1.6-3.2-2.8-5.1-3.6
			c-4.3-1.7-9-1.7-13.2,0c-2,0.8-3.7,2-5.2,3.6c-1.5,1.7-2.6,3.6-3.3,5.7c-0.8,2.5-1.2,5-1.2,7.6c0,2.6,0.4,5.2,1.2,7.6
			c0.7,2.1,1.9,4.1,3.4,5.7c1.4,1.6,3.2,2.8,5.2,3.6c4.3,1.6,9,1.6,13.2,0c2-0.8,3.7-2,5.1-3.6c1.5-1.7,2.6-3.6,3.3-5.7
			C246.6,26.8,247,24.2,247,21.6z"/>
		<circle class="st1" cx="40.8" cy="21.8" r="5"/>
	</g>
</g>
</svg>
