<?xml version="1.0" standalone="no"?>
<!DOCTYPE svg PUBLIC "-//W3C//DTD SVG 1.1//EN" "http://www.w3.org/Graphics/SVG/1.1/DTD/svg11.dtd" >
<svg>
<metadata>
Created by FontForge 20120731 at Thu Mar  7 15:06:04 2019
 By www-data
(c)2008-09 Paul Barnes and Christian Schwartz, under exclusive license to Schwartzco Inc./Commercial Type. All rights reserved.
</metadata>
<defs>
<font id="GuardianEgyp-Bold" horiz-adv-x="498" >
  <font-face 
    font-family="Guardian Egyp Bold"
    font-weight="700"
    font-stretch="normal"
    units-per-em="1000"
    panose-1="2 6 8 3 5 5 3 6 8 3"
    ascent="790"
    descent="-210"
    x-height="534"
    cap-height="693"
    bbox="-180 -221 1312 1115"
    underline-thickness="50"
    underline-position="-50"
    unicode-range="U+0020-FB04"
  />
<missing-glyph horiz-adv-x="499" 
 />
    <glyph glyph-name="f_f" unicode="ff" horiz-adv-x="679" 
d="M15 0v91l57 14v320h-59v83l59 23v39q0 88 49.5 128t126.5 40q60 0 104 -17v-108q-15 3 -36 3q-29 0 -44.5 -14.5t-15.5 -50.5v-17h130v44q0 90 56 130.5t141 40.5q66 0 116 -19v-109q-27 6 -59 6q-37 0 -53.5 -14t-16.5 -53v-26h97v-109h-97v-320l68 -14v-91h-294v91
l42 11v323h-130v-323l41 -11v-91h-282z" />
    <glyph glyph-name="f_i" unicode="fi" horiz-adv-x="637" 
d="M15 0v91l57 14v320h-59v83l59 23v52q0 87 50 126.5t126 39.5q59 0 100 -17v-108q-14 3 -33 3q-29 0 -44 -14t-15 -49v-30h298l16 -8v-421l54 -14v-91h-280v91l42 11v323h-130v-323l41 -11v-91h-282zM479 577q-41 0 -68.5 24.5t-27.5 65.5q0 40 27.5 64.5t68.5 24.5
t68 -24.5t27 -64.5q0 -41 -27 -65.5t-68 -24.5z" />
    <glyph glyph-name="f_l" unicode="fl" horiz-adv-x="639" 
d="M344 0v91l42 11v516q-32 9 -59 9q-38 0 -54.5 -14t-16.5 -52v-27h81v-109h-81v-323l41 -11v-91h-282v91l57 14v320h-59v83l59 23v50q0 89 58 128.5t149 39.5q69 0 145 -24l130 24l16 -7v-640l56 -11v-91h-282z" />
    <glyph glyph-name="f_f_i" unicode="ffi" horiz-adv-x="951" 
d="M15 0v91l57 14v320h-59v83l59 23v39q0 88 49.5 128t126.5 40q60 0 104 -17v-108q-15 3 -36 3q-29 0 -44.5 -14.5t-15.5 -50.5v-17h130v49q0 87 50 126.5t126 39.5q59 0 100 -17v-108q-14 3 -33 3q-29 0 -44 -14t-15 -49v-30h298l16 -8v-421l54 -14v-91h-280v91l42 11v323
h-130v-323l41 -11v-91h-267v91l42 11v323h-130v-323l41 -11v-91h-282zM793 577q-41 0 -68.5 24.5t-27.5 65.5q0 40 27.5 64.5t68.5 24.5t68 -24.5t27 -64.5q0 -41 -27 -65.5t-68 -24.5z" />
    <glyph glyph-name="f_f_l" unicode="ffl" horiz-adv-x="953" 
d="M15 0v91l57 14v320h-59v83l59 23v39q0 88 49.5 128t126.5 40q60 0 104 -17v-108q-15 3 -36 3q-29 0 -44.5 -14.5t-15.5 -50.5v-17h130v47q0 89 58 128.5t149 39.5q69 0 145 -24l130 24l16 -7v-640l56 -11v-91h-282v91l42 11v516q-32 9 -59 9q-38 0 -54.5 -14t-16.5 -52
v-27h81v-109h-81v-323l41 -11v-91h-267v91l42 11v323h-130v-323l41 -11v-91h-282z" />
    <glyph glyph-name="f_b" unicode="fb" horiz-adv-x="936" 
d="M569 742v-251h6q68 55 147 55q83 0 138.5 -60t55.5 -198q0 -301 -292 -301q-149 0 -238 48v583q-32 9 -59 9q-38 0 -54.5 -14t-16.5 -52v-27h81v-109h-81v-323l61 -11v-91h-302v91l57 14v320h-59v83l59 23v50q0 89 58 128.5t149 39.5q69 0 145 -24l129 24zM630 96
q47 0 70 36t23 133q0 82 -20.5 116t-64.5 34q-39 0 -69 -15v-286q28 -18 61 -18z" />
    <glyph glyph-name="f_f_b" unicode="ffb" horiz-adv-x="1250" 
d="M15 0v91l57 14v320h-59v83l59 23v39q0 88 49.5 128t126.5 40q60 0 104 -17v-108q-15 3 -36 3q-29 0 -44.5 -14.5t-15.5 -50.5v-17h130v47q0 89 58 128.5t149 39.5q69 0 145 -24l129 24l16 -7v-251h6q68 55 147 55q83 0 138.5 -60t55.5 -198q0 -301 -292 -301
q-149 0 -238 48v583q-32 9 -59 9q-38 0 -54.5 -14t-16.5 -52v-27h81v-109h-81v-323l61 -11v-91h-287v91l42 11v323h-130v-323l41 -11v-91h-282zM944 96q47 0 70 36t23 133q0 82 -20.5 116t-64.5 34q-39 0 -69 -15v-286q28 -18 61 -18z" />
    <glyph glyph-name="f_f_h" unicode="ffh" horiz-adv-x="1261" 
d="M15 0v91l57 14v320h-59v83l59 23v39q0 88 49.5 128t126.5 40q60 0 104 -17v-108q-15 3 -36 3q-29 0 -44.5 -14.5t-15.5 -50.5v-17h130v47q0 89 58 128.5t149 39.5q69 0 145 -24l130 24l16 -7v-260h5q82 63 169 63q139 0 139 -132v-308l53 -14v-91h-279v91l42 11v247
q0 32 -15 45t-47 13q-25 0 -67 -14v-291l42 -11v-91h-268v91l42 11v516q-32 9 -59 9q-38 0 -54.5 -14t-16.5 -52v-27h81v-109h-81v-323l41 -11v-91h-267v91l42 11v323h-130v-323l41 -11v-91h-282z" />
    <glyph glyph-name="f_f_j" unicode="ffj" horiz-adv-x="934" 
d="M15 0v91l57 14v320h-59v83l59 23v39q0 88 49.5 128t126.5 40q60 0 104 -17v-108q-15 3 -36 3q-29 0 -44.5 -14.5t-15.5 -50.5v-17h130v49q0 87 50 126.5t126 39.5q59 0 100 -17v-108q-14 3 -33 3q-29 0 -44 -14t-15 -49v-30h298l16 -8v-532q0 -96 -48.5 -144t-156.5 -48
q-52 0 -94 17v106q19 -4 45 -4q35 0 52.5 16t17.5 54v434h-130v-320l68 -14v-91h-294v91l42 11v323h-130v-323l41 -11v-91h-282zM793 577q-41 0 -68.5 24.5t-27.5 65.5q0 40 27.5 64.5t68.5 24.5t68 -24.5t27 -64.5q0 -41 -27 -65.5t-68 -24.5z" />
    <glyph glyph-name="f_f_k" unicode="ffk" horiz-adv-x="1236" 
d="M1044 0l-132 206l-28 -5v-99l46 -11v-91h-272v91l42 11v516q-32 9 -59 9q-38 0 -54.5 -14t-16.5 -52v-27h81v-109h-81v-323l41 -11v-91h-267v91l42 11v323h-130v-323l41 -11v-91h-282v91l57 14v320h-59v83l59 23v39q0 88 49.5 128t126.5 40q60 0 104 -17v-108
q-15 3 -36 3q-29 0 -44.5 -14.5t-15.5 -50.5v-17h130v47q0 89 58 128.5t149 39.5q69 0 145 -24l130 24l16 -7v-441l14 9l116 120l-51 13v91h245v-91l-52 -15l-111 -118l142 -209l39 -10v-91h-182z" />
    <glyph glyph-name="f_h" unicode="fh" horiz-adv-x="947" 
d="M15 0v91l57 14v320h-59v83l59 23v50q0 89 58 128.5t149 39.5q69 0 145 -24l130 24l16 -7v-260h5q82 63 169 63q139 0 139 -132v-308l53 -14v-91h-279v91l42 11v247q0 32 -15 45t-47 13q-25 0 -67 -14v-291l42 -11v-91h-268v91l42 11v516q-32 9 -59 9q-38 0 -54.5 -14
t-16.5 -52v-27h81v-109h-81v-323l41 -11v-91h-282z" />
    <glyph glyph-name="f_j" unicode="fj" horiz-adv-x="620" 
d="M365 -198q-52 0 -94 17v106q19 -4 45 -4q35 0 52.5 16t17.5 54v434h-130v-320l68 -14v-91h-309v91l57 14v320h-59v83l59 23v52q0 87 50 126.5t126 39.5q59 0 100 -17v-108q-14 3 -33 3q-29 0 -44 -14t-15 -49v-30h298l16 -8v-532q0 -96 -48.5 -144t-156.5 -48zM479 577
q-41 0 -68.5 24.5t-27.5 65.5q0 40 27.5 64.5t68.5 24.5t68 -24.5t27 -64.5q0 -41 -27 -65.5t-68 -24.5z" />
    <glyph glyph-name="f_k" unicode="fk" horiz-adv-x="922" 
d="M730 0l-132 206l-28 -5v-99l46 -11v-91h-272v91l42 11v516q-32 9 -59 9q-38 0 -54.5 -14t-16.5 -52v-27h81v-109h-81v-323l41 -11v-91h-282v91l57 14v320h-59v83l59 23v50q0 89 58 128.5t149 39.5q69 0 145 -24l130 24l16 -7v-441l17 12l113 117l-51 13v91h245v-91
l-52 -15l-111 -118l142 -209l39 -10v-91h-182z" />
    <glyph glyph-name=".notdef" horiz-adv-x="499" 
 />
    <glyph glyph-name=".null" horiz-adv-x="0" 
 />
    <glyph glyph-name="nonmarkingreturn" horiz-adv-x="333" 
 />
    <glyph glyph-name="space" unicode=" " horiz-adv-x="174" 
 />
    <glyph glyph-name="exclam" unicode="!" horiz-adv-x="275" 
d="M138 -12q-41 0 -67.5 25.5t-26.5 62.5q0 36 27 62.5t67 26.5q39 0 65 -26.5t26 -62.5q0 -37 -25.5 -62.5t-65.5 -25.5zM73 217l-33 476h195l-38 -476h-124z" />
    <glyph glyph-name="quotedbl" unicode="&#x22;" horiz-adv-x="455" 
d="M67 463l-25 230h169l-25 -230h-119zM269 463l-25 230h169l-25 -230h-119z" />
    <glyph glyph-name="numbersign" unicode="#" horiz-adv-x="539" 
d="M57 394v144h98l24 155h99l-25 -155h92l25 155h98l-24 -155h76v-144h-99l-14 -84h76v-144h-99l-26 -166h-98l26 166h-92l-26 -166h-99l26 166h-75v144h98l14 84h-75zM230 394l-14 -84h92l14 84h-92z" />
    <glyph glyph-name="dollar" unicode="$" horiz-adv-x="574" 
d="M180 -117l14 108q-106 9 -161 31l-10 177h117l29 -83q14 -7 39 -12l23 176l-26 8q-92 22 -135 70t-43 136q0 96 64.5 152t193.5 60l8 59h88l-8 -62q73 -7 135 -27l9 -159h-115l-18 65l-26 6l-20 -157l24 -6q99 -27 143.5 -73.5t44.5 -138.5q0 -102 -69.5 -161.5
t-199.5 -63.5l-13 -105h-88zM375 178q0 28 -13.5 46t-46.5 31l-19 -153q39 5 59 25t20 51zM193 528q0 -26 13.5 -42.5t46.5 -29.5l18 139q-36 -3 -57 -21t-21 -46z" />
    <glyph glyph-name="percent" unicode="%" horiz-adv-x="917" 
d="M212 384q29 0 37.5 25.5t8.5 91.5q0 68 -9 96t-37 28t-37 -27.5t-9 -92.5t9 -93t37 -28zM211 305q-81 0 -136 49.5t-55 146.5q0 100 56.5 152t135.5 52t136.5 -50.5t57.5 -148.5q0 -99 -56.5 -150t-138.5 -51zM166 -40l472 753h105l-472 -753h-105zM704 68
q29 0 37.5 25.5t8.5 91.5q0 67 -9 95.5t-37 28.5t-37 -27t-9 -93t9 -93.5t37 -27.5zM703 -12q-81 0 -136 50t-55 147q0 100 56 151.5t136 51.5q79 0 136 -50t57 -148q0 -99 -56.5 -150.5t-137.5 -51.5z" />
    <glyph glyph-name="ampersand" unicode="&#x26;" horiz-adv-x="756" 
d="M280 -12q-126 0 -195 51t-69 148q0 126 149 195q-48 69 -48 137q0 82 60.5 134t165.5 52q94 0 146.5 -43.5t52.5 -114.5q0 -60 -37 -97.5t-109 -70.5l138 -149q19 34 28 67l-49 13v91h226v-92l-52 -13q-25 -80 -80 -145l33 -35l74 -19v-97h-209l-35 38q-94 -50 -190 -50z
M327 105q37 0 73 11l-166 183q-24 -31 -24 -83q0 -51 30.5 -81t86.5 -30zM291 534q0 -44 43 -90q34 21 46 43t12 55q0 30 -13.5 45.5t-34.5 15.5q-25 0 -39 -18t-14 -51z" />
    <glyph glyph-name="quotesingle" unicode="'" horiz-adv-x="253" 
d="M67 463l-25 230h169l-25 -230h-119z" />
    <glyph glyph-name="parenleft" unicode="(" horiz-adv-x="361" 
d="M280 -150q-55 41 -96 81t-79 94.5t-58 124.5t-20 152q0 265 253 452l64 -59q-71 -86 -108 -173t-37 -204q0 -139 35 -228.5t110 -180.5z" />
    <glyph glyph-name="parenright" unicode=")" horiz-adv-x="361" 
d="M81 -150l-65 59q72 86 109 173t37 204q0 140 -35.5 229.5t-110.5 179.5l65 59q55 -41 96 -81t79 -94.5t58 -124.5t20 -152q0 -265 -253 -452z" />
    <glyph glyph-name="asterisk" unicode="*" horiz-adv-x="393" 
d="M132 352l36 121l-89 -87l-59 107l116 29l-116 29l59 107l89 -87l-36 122h129l-36 -122l89 87l59 -107l-116 -29l116 -29l-59 -107l-89 87l36 -121h-129z" />
    <glyph glyph-name="plus" unicode="+" horiz-adv-x="540" 
d="M45 281v118h164v171h122v-171h164v-118h-164v-171h-122v171h-164z" />
    <glyph glyph-name="comma" unicode="," horiz-adv-x="257" 
d="M37 -81q11 119 11 242h174q-12 -136 -62 -242h-123z" />
    <glyph glyph-name="hyphen" unicode="-" horiz-adv-x="329" 
d="M33 216v136h263v-136h-263z" />
    <glyph glyph-name="period" unicode="." horiz-adv-x="257" 
d="M128 -13q-42 0 -69.5 27.5t-27.5 65.5q0 39 27.5 66.5t69.5 27.5q43 0 70 -27.5t27 -66.5q0 -38 -27.5 -65.5t-69.5 -27.5z" />
    <glyph glyph-name="slash" unicode="/" horiz-adv-x="384" 
d="M-3 -120l240 853h129l-240 -853h-129z" />
    <glyph glyph-name="zero" unicode="0" horiz-adv-x="663" 
d="M332 105q48 0 71 56t23 179q0 139 -20.5 193t-73.5 54q-49 0 -72.5 -56.5t-23.5 -179.5q0 -138 21.5 -192t74.5 -54zM330 -12q-138 0 -221.5 89t-83.5 266q0 92 25 163t68.5 113.5t98 64t117.5 21.5q136 0 220 -89t84 -266q0 -180 -87.5 -271t-220.5 -91z" />
    <glyph glyph-name="one" unicode="1" horiz-adv-x="425" 
d="M27 0v97l89 17v400l-97 -7v97l203 96h98v-586l87 -17v-97h-380z" />
    <glyph glyph-name="two" unicode="2" horiz-adv-x="540" 
d="M12 0v109l157 152q63 62 92.5 105.5t29.5 90.5q0 97 -112 97q-76 0 -145 -23v114q104 59 226 59q116 0 179 -57t63 -158q0 -79 -51.5 -146.5t-153.5 -141.5l-89 -65v-2h170l34 70h103l-16 -204h-487z" />
    <glyph glyph-name="three" unicode="3" horiz-adv-x="530" 
d="M220 -10q-122 0 -204 47v109q64 -22 147 -22q65 0 96.5 20t31.5 66q0 49 -27 69t-85 20h-66v113h54q113 0 113 78q0 41 -26.5 60.5t-84.5 19.5q-59 0 -127 -18v106q79 46 203 46q111 0 172 -45t61 -131q0 -61 -36 -101.5t-97 -57.5v-4q71 -11 115.5 -54t44.5 -118
q0 -95 -75 -149t-210 -54z" />
    <glyph glyph-name="four" unicode="4" horiz-adv-x="603" 
d="M236 0v97l74 15v89h-293v95l323 398h166v-387h74v-106h-74v-89l70 -15v-97h-340zM155 307h155v193h-4l-151 -190v-3z" />
    <glyph glyph-name="five" unicode="5" horiz-adv-x="536" 
d="M224 -10q-115 0 -205 48v107q73 -23 149 -23q130 0 130 103q0 96 -143 96q-50 0 -105 -12l22 384h404l-10 -143h-278l-9 -115q28 6 80 6q114 0 182 -54t68 -159q0 -104 -74 -171t-211 -67z" />
    <glyph glyph-name="six" unicode="6" horiz-adv-x="620" 
d="M319 -12q-139 0 -216.5 91.5t-77.5 246.5q0 188 96 283t241 95q118 0 186 -42v-109q-44 15 -137 15q-78 0 -124.5 -36t-54.5 -129q62 40 146 40q105 0 162 -57t57 -154q0 -105 -71 -174.5t-207 -69.5zM317 106q39 0 57 28t18 88q0 56 -19 79t-61 23q-47 0 -80 -18
q-1 -12 -1 -27q0 -92 20.5 -132.5t65.5 -40.5z" />
    <glyph glyph-name="seven" unicode="7" horiz-adv-x="544" 
d="M88 0l302 545v5h-236l-26 -71h-109l10 214h496v-112l-211 -581h-226z" />
    <glyph glyph-name="eight" unicode="8" horiz-adv-x="623" 
d="M309 -13q-142 0 -214 50.5t-72 140.5q0 54 38 96t102 66q-60 28 -88 68.5t-28 100.5q0 89 72.5 142.5t200.5 53.5q124 0 189.5 -46.5t65.5 -126.5q0 -100 -129 -148q76 -27 115 -69.5t39 -112.5q0 -103 -76 -159t-215 -56zM296 100q109 0 109 80q0 37 -34.5 58.5
t-120.5 48.5q-60 -35 -60 -106q0 -39 27.5 -60t78.5 -21zM349 432q60 35 60 90q0 71 -84 71q-38 0 -62 -18t-24 -46q0 -37 23.5 -56.5t86.5 -40.5z" />
    <glyph glyph-name="nine" unicode="9" horiz-adv-x="620" 
d="M257 -12q-104 0 -194 46v109q69 -19 145 -19q86 0 130 35.5t51 129.5q-64 -40 -148 -40q-105 0 -161.5 57t-56.5 154q0 105 71 174.5t207 69.5q141 0 217.5 -88.5t76.5 -249.5q0 -191 -90 -284.5t-248 -93.5zM308 368q46 0 80 18q1 12 1 27q0 92 -20.5 132.5t-65.5 40.5
q-39 0 -57 -28t-18 -88q0 -56 19 -79t61 -23z" />
    <glyph glyph-name="colon" unicode=":" horiz-adv-x="262" 
d="M131 -13q-43 0 -71 27.5t-28 65.5q0 39 28 66.5t71 27.5t70.5 -27.5t27.5 -66.5q0 -38 -27.5 -65.5t-70.5 -27.5zM131 279q-43 0 -71 27.5t-28 66.5t28 66.5t71 27.5t70.5 -27.5t27.5 -66.5t-27.5 -66.5t-70.5 -27.5z" />
    <glyph glyph-name="semicolon" unicode=";" horiz-adv-x="262" 
d="M35 -81q11 119 11 242h174q-12 -136 -62 -242h-123zM131 279q-43 0 -70 27.5t-27 66.5t27 66.5t70 27.5t70 -27.5t27 -66.5t-27 -66.5t-70 -27.5z" />
    <glyph glyph-name="less" unicode="&#x3c;" horiz-adv-x="500" 
d="M449 97l-404 173v113l404 174v-133l-256 -97l256 -98v-132z" />
    <glyph glyph-name="equal" unicode="=" horiz-adv-x="538" 
d="M46 143v118h447v-118h-447zM46 345v118h447v-118h-447z" />
    <glyph glyph-name="greater" unicode="&#x3e;" horiz-adv-x="500" 
d="M50 97v132l257 97l-257 98v133l405 -174v-113z" />
    <glyph glyph-name="question" unicode="?" horiz-adv-x="447" 
d="M118 217q-18 32 -18 70q0 35 16 59t53 55q32 27 45 47t13 55q0 81 -94 81q-58 0 -115 -17v98q69 39 172 39q233 0 233 -188q0 -62 -28 -101t-85 -77q-66 -43 -78 -56q-14 -16 -15 -35q0 -14 4 -30h-103zM175 -12q-41 0 -67.5 25.5t-26.5 62.5q0 36 27 62.5t67 26.5
q39 0 65 -26.5t26 -62.5q0 -37 -25.5 -62.5t-65.5 -25.5z" />
    <glyph glyph-name="at" unicode="@" horiz-adv-x="894" 
d="M439 -155q-189 0 -296.5 100t-107.5 273q0 126 55.5 231t159.5 168t236 63q170 0 272 -96.5t102 -260.5q0 -140 -68 -216t-173 -76q-100 0 -129 68h-6q-57 -60 -137 -60q-54 0 -91 43.5t-37 119.5q0 121 65.5 197.5t166.5 76.5q66 0 119 -34l24 25h90l-59 -300
q-5 -29 1.5 -40.5t28.5 -11.5q48 0 84.5 52t36.5 154q0 136 -73.5 210.5t-216.5 74.5q-165 0 -264 -110t-99 -274q0 -148 81 -225.5t240 -77.5q122 0 226 34v-66q-105 -42 -231 -42zM419 142q29 0 55 26l36 192q-16 34 -45 34q-39 0 -65 -53t-26 -135q0 -64 45 -64z" />
    <glyph glyph-name="A" unicode="A" horiz-adv-x="733" 
d="M7 0v97l56 17l210 579h191l205 -579l56 -17v-97h-341v97l67 17l-29 91h-189l-30 -91l68 -17v-97h-264zM326 494l-63 -193h129l-61 193h-5z" />
    <glyph glyph-name="B" unicode="B" horiz-adv-x="661" 
d="M17 0v97l69 17v465l-69 17v97h349q249 0 249 -174q0 -65 -28.5 -103.5t-98.5 -56.5v-5q84 -10 122 -50.5t38 -116.5q0 -187 -265 -187h-366zM285 111h59q92 0 92 95q0 97 -93 97h-58v-192zM285 402h51q83 0 83 89q0 50 -21 70.5t-63 20.5h-50v-180z" />
    <glyph glyph-name="C" unicode="C" horiz-adv-x="651" 
d="M368 -12q-159 0 -253 86t-94 267q0 98 30.5 170.5t83.5 113.5t115.5 60.5t135.5 19.5q140 0 218 -31l6 -206h-121l-31 95q-36 16 -77 16q-77 0 -111 -55t-34 -163q0 -141 34 -194t117 -53q47 0 79 19l32 99h120l-9 -205q-89 -39 -241 -39z" />
    <glyph glyph-name="D" unicode="D" horiz-adv-x="721" 
d="M17 0v97l69 17v465l-68 17v97h337q346 0 346 -335q0 -180 -92 -269t-251 -89h-341zM289 117h56q75 0 109.5 48.5t34.5 178.5q0 73 -9.5 120t-30.5 71t-47 32.5t-66 8.5h-47v-459z" />
    <glyph glyph-name="E" unicode="E" horiz-adv-x="641" 
d="M17 0v97l69 17v465l-69 17v97h581l9 -210h-111l-36 99h-175v-176h62l18 65h90v-237h-90l-18 67h-62v-190h178l48 122h113l-10 -233h-597z" />
    <glyph glyph-name="F" unicode="F" horiz-adv-x="636" 
d="M17 0v97l69 17v465l-69 17v97h591l9 -226h-112l-37 109h-179v-181h66l16 66h91v-237h-91l-16 65h-66v-176l77 -16v-97h-349z" />
    <glyph glyph-name="G" unicode="G" horiz-adv-x="705" 
d="M392 -12q-371 0 -371 353q0 98 30 170.5t84 113.5t120 60.5t146 19.5q139 0 219 -32l8 -204h-121l-34 95q-35 15 -85 15q-154 0 -154 -218q0 -141 34 -196t119 -55q35 0 61 10v111l-62 16v97h306v-97l-54 -16v-205q-106 -38 -246 -38z" />
    <glyph glyph-name="H" unicode="H" horiz-adv-x="770" 
d="M17 0v97l69 17v465l-69 17v97h330v-97l-58 -16v-170h194v170l-60 16v97h330v-97l-68 -17v-465l69 -17v-97h-331v97l60 16v187h-194v-187l58 -16v-97h-330z" />
    <glyph glyph-name="I" unicode="I" horiz-adv-x="377" 
d="M17 0v97l70 17v465l-70 17v97h343v-97l-70 -17v-465l70 -17v-97h-343z" />
    <glyph glyph-name="J" unicode="J" horiz-adv-x="474" 
d="M165 -8q-83 0 -152 31v118q52 -13 86 -13q46 0 69.5 21t23.5 72v358l-69 17v97h338v-97l-66 -17v-370q0 -217 -230 -217z" />
    <glyph glyph-name="K" unicode="K" horiz-adv-x="739" 
d="M17 0v97l69 17v465l-69 17v97h332v-97l-60 -16v-207l189 208l-53 15v97h283v-97l-59 -19l-174 -175l191 -289l59 -16v-97h-222l-167 267l-47 -43v-111l60 -16v-97h-332z" />
    <glyph glyph-name="L" unicode="L" horiz-adv-x="605" 
d="M17 0v97l69 17v465l-69 17v97h345v-97l-73 -16v-466h147l49 144h112l-13 -258h-567z" />
    <glyph glyph-name="M" unicode="M" horiz-adv-x="946" 
d="M17 0v97l69 17v465l-69 17v97h337l111 -402h4l115 402h345v-97l-71 -17v-465l71 -17v-97h-326v97l58 16v415h-4l-150 -521h-136l-151 516h-4v-410l59 -16v-97h-258z" />
    <glyph glyph-name="N" unicode="N" horiz-adv-x="736" 
d="M17 0v97l69 17v465l-69 17v97h283l225 -393h5v278l-70 18v97h263v-97l-61 -17v-579h-180l-259 462h-5v-349l71 -16v-97h-272z" />
    <glyph glyph-name="O" unicode="O" horiz-adv-x="713" 
d="M356 111q62 0 93.5 54t31.5 174q0 136 -29.5 190t-94.5 54q-125 0 -125 -228q0 -135 29 -189.5t95 -54.5zM354 -12q-150 0 -241.5 90.5t-91.5 263.5q0 92 28 163.5t76 114t107.5 64t127.5 21.5q150 0 241 -90t91 -264q0 -91 -28 -162.5t-76 -114t-107.5 -64.5t-126.5 -22
z" />
    <glyph glyph-name="P" unicode="P" horiz-adv-x="643" 
d="M17 0v97l69 17v465l-69 17v97h337q273 0 273 -212q0 -217 -239 -217q-53 0 -99 8v-159l80 -16v-97h-352zM289 575v-204q22 -3 54 -3q45 0 64 26t19 80q0 101 -83 101h-54z" />
    <glyph glyph-name="Q" unicode="Q" horiz-adv-x="713" 
d="M658 -132l-385 120q-40 12 -72.5 28t-67.5 44t-58.5 64.5t-38.5 92.5t-15 125q0 92 28 163.5t76 114t107.5 64t127.5 21.5q150 0 241 -90t91 -264q0 -240 -201 -296v-4l208 -32zM360 111q64 0 92.5 53t28.5 175q0 135 -30 189.5t-94 54.5q-125 0 -125 -228
q0 -135 29.5 -189.5t98.5 -54.5z" />
    <glyph glyph-name="R" unicode="R" horiz-adv-x="707" 
d="M17 0v97l70 17v464l-69 18v97h356q269 0 269 -205q0 -65 -31 -102.5t-87 -60.5v-4l123 -210l51 -14v-97h-210l-151 276h-48v-164l58 -15v-97h-331zM290 381h63q87 0 87 105q0 48 -22.5 69.5t-71.5 21.5h-56v-196z" />
    <glyph glyph-name="S" unicode="S" horiz-adv-x="566" 
d="M262 -12q-142 0 -228 34l-10 188h124l25 -86q35 -16 83 -16q45 0 69 19t24 52q0 31 -26.5 50.5t-83.5 39.5l-40 15q-88 30 -129 74.5t-41 130.5q0 101 66.5 159t206.5 58q115 0 199 -28l10 -171h-122l-19 66q-32 16 -74 16q-38 0 -61 -16t-23 -45q0 -28 22 -44.5
t75 -35.5l41 -15q105 -36 149.5 -78.5t44.5 -135.5q0 -109 -73 -170t-209 -61z" />
    <glyph glyph-name="T" unicode="T" horiz-adv-x="666" 
d="M157 0v97l75 17v465h-73l-30 -121h-118l9 235h626l8 -235h-117l-30 121h-73v-465l74 -17v-97h-351z" />
    <glyph glyph-name="U" unicode="U" horiz-adv-x="718" 
d="M372 -12q-150 0 -223 61t-73 172v358l-65 17v97h331v-97l-63 -16v-345q0 -126 120 -126q58 0 87 29t29 97v345l-63 16v97h255v-97l-61 -17v-345q0 -114 -66 -180t-208 -66z" />
    <glyph glyph-name="V" unicode="V" horiz-adv-x="722" 
d="M265 0l-200 579l-53 17v97h333v-97l-67 -17l116 -377h5l117 377l-67 17v97h261v-97l-53 -17l-200 -579h-192z" />
    <glyph glyph-name="W" unicode="W" horiz-adv-x="1010" 
d="M207 0l-145 579l-50 17v97h317v-97l-59 -17l76 -348h5l116 462h144l116 -448h5l73 334l-64 17v97h257v-97l-52 -17l-142 -579h-195l-100 412h-4l-103 -412h-195z" />
    <glyph glyph-name="X" unicode="X" horiz-adv-x="720" 
d="M17 0v97l52 14l164 243l-154 225l-58 17v97h344v-97l-47 -14l88 -142l82 142l-50 14v97h258v-97l-52 -17l-156 -234l158 -231l57 -17v-97h-341v97l51 13l-96 156l-92 -156l50 -13v-97h-258z" />
    <glyph glyph-name="Y" unicode="Y" horiz-adv-x="675" 
d="M170 0v97l73 17v164l-180 301l-53 17v97h318v-97l-53 -15l101 -187h4l97 187l-53 15v97h241v-97l-54 -17l-166 -296v-169l72 -17v-97h-347z" />
    <glyph glyph-name="Z" unicode="Z" horiz-adv-x="600" 
d="M18 0v119l332 455v4h-160l-42 -111h-118l12 226h538v-119l-332 -455v-4h175l46 130h115l-11 -245h-555z" />
    <glyph glyph-name="bracketleft" unicode="[" horiz-adv-x="352" 
d="M49 -120v853h278v-97l-104 -17v-625l104 -17v-97h-278z" />
    <glyph glyph-name="backslash" unicode="\" horiz-adv-x="384" 
d="M258 -120l-240 853h129l240 -853h-129z" />
    <glyph glyph-name="bracketright" unicode="]" horiz-adv-x="352" 
d="M24 -120v97l105 17v625l-105 17v97h279v-853h-279z" />
    <glyph glyph-name="asciicircum" unicode="^" horiz-adv-x="434" 
d="M20 439l144 254h106l144 -254h-102l-95 113l-95 -113h-102z" />
    <glyph glyph-name="underscore" unicode="_" horiz-adv-x="344" 
d="M-5 -155v108h354v-108h-354z" />
    <glyph glyph-name="grave" unicode="`" 
d="M347 576l-238 69l59 127l212 -120z" />
    <glyph glyph-name="a" unicode="a" horiz-adv-x="546" 
d="M170 -13q-71 0 -114.5 40.5t-43.5 105.5q0 74 47.5 108.5t147.5 52.5l93 18v26q0 42 -20.5 58t-79.5 16q-77 0 -137 -10v106q105 37 224 37q101 0 148.5 -42.5t47.5 -132.5v-238q0 -32 36 -32h16v-87q-37 -25 -107 -25q-87 0 -108 62h-5q-50 -63 -145 -63zM248 93
q32 0 52 20v115l-47 -2q-59 -4 -59 -67q0 -66 54 -66z" />
    <glyph glyph-name="b" unicode="b" horiz-adv-x="600" 
d="M289 -13q-149 0 -238 48v579l-57 16v97l223 23l17 -8v-251h6q66 55 147 55q83 0 138 -60t55 -198q0 -157 -77 -229t-214 -72zM294 96q48 0 70.5 36t22.5 133q0 82 -20.5 116t-64.5 34q-38 0 -68 -15v-286q26 -18 60 -18z" />
    <glyph glyph-name="c" unicode="c" horiz-adv-x="507" 
d="M296 -13q-139 0 -209.5 72.5t-70.5 203.5q0 142 79 212t218 70q101 0 164 -21v-168h-117l-14 73q-21 7 -41 7q-95 0 -95 -158q0 -90 36.5 -127.5t108.5 -37.5q71 0 125 22v-99q-68 -49 -184 -49z" />
    <glyph glyph-name="d" unicode="d" horiz-adv-x="620" 
d="M229 -12q-87 0 -148 63t-61 203q0 151 71 221t188 70q50 0 87 -15v87l-62 16v93l229 24l17 -9v-620l57 -16v-91l-206 -24l-16 7v52h-6q-46 -61 -150 -61zM300 116q36 0 66 17v282q-27 19 -60 19q-46 0 -69.5 -34.5t-23.5 -126.5q0 -85 21.5 -121t65.5 -36z" />
    <glyph glyph-name="e" unicode="e" horiz-adv-x="548" 
d="M301 -13q-139 0 -212 72.5t-73 208.5q0 130 73.5 203.5t196.5 73.5q126 0 184.5 -70.5t58.5 -235.5h-323q7 -68 43 -97.5t102 -29.5q74 0 153 25v-97q-77 -53 -203 -53zM206 324l145 6q0 108 -67 108q-33 0 -53 -25.5t-25 -88.5z" />
    <glyph glyph-name="f" unicode="f" horiz-adv-x="365" 
d="M15 0v91l57 14v320h-59v83l59 23v47q0 90 56 130.5t141 40.5q66 0 116 -19v-109q-27 6 -59 6q-37 0 -53.5 -14t-16.5 -53v-26h97v-109h-97v-320l68 -14v-91h-309z" />
    <glyph glyph-name="g" unicode="g" horiz-adv-x="568" 
d="M253 -204q-123 0 -188 33.5t-65 88.5q0 78 112 108v5q-70 21 -70 86q0 63 77 113q-82 45 -82 135q0 85 64 132.5t171 47.5q65 0 113 -17l171 24v-108l-72 3q23 -35 23 -71q0 -86 -63.5 -133t-171.5 -47q-42 0 -74 7q-12 -13 -12 -30q0 -27 37 -27h173q74 0 119.5 -35.5
t45.5 -110.5q0 -90 -76.5 -147t-231.5 -57zM267 -102q126 0 126 61q0 22 -14 30t-49 8h-126q-35 -15 -35 -49q0 -50 98 -50zM272 285q64 0 64 84q0 49 -17 67.5t-47 18.5q-62 0 -62 -83q0 -87 62 -87z" />
    <glyph glyph-name="h" unicode="h" horiz-adv-x="632" 
d="M14 0v91l57 14v513l-60 16v92l227 24l17 -9v-259h5q82 63 169 63q139 0 139 -132v-308l53 -14v-91h-279v91l42 11v247q0 32 -15 45t-47 13q-25 0 -67 -14v-291l42 -11v-91h-283z" />
    <glyph glyph-name="i" unicode="i" horiz-adv-x="322" 
d="M14 0v91l57 14v307l-62 16v93l229 23l17 -7v-432l54 -14v-91h-295zM158 577q-43 0 -72 24.5t-29 65.5q0 40 29 64.5t72 24.5t72 -24.5t29 -64.5q0 -41 -29 -65.5t-72 -24.5z" />
    <glyph glyph-name="j" unicode="j" horiz-adv-x="306" 
d="M52 -198q-53 0 -95 17v106q20 -4 45 -4q36 0 53.5 16t17.5 54v421l-63 16v93l229 23l17 -7v-543q0 -96 -48 -144t-156 -48zM159 577q-43 0 -72 24.5t-29 65.5q0 40 29 64.5t72 24.5t72 -24.5t29 -64.5q0 -41 -29 -65.5t-72 -24.5z" />
    <glyph glyph-name="k" unicode="k" horiz-adv-x="607" 
d="M14 0v91l57 14v513l-60 16v92l227 24l17 -8v-440l19 13l111 115l-51 13v91h245v-91l-52 -15l-111 -118l142 -209l39 -10v-91h-182l-132 206l-28 -5v-99l46 -11v-91h-287z" />
    <glyph glyph-name="l" unicode="l" horiz-adv-x="326" 
d="M14 0v91l59 14v512l-64 17v92l231 23l16 -8v-636l57 -14v-91h-299z" />
    <glyph glyph-name="m" unicode="m" horiz-adv-x="930" 
d="M14 0v91l57 14v307l-60 16v93l220 23l16 -7v-55h6q78 63 170 63t122 -68h5q79 68 177 68q62 0 100 -33.5t38 -100.5v-306l53 -14v-91h-276v91l40 11v244q0 34 -14 47.5t-47 13.5q-26 0 -63 -14q2 -8 2 -24v-267l41 -11v-91h-265v91l41 11v244q0 34 -13.5 47.5t-44.5 13.5
q-27 0 -64 -14v-291l41 -11v-91h-282z" />
    <glyph glyph-name="n" unicode="n" horiz-adv-x="633" 
d="M14 0v91l57 14v307l-60 16v93l220 23l16 -7v-57h6q85 65 176 65q139 0 139 -132v-308l53 -14v-91h-279v91l42 11v247q0 31 -15 44t-47 13q-28 0 -67 -13v-291l42 -11v-91h-283z" />
    <glyph glyph-name="o" unicode="o" horiz-adv-x="585" 
d="M294 97q40 0 60.5 36.5t20.5 129.5q0 97 -21.5 135t-62.5 38q-40 0 -61 -35.5t-21 -130.5q0 -97 21.5 -135t63.5 -38zM293 -13q-133 0 -205 74t-72 202q0 133 78 207.5t198 74.5q133 0 205 -71.5t72 -203.5q0 -133 -78.5 -208t-197.5 -75z" />
    <glyph glyph-name="p" unicode="p" horiz-adv-x="619" 
d="M13 -200v89l57 13v510l-60 16v93l220 23l15 -7v-52h6q68 61 155 61q83 0 138 -60t55 -198q0 -156 -74 -228.5t-198 -72.5q-47 0 -74 6v-92l66 -12v-89h-306zM313 96q48 0 71 36t23 133q0 82 -21 116t-65 34q-38 0 -68 -15v-286q26 -18 60 -18z" />
    <glyph glyph-name="q" unicode="q" horiz-adv-x="606" 
d="M299 -200v94l67 15v129h-6q-50 -50 -125 -50q-42 0 -78 13t-68 42t-50.5 82.5t-18.5 126.5q0 153 78.5 223t216.5 70q143 0 235 -37v-601l54 -13v-94h-305zM300 116q36 0 66 17v282q-27 19 -62 19q-44 0 -67.5 -35t-23.5 -126q0 -85 21.5 -121t65.5 -36z" />
    <glyph glyph-name="r" unicode="r" horiz-adv-x="425" 
d="M14 0v91l57 14v307l-60 16v93l220 23l16 -7v-80h6q50 86 135 86q16 0 27 -3v-162q-20 5 -47 5q-70 0 -113 -20v-258l74 -14v-91h-315z" />
    <glyph glyph-name="s" unicode="s" horiz-adv-x="485" 
d="M215 -13q-106 0 -187 33l-9 146h113l20 -59q30 -16 70 -16q33 0 51.5 12.5t18.5 34.5t-13.5 32.5t-50.5 19.5l-58 14q-77 17 -114.5 55.5t-37.5 107.5q0 82 59.5 130.5t178.5 48.5q108 0 177 -29v-139h-110l-13 53q-22 13 -60 13q-69 0 -69 -42q0 -21 15.5 -32t56.5 -20
l65 -15q149 -33 149 -159q0 -89 -61.5 -139t-190.5 -50z" />
    <glyph glyph-name="t" unicode="t" horiz-adv-x="387" 
d="M236 -11q-85 0 -126.5 33.5t-41.5 114.5v288h-57v83l73 27l23 124h144v-125h108v-109h-108v-258q0 -34 15.5 -47.5t49.5 -13.5q24 0 49 7v-95q-46 -29 -129 -29z" />
    <glyph glyph-name="u" unicode="u" horiz-adv-x="633" 
d="M217 -12q-154 0 -154 148v278l-56 17v92l223 21l16 -8v-347q0 -34 13 -48.5t47 -14.5q32 0 71 15v273l-53 17v92l219 21l17 -8v-415l57 -16v-91l-217 -24l-16 7v58h-6q-67 -67 -161 -67z" />
    <glyph glyph-name="v" unicode="v" horiz-adv-x="599" 
d="M211 0l-163 429l-43 14v91h282v-91l-46 -11l83 -252h4l85 252l-48 11v91h225v-91l-43 -14l-163 -429h-173z" />
    <glyph glyph-name="w" unicode="w" horiz-adv-x="848" 
d="M174 0l-128 429l-41 14v91h268v-91l-44 -12l56 -216h4l94 319h128l94 -319h4l55 216l-43 12v91h219v-91l-41 -14l-128 -429h-158l-87 300h-3l-90 -300h-159z" />
    <glyph glyph-name="x" unicode="x" horiz-adv-x="608" 
d="M15 0v91l48 13l128 167l-119 157l-48 15v91h305v-91l-42 -11l64 -100h4l64 100l-42 11v91h214v-91l-38 -13l-121 -170l117 -156l47 -13v-91h-301v91l42 10l-67 98h-3l-67 -98l43 -10v-91h-228z" />
    <glyph glyph-name="y" unicode="y" horiz-adv-x="604" 
d="M173 -203q-63 0 -100 16v115q31 -7 54 -7q68 0 87 48l15 39l-178 421l-46 14v91h287v-91l-49 -12l89 -240h4l78 240l-49 12v91h230v-91l-43 -14l-185 -485q-30 -77 -73.5 -112t-120.5 -35z" />
    <glyph glyph-name="z" unicode="z" horiz-adv-x="507" 
d="M18 0v97l254 331v4h-126l-27 -82h-92l10 184h443v-100l-245 -325v-4h126l33 93h95l-14 -198h-457z" />
    <glyph glyph-name="braceleft" unicode="{" horiz-adv-x="398" 
d="M373 -120q-146 4 -209 41.5t-63 110.5q0 26 17 78.5t17 66.5q0 31 -21 47t-82 25v115q61 9 82 25.5t21 46.5q0 14 -17 66.5t-17 78.5q0 73 63 110.5t209 41.5v-97q-52 -8 -71.5 -23.5t-19.5 -43.5q0 -16 7.5 -70t7.5 -72q0 -47 -29 -74t-98 -44v-5q69 -17 98 -44t29 -74
q0 -18 -7.5 -72t-7.5 -70q0 -28 19.5 -43.5t71.5 -23.5v-97z" />
    <glyph glyph-name="bar" unicode="|" horiz-adv-x="251" 
d="M66 -120v853h118v-853h-118z" />
    <glyph glyph-name="braceright" unicode="}" horiz-adv-x="398" 
d="M24 -120v97q52 8 71.5 23.5t19.5 43.5q0 16 -7 70t-7 72q0 47 29 74t98 44v5q-69 17 -98 44t-29 74q0 18 7 72t7 70q0 28 -19.5 43.5t-71.5 23.5v97q147 -4 210 -41.5t63 -110.5q0 -26 -17 -78.5t-17 -66.5q0 -31 21 -47t82 -25v-115q-61 -9 -82 -25.5t-21 -46.5
q0 -14 17 -66.5t17 -78.5q0 -73 -63 -110.5t-210 -41.5z" />
    <glyph glyph-name="asciitilde" unicode="~" horiz-adv-x="480" 
d="M98 209l-84 62q58 127 152 127q33 0 82 -21t65 -21q38 0 69 47l84 -61q-56 -127 -152 -127q-33 0 -82 21t-65 21q-38 0 -69 -48z" />
    <glyph glyph-name="uni00A0" unicode="&#xa0;" horiz-adv-x="174" 
 />
    <glyph glyph-name="exclamdown" unicode="&#xa1;" horiz-adv-x="275" 
d="M40 -120l38 476h124l34 -476h-196zM138 408q-40 0 -66 26.5t-26 62.5q0 37 26 62.5t66 25.5t66.5 -25.5t26.5 -62.5q0 -36 -26.5 -62.5t-66.5 -26.5z" />
    <glyph glyph-name="cent" unicode="&#xa2;" horiz-adv-x="530" 
d="M226 -120l12 113q-106 17 -162.5 87.5t-56.5 182.5q0 135 75.5 205.5t205.5 75.5l7 65h88l-8 -67q69 -6 113 -20v-166h-95l-14 76q-1 0 -6 1.5t-9 2.5l-37 -333h18q75 0 146 29v-96q-25 -18 -72.5 -32t-104.5 -16l-12 -108h-88zM199 278q0 -117 54 -152l35 310
q-89 -21 -89 -158z" />
    <glyph glyph-name="sterling" unicode="&#xa3;" horiz-adv-x="554" 
d="M37 281v107h61v76q0 117 64 178.5t176 61.5q118 0 183 -49v-115q-51 19 -109 19q-56 0 -86 -26.5t-36 -93.5l-4 -51h156v-107h-165v-9q-5 -52 -23.5 -82t-54.5 -52v-3h333l-16 -135h-491v103q37 18 55 47.5t18 85.5v45h-61z" />
    <glyph glyph-name="yen" unicode="&#xa5;" horiz-adv-x="654" 
d="M78 304v84h111l-127 191l-51 17v97h317v-97l-50 -13l90 -161h4l84 161l-50 13v97h236v-97l-51 -17l-120 -191h117v-84h-156v-54h156v-84h-156v-52l73 -17v-97h-344v97l73 17v52h-156v84h156v54h-156z" />
    <glyph glyph-name="brokenbar" unicode="&#xa6;" horiz-adv-x="251" 
d="M66 -120v399h118v-399h-118zM66 371v362h118v-362h-118z" />
    <glyph glyph-name="section" unicode="&#xa7;" horiz-adv-x="565" 
d="M261 -132q-109 0 -181 32l-8 143h112l20 -57q26 -13 61 -13q73 0 73 46q0 23 -16.5 36.5t-58.5 26.5l-75 22q-85 26 -125 64t-40 102q0 97 109 130q-67 45 -67 131q0 83 59.5 128.5t181.5 45.5q113 0 179 -30v-139h-110l-14 52q-24 13 -61 13q-71 0 -71 -47
q0 -22 15 -34.5t58 -25.5l75 -23q83 -24 124 -63t41 -102q0 -96 -110 -131q72 -46 72 -129t-60 -130.5t-183 -47.5zM317 328l-77 26q-51 -9 -51 -48q0 -22 16 -36t54 -27l66 -22q51 10 51 49q0 21 -13 34t-46 24z" />
    <glyph glyph-name="dieresis" unicode="&#xa8;" 
d="M144 581q-37 0 -62.5 22.5t-25.5 59.5q0 38 25.5 60t62.5 22q38 0 64 -22t26 -60q0 -37 -26 -59.5t-64 -22.5zM353 581q-37 0 -63 22.5t-26 59.5q0 38 25.5 60t63.5 22t63.5 -22t25.5 -60q0 -37 -25.5 -59.5t-63.5 -22.5z" />
    <glyph glyph-name="copyright" unicode="&#xa9;" horiz-adv-x="770" 
d="M391 158q-86 0 -137.5 46.5t-51.5 140.5q0 97 56 143.5t143 46.5q78 0 119 -16l4 -115h-76l-17 48q-17 7 -34 7q-36 0 -48.5 -25t-12.5 -79q0 -72 13 -96t52 -24q24 0 35 8l17 50h75l-5 -114q-50 -21 -132 -21zM384 55q120 0 198 84t78 205t-78 204.5t-198 83.5
q-121 0 -198 -83.5t-77 -204.5q0 -122 77 -205.5t198 -83.5zM384 -14q-150 0 -252 104.5t-102 253.5t102 252.5t252 103.5q149 0 252.5 -104t103.5 -252t-103.5 -253t-252.5 -105z" />
    <glyph glyph-name="ordfeminine" unicode="&#xaa;" horiz-adv-x="496" 
d="M157 218q-62 0 -99 35.5t-37 91.5q0 65 42.5 96.5t131.5 47.5l73 13v17q0 32 -18.5 46t-65.5 14q-55 0 -113 -9v101q88 32 193 32q90 0 132.5 -38.5t42.5 -117.5v-192q0 -26 28 -26h12v-86q-32 -24 -91 -24q-81 0 -100 55h-5q-42 -56 -126 -56zM227 317q27 0 41 14v94
l-35 -1q-44 -2 -44 -55q0 -52 38 -52z" />
    <glyph glyph-name="guillemotleft" unicode="&#xab;" horiz-adv-x="490" 
d="M135 59l-107 170v47l107 170h118l-77 -193l77 -194h-118zM342 59l-107 170v47l107 170h117l-77 -193l77 -194h-117z" />
    <glyph glyph-name="registered" unicode="&#xae;" horiz-adv-x="475" 
d="M135 392v36l17 6v113l-17 5v37h113q40 0 61.5 -17t21.5 -44q0 -31 -30 -43v-2l32 -51l13 -4v-36h-68l-40 73h-13v-32l12 -5v-36h-102zM225 502h15q21 0 21 21q0 23 -22 23h-14v-44zM237 321q72 0 118.5 48t46.5 119q0 70 -46.5 118t-118.5 48t-118.5 -48t-46.5 -118
q0 -71 46.5 -119t118.5 -48zM237 273q-92 0 -155 62.5t-63 152.5q0 89 63 151t155 62t155.5 -62t63.5 -151q0 -90 -63.5 -152.5t-155.5 -62.5z" />
    <glyph glyph-name="macron" unicode="&#xaf;" 
d="M104 596v110h289v-110h-289z" />
    <glyph glyph-name="degree" unicode="&#xb0;" horiz-adv-x="375" 
d="M188 462q35 0 55 24.5t20 59.5q0 36 -20 60t-55 24t-55 -24t-20 -60q0 -35 20 -59.5t55 -24.5zM188 391q-68 0 -114 45.5t-46 109.5q0 65 46 110.5t114 45.5t114 -46t46 -110t-46 -109.5t-114 -45.5z" />
    <glyph glyph-name="acute" unicode="&#xb4;" 
d="M150 576l-32 76l212 120l59 -127z" />
    <glyph glyph-name="paragraph" unicode="&#xb6;" horiz-adv-x="613" 
d="M254 -120v438q-1 0 -10 -0.5t-16 -0.5q-87 0 -145.5 49t-58.5 143q0 184 229 184h349v-97l-66 -17v-699h-106v704h-70v-704h-106z" />
    <glyph glyph-name="periodcentered" unicode="&#xb7;" horiz-adv-x="257" 
d="M129 242q-42 0 -70 27.5t-28 65.5q0 39 28 66.5t70 27.5q43 0 70.5 -27.5t27.5 -66.5q0 -38 -27.5 -65.5t-70.5 -27.5z" />
    <glyph glyph-name="cedilla" unicode="&#xb8;" 
d="M189 -221v56q57 5 78.5 14.5t21.5 25.5q0 29 -75 32v93h70v-40q68 -4 95.5 -21.5t27.5 -56.5q0 -92 -218 -103z" />
    <glyph glyph-name="ordmasculine" unicode="&#xba;" horiz-adv-x="522" 
d="M261 324q31 0 46.5 29t15.5 105q0 80 -16 110t-47 30t-46 -28t-15 -106q0 -80 15.5 -110t46.5 -30zM261 218q-114 0 -176.5 64t-62.5 176q0 117 67.5 181t171.5 64q115 0 177 -62t62 -177q0 -117 -68 -181.5t-171 -64.5z" />
    <glyph glyph-name="guillemotright" unicode="&#xbb;" horiz-adv-x="490" 
d="M30 59l77 193l-77 194h118l107 -170v-47l-107 -170h-118zM237 59l77 193l-77 194h118l106 -170v-47l-106 -170h-118z" />
    <glyph glyph-name="onequarter" unicode="&#xbc;" horiz-adv-x="872" 
d="M32 282v68l60 10v210l-63 -3v67l135 70h75v-344l61 -10v-68h-268zM138 -40l488 753h105l-488 -753h-105zM614 0v68l43 10v42h-180v66l202 232h115v-226h46v-72h-46v-42l47 -10v-68h-227zM573 192h84v98h-3l-81 -95v-3z" />
    <glyph glyph-name="onehalf" unicode="&#xbd;" horiz-adv-x="914" 
d="M141 -40l488 753h105l-488 -753h-105zM32 282v68l60 10v210l-63 -3v67l135 70h75v-344l61 -10v-68h-268zM559 0v81l93 85q69 62 69 102q0 26 -16.5 40t-45.5 14q-50 0 -87 -14v80q65 37 147 37q75 0 115.5 -35t40.5 -94q0 -50 -29.5 -86t-94.5 -79l-53 -36v-2h92l22 38
l71 1l-11 -132h-313z" />
    <glyph glyph-name="threequarters" unicode="&#xbe;" horiz-adv-x="890" 
d="M160 276q-80 0 -132 26v75q44 -12 91 -12q73 0 73 47q0 45 -62 45h-46v77h39q64 0 64 41q0 43 -62 43q-47 0 -80 -11v75q45 25 132 25q72 0 111 -27t39 -77q0 -73 -86 -98v-3q46 -6 73.5 -32t27.5 -70q0 -58 -47 -91t-135 -33zM151 -41l488 753h105l-488 -753h-105z
M632 -1v68l43 10v42h-180v66l202 232h115v-226h46v-72h-46v-42l47 -10v-68h-227zM591 191h84v98h-3l-81 -95v-3z" />
    <glyph glyph-name="questiondown" unicode="&#xbf;" horiz-adv-x="447" 
d="M257 -131q-233 0 -233 188q0 62 28 100.5t86 77.5q7 4 18.5 12t17 11.5t14.5 9.5t13 9.5t10 9t8.5 9.5t5.5 9t4 10t1 11q0 14 -4 30h104q17 -34 17 -70q0 -35 -16 -59t-53 -55q-31 -27 -44 -47.5t-13 -54.5q0 -81 93 -81q58 0 115 17v-98q-69 -39 -172 -39zM273 408
q-40 0 -66 26.5t-26 62.5q0 37 26 62.5t66 25.5t66.5 -25.5t26.5 -62.5q0 -36 -26.5 -62.5t-66.5 -26.5z" />
    <glyph glyph-name="Agrave" unicode="&#xc0;" horiz-adv-x="733" 
d="M7 0v97l56 17l210 579h191l205 -579l56 -17v-97h-341v97l67 17l-29 91h-189l-30 -91l68 -17v-97h-264zM326 494l-63 -193h129l-61 193h-5zM466 722l-240 52l50 130l218 -104z" />
    <glyph glyph-name="Aacute" unicode="&#xc1;" horiz-adv-x="733" 
d="M7 0v97l56 17l210 579h191l205 -579l56 -17v-97h-341v97l67 17l-29 91h-189l-30 -91l68 -17v-97h-264zM326 494l-63 -193h129l-61 193h-5zM504 774l-240 -52l-28 78l218 104z" />
    <glyph glyph-name="Acircumflex" unicode="&#xc2;" horiz-adv-x="733" 
d="M7 0v97l56 17l210 579h191l205 -579l56 -17v-97h-341v97l67 17l-29 91h-189l-30 -91l68 -17v-97h-264zM326 494l-63 -193h129l-61 193h-5zM235 722l-34 51l121 118h86l120 -118l-33 -51l-130 52z" />
    <glyph glyph-name="Atilde" unicode="&#xc3;" horiz-adv-x="733" 
d="M7 0v97l56 17l210 579h191l205 -579l56 -17v-97h-341v97l67 17l-29 91h-189l-30 -91l68 -17v-97h-264zM326 494l-63 -193h129l-61 193h-5zM249 726l-68 46q50 105 128 105q25 0 64 -13t52 -13q33 0 55 33l68 -46q-49 -106 -128 -106q-25 0 -64 13t-52 13q-33 0 -55 -32z
" />
    <glyph glyph-name="Adieresis" unicode="&#xc4;" horiz-adv-x="733" 
d="M7 0v97l56 17l210 579h191l205 -579l56 -17v-97h-341v97l67 17l-29 91h-189l-30 -91l68 -17v-97h-264zM326 494l-63 -193h129l-61 193h-5zM260 727q-37 0 -62.5 22t-25.5 60q0 37 25.5 59.5t62.5 22.5q38 0 64 -22.5t26 -59.5q0 -38 -26 -60t-64 -22zM469 727
q-38 0 -63.5 22t-25.5 60q0 37 26 59.5t63 22.5q38 0 63.5 -22.5t25.5 -59.5q0 -38 -25.5 -60t-63.5 -22z" />
    <glyph glyph-name="Aring" unicode="&#xc5;" horiz-adv-x="733" 
d="M7 0v97l56 17l210 579h191l205 -579l56 -17v-97h-341v97l67 17l-29 91h-189l-30 -91l68 -17v-97h-264zM326 494l-63 -193h129l-61 193h-5zM365 775q22 0 34 13t12 36q0 22 -12.5 35.5t-33.5 13.5t-34 -14t-13 -35q0 -23 12.5 -36t34.5 -13zM365 713q-50 0 -83.5 32.5
t-33.5 78.5t33.5 78t83.5 32t83.5 -32t33.5 -78t-33.5 -78.5t-83.5 -32.5z" />
    <glyph glyph-name="AE" unicode="&#xc6;" horiz-adv-x="999" 
d="M207 115l79 -18v-97h-279v97l56 18l299 473l-57 8v97h652l9 -210h-112l-35 99h-172v-176h57l17 65h90v-237h-90l-17 67h-57v-190h175l48 122h113l-10 -233h-594v97l69 17v84h-192zM313 295h135v225h-3z" />
    <glyph glyph-name="Ccedilla" unicode="&#xc7;" horiz-adv-x="651" 
d="M250 -221v56q57 5 78.5 14.5t21.5 25.5q0 29 -75 32v90q-119 22 -186.5 106.5t-67.5 237.5q0 98 30.5 170.5t83.5 113.5t115.5 60.5t135.5 19.5q140 0 218 -31l6 -206h-121l-31 95q-36 16 -77 16q-77 0 -111 -55t-34 -163q0 -141 34 -194t117 -53q47 0 79 19l32 99h120
l-9 -205q-89 -39 -241 -39q-12 0 -23 1v-29q68 -4 95.5 -21.5t27.5 -56.5q0 -92 -218 -103z" />
    <glyph glyph-name="Egrave" unicode="&#xc8;" horiz-adv-x="641" 
d="M429 722l-240 52l50 130l218 -104zM17 0v97l69 17v465l-69 17v97h581l9 -210h-111l-36 99h-175v-176h62l18 65h90v-237h-90l-18 67h-62v-190h178l48 122h113l-10 -233h-597z" />
    <glyph glyph-name="Eacute" unicode="&#xc9;" horiz-adv-x="641" 
d="M467 774l-240 -52l-28 78l218 104zM17 0v97l69 17v465l-69 17v97h581l9 -210h-111l-36 99h-175v-176h62l18 65h90v-237h-90l-18 67h-62v-190h178l48 122h113l-10 -233h-597z" />
    <glyph glyph-name="Ecircumflex" unicode="&#xca;" horiz-adv-x="641" 
d="M198 722l-34 51l121 118h86l120 -118l-33 -51l-130 52zM17 0v97l69 17v465l-69 17v97h581l9 -210h-111l-36 99h-175v-176h62l18 65h90v-237h-90l-18 67h-62v-190h178l48 122h113l-10 -233h-597z" />
    <glyph glyph-name="Edieresis" unicode="&#xcb;" horiz-adv-x="641" 
d="M17 0v97l69 17v465l-69 17v97h581l9 -210h-111l-36 99h-175v-176h62l18 65h90v-237h-90l-18 67h-62v-190h178l48 122h113l-10 -233h-597zM223 727q-37 0 -62.5 22t-25.5 60q0 37 25.5 59.5t62.5 22.5q38 0 64 -22.5t26 -59.5q0 -38 -26 -60t-64 -22zM432 727
q-38 0 -63.5 22t-25.5 60q0 37 26 59.5t63 22.5q38 0 63.5 -22.5t25.5 -59.5q0 -38 -25.5 -60t-63.5 -22z" />
    <glyph glyph-name="Igrave" unicode="&#xcc;" horiz-adv-x="377" 
d="M17 0v97l70 17v465l-70 17v97h343v-97l-70 -17v-465l70 -17v-97h-343zM290 722l-240 52l50 130l218 -104z" />
    <glyph glyph-name="Iacute" unicode="&#xcd;" horiz-adv-x="377" 
d="M17 0v97l70 17v465l-70 17v97h343v-97l-70 -17v-465l70 -17v-97h-343zM326 774l-240 -52l-28 78l218 104z" />
    <glyph glyph-name="Icircumflex" unicode="&#xce;" horiz-adv-x="377" 
d="M17 0v97l70 17v465l-70 17v97h343v-97l-70 -17v-465l70 -17v-97h-343zM58 722l-34 51l121 118h86l120 -118l-33 -51l-130 52z" />
    <glyph glyph-name="Idieresis" unicode="&#xcf;" horiz-adv-x="377" 
d="M17 0v97l70 17v465l-70 17v97h343v-97l-70 -17v-465l70 -17v-97h-343zM83 727q-37 0 -62.5 22t-25.5 60q0 37 25.5 59.5t62.5 22.5q38 0 64 -22.5t26 -59.5q0 -38 -26 -60t-64 -22zM292 727q-38 0 -63.5 22t-25.5 60q0 37 26 59.5t63 22.5q38 0 63.5 -22.5t25.5 -59.5
q0 -38 -25.5 -60t-63.5 -22z" />
    <glyph glyph-name="Eth" unicode="&#xd0;" horiz-adv-x="721" 
d="M25 295v119h61v165l-68 17v97h337q346 0 346 -335q0 -180 -92 -269t-251 -89h-341v97l69 17v181h-61zM289 117h56q75 0 109.5 48.5t34.5 178.5q0 73 -9.5 120t-30.5 71t-47 32.5t-66 8.5h-47v-162h116v-119h-116v-178z" />
    <glyph glyph-name="Ntilde" unicode="&#xd1;" horiz-adv-x="736" 
d="M276 726l-68 46q50 105 128 105q25 0 64 -13t52 -13q33 0 55 33l68 -46q-49 -106 -128 -106q-25 0 -64 13t-52 13q-33 0 -55 -32zM17 0v97l69 17v465l-69 17v97h283l225 -393h5v278l-70 18v97h263v-97l-61 -17v-579h-180l-259 462h-5v-349l71 -16v-97h-272z" />
    <glyph glyph-name="Ograve" unicode="&#xd2;" horiz-adv-x="713" 
d="M458 722l-240 52l50 130l218 -104zM356 111q62 0 93.5 54t31.5 174q0 136 -29.5 190t-94.5 54q-125 0 -125 -228q0 -135 29 -189.5t95 -54.5zM354 -12q-150 0 -241.5 90.5t-91.5 263.5q0 92 28 163.5t76 114t107.5 64t127.5 21.5q150 0 241 -90t91 -264q0 -91 -28 -162.5
t-76 -114t-107.5 -64.5t-126.5 -22z" />
    <glyph glyph-name="Oacute" unicode="&#xd3;" horiz-adv-x="713" 
d="M496 774l-240 -52l-28 78l218 104zM356 111q62 0 93.5 54t31.5 174q0 136 -29.5 190t-94.5 54q-125 0 -125 -228q0 -135 29 -189.5t95 -54.5zM354 -12q-150 0 -241.5 90.5t-91.5 263.5q0 92 28 163.5t76 114t107.5 64t127.5 21.5q150 0 241 -90t91 -264q0 -91 -28 -162.5
t-76 -114t-107.5 -64.5t-126.5 -22z" />
    <glyph glyph-name="Ocircumflex" unicode="&#xd4;" horiz-adv-x="713" 
d="M226 722l-34 51l121 118h86l120 -118l-33 -51l-130 52zM356 111q62 0 93.5 54t31.5 174q0 136 -29.5 190t-94.5 54q-125 0 -125 -228q0 -135 29 -189.5t95 -54.5zM354 -12q-150 0 -241.5 90.5t-91.5 263.5q0 92 28 163.5t76 114t107.5 64t127.5 21.5q150 0 241 -90
t91 -264q0 -91 -28 -162.5t-76 -114t-107.5 -64.5t-126.5 -22z" />
    <glyph glyph-name="Otilde" unicode="&#xd5;" horiz-adv-x="713" 
d="M241 726l-68 46q50 105 128 105q25 0 64 -13t52 -13q33 0 55 33l68 -46q-49 -106 -128 -106q-25 0 -64 13t-52 13q-33 0 -55 -32zM356 111q62 0 93.5 54t31.5 174q0 136 -29.5 190t-94.5 54q-125 0 -125 -228q0 -135 29 -189.5t95 -54.5zM354 -12q-150 0 -241.5 90.5
t-91.5 263.5q0 92 28 163.5t76 114t107.5 64t127.5 21.5q150 0 241 -90t91 -264q0 -91 -28 -162.5t-76 -114t-107.5 -64.5t-126.5 -22z" />
    <glyph glyph-name="Odieresis" unicode="&#xd6;" horiz-adv-x="713" 
d="M251 727q-37 0 -62.5 22t-25.5 60q0 37 25.5 59.5t62.5 22.5q38 0 64 -22.5t26 -59.5q0 -38 -26 -60t-64 -22zM460 727q-38 0 -63.5 22t-25.5 60q0 37 26 59.5t63 22.5q38 0 63.5 -22.5t25.5 -59.5q0 -38 -25.5 -60t-63.5 -22zM356 111q62 0 93.5 54t31.5 174
q0 136 -29.5 190t-94.5 54q-125 0 -125 -228q0 -135 29 -189.5t95 -54.5zM354 -12q-150 0 -241.5 90.5t-91.5 263.5q0 92 28 163.5t76 114t107.5 64t127.5 21.5q150 0 241 -90t91 -264q0 -91 -28 -162.5t-76 -114t-107.5 -64.5t-126.5 -22z" />
    <glyph glyph-name="multiply" unicode="&#xd7;" horiz-adv-x="540" 
d="M410 553l79 -79l-140 -143l141 -143l-80 -79l-140 142l-140 -142l-79 79l141 143l-141 143l79 80l140 -143z" />
    <glyph glyph-name="Oslash" unicode="&#xd8;" horiz-adv-x="713" 
d="M108 -35l-69 50l60 77q-78 92 -78 250q0 92 28 163.5t76 114t107.5 64t127.5 21.5q105 0 183 -45l47 60l69 -51l-50 -64q83 -93 83 -254q0 -91 -28 -162.5t-76 -114t-107.5 -64.5t-126.5 -22q-111 0 -190 49zM356 111q133 0 133 228q0 61 -6 105l-224 -287q29 -46 97 -46
zM224 355q0 -61 4 -97l222 283q-31 42 -93 42q-133 0 -133 -228z" />
    <glyph glyph-name="Ugrave" unicode="&#xd9;" horiz-adv-x="718" 
d="M486 722l-240 52l50 130l218 -104zM372 -12q-150 0 -223 61t-73 172v358l-65 17v97h331v-97l-63 -16v-345q0 -126 120 -126q58 0 87 29t29 97v345l-63 16v97h255v-97l-61 -17v-345q0 -114 -66 -180t-208 -66z" />
    <glyph glyph-name="Uacute" unicode="&#xda;" horiz-adv-x="718" 
d="M524 774l-240 -52l-28 78l218 104zM372 -12q-150 0 -223 61t-73 172v358l-65 17v97h331v-97l-63 -16v-345q0 -126 120 -126q58 0 87 29t29 97v345l-63 16v97h255v-97l-61 -17v-345q0 -114 -66 -180t-208 -66z" />
    <glyph glyph-name="Ucircumflex" unicode="&#xdb;" horiz-adv-x="718" 
d="M255 722l-34 51l121 118h86l120 -118l-33 -51l-130 52zM372 -12q-150 0 -223 61t-73 172v358l-65 17v97h331v-97l-63 -16v-345q0 -126 120 -126q58 0 87 29t29 97v345l-63 16v97h255v-97l-61 -17v-345q0 -114 -66 -180t-208 -66z" />
    <glyph glyph-name="Udieresis" unicode="&#xdc;" horiz-adv-x="718" 
d="M372 -12q-150 0 -223 61t-73 172v358l-65 17v97h331v-97l-63 -16v-345q0 -126 120 -126q58 0 87 29t29 97v345l-63 16v97h255v-97l-61 -17v-345q0 -114 -66 -180t-208 -66zM280 727q-37 0 -62.5 22t-25.5 60q0 37 25.5 59.5t62.5 22.5q38 0 64 -22.5t26 -59.5
q0 -38 -26 -60t-64 -22zM489 727q-38 0 -63.5 22t-25.5 60q0 37 26 59.5t63 22.5q38 0 63.5 -22.5t25.5 -59.5q0 -38 -25.5 -60t-63.5 -22z" />
    <glyph glyph-name="Yacute" unicode="&#xdd;" horiz-adv-x="675" 
d="M170 0v97l73 17v164l-180 301l-53 17v97h318v-97l-53 -15l101 -187h4l97 187l-53 15v97h241v-97l-54 -17l-166 -296v-169l72 -17v-97h-347zM505 774l-240 -52l-28 78l218 104z" />
    <glyph glyph-name="Thorn" unicode="&#xde;" horiz-adv-x="644" 
d="M17 0v97l69 17v465l-69 17v97h330v-97l-58 -16v-39h66q272 0 272 -188q0 -91 -61 -140t-178 -49q-57 0 -99 8v-59l80 -16v-97h-352zM289 431v-159q21 -3 54 -3q46 0 64.5 18.5t18.5 64.5q0 44 -19.5 61.5t-63.5 17.5h-54z" />
    <glyph glyph-name="germandbls" unicode="&#xdf;" horiz-adv-x="671" 
d="M454 -13q-86 0 -148 25l-8 141h104l14 -56q14 -6 31 -6q20 0 32.5 9.5t12.5 27.5q0 6 -1.5 12t-6 12t-8 10t-11.5 10l-12 9t-15.5 10.5t-15.5 10.5l-39 26q-76 50 -76 123q0 36 23.5 76.5t47.5 78t24 66.5q0 67 -62 67q-84 0 -84 -116v-523h-241v91l57 14v320h-59v83
l59 23v7q0 95 74 152.5t205 57.5q116 0 175.5 -45t59.5 -113q0 -30 -19.5 -60t-43 -49t-43 -40t-19.5 -36q0 -17 12 -28t49 -35l39 -26q96 -63 96 -158q0 -80 -50 -125.5t-153 -45.5z" />
    <glyph glyph-name="agrave" unicode="&#xe0;" horiz-adv-x="546" 
d="M170 -13q-71 0 -114.5 40.5t-43.5 105.5q0 74 47.5 108.5t147.5 52.5l93 18v26q0 42 -20.5 58t-79.5 16q-77 0 -137 -10v106q105 37 224 37q101 0 148.5 -42.5t47.5 -132.5v-238q0 -32 36 -32h16v-87q-37 -25 -107 -25q-87 0 -108 62h-5q-50 -63 -145 -63zM248 93
q32 0 52 20v115l-47 -2q-59 -4 -59 -67q0 -66 54 -66zM368 576l-238 69l59 127l212 -120z" />
    <glyph glyph-name="aacute" unicode="&#xe1;" horiz-adv-x="546" 
d="M170 -13q-71 0 -114.5 40.5t-43.5 105.5q0 74 47.5 108.5t147.5 52.5l93 18v26q0 42 -20.5 58t-79.5 16q-77 0 -137 -10v106q105 37 224 37q101 0 148.5 -42.5t47.5 -132.5v-238q0 -32 36 -32h16v-87q-37 -25 -107 -25q-87 0 -108 62h-5q-50 -63 -145 -63zM248 93
q32 0 52 20v115l-47 -2q-59 -4 -59 -67q0 -66 54 -66zM179 576l-32 76l212 120l59 -127z" />
    <glyph glyph-name="acircumflex" unicode="&#xe2;" horiz-adv-x="546" 
d="M170 -13q-71 0 -114.5 40.5t-43.5 105.5q0 74 47.5 108.5t147.5 52.5l93 18v26q0 42 -20.5 58t-79.5 16q-77 0 -137 -10v106q105 37 224 37q101 0 148.5 -42.5t47.5 -132.5v-238q0 -32 36 -32h16v-87q-37 -25 -107 -25q-87 0 -108 62h-5q-50 -63 -145 -63zM248 93
q32 0 52 20v115l-47 -2q-59 -4 -59 -67q0 -66 54 -66zM146 575l-36 50l120 135h86l120 -135l-37 -50l-126 66z" />
    <glyph glyph-name="atilde" unicode="&#xe3;" horiz-adv-x="546" 
d="M170 -13q-71 0 -114.5 40.5t-43.5 105.5q0 74 47.5 108.5t147.5 52.5l93 18v26q0 42 -20.5 58t-79.5 16q-77 0 -137 -10v106q105 37 224 37q101 0 148.5 -42.5t47.5 -132.5v-238q0 -32 36 -32h16v-87q-37 -25 -107 -25q-87 0 -108 62h-5q-50 -63 -145 -63zM248 93
q32 0 52 20v115l-47 -2q-59 -4 -59 -67q0 -66 54 -66zM161 582l-68 46q50 106 128 106q25 0 60 -14t48 -14q33 0 55 33l68 -46q-49 -106 -128 -106q-25 0 -60 13.5t-48 13.5q-33 0 -55 -32z" />
    <glyph glyph-name="adieresis" unicode="&#xe4;" horiz-adv-x="546" 
d="M170 -13q-71 0 -114.5 40.5t-43.5 105.5q0 74 47.5 108.5t147.5 52.5l93 18v26q0 42 -20.5 58t-79.5 16q-77 0 -137 -10v106q105 37 224 37q101 0 148.5 -42.5t47.5 -132.5v-238q0 -32 36 -32h16v-87q-37 -25 -107 -25q-87 0 -108 62h-5q-50 -63 -145 -63zM248 93
q32 0 52 20v115l-47 -2q-59 -4 -59 -67q0 -66 54 -66zM168 581q-37 0 -62.5 22.5t-25.5 59.5q0 38 25.5 60t62.5 22q38 0 64 -22t26 -60q0 -37 -26 -59.5t-64 -22.5zM377 581q-37 0 -63 22.5t-26 59.5q0 38 25.5 60t63.5 22t63.5 -22t25.5 -60q0 -37 -25.5 -59.5
t-63.5 -22.5z" />
    <glyph glyph-name="aring" unicode="&#xe5;" horiz-adv-x="546" 
d="M170 -13q-71 0 -114.5 40.5t-43.5 105.5q0 74 47.5 108.5t147.5 52.5l93 18v26q0 42 -20.5 58t-79.5 16q-77 0 -137 -10v106q105 37 224 37q101 0 148.5 -42.5t47.5 -132.5v-238q0 -32 36 -32h16v-87q-37 -25 -107 -25q-87 0 -108 62h-5q-50 -63 -145 -63zM248 93
q32 0 52 20v115l-47 -2q-59 -4 -59 -67q0 -66 54 -66zM273 638q22 0 34 13t12 36q0 22 -12.5 35.5t-33.5 13.5t-34 -14t-13 -35q0 -23 12.5 -36t34.5 -13zM273 576q-50 0 -83.5 32.5t-33.5 78.5t33.5 77.5t83.5 31.5t83.5 -32t33.5 -77q0 -46 -33.5 -78.5t-83.5 -32.5z" />
    <glyph glyph-name="ae" unicode="&#xe6;" horiz-adv-x="826" 
d="M181 -13q-79 0 -124 40t-45 106q0 74 47.5 109t147.5 53l93 18v25q0 42 -20.5 58t-79.5 16q-77 0 -137 -10v106q105 37 213 37q98 0 141 -49q60 49 152 49q123 0 180.5 -71t57.5 -236h-321q7 -68 42.5 -97t101.5 -29q73 0 152 25v-97q-77 -53 -202 -53q-154 0 -225 89
q-67 -89 -174 -89zM323 132q-18 39 -23 99l-47 -4q-59 -3 -59 -68q0 -66 57 -66q36 0 72 39zM486 323l144 6q0 109 -67 109q-33 0 -52.5 -25.5t-24.5 -89.5z" />
    <glyph glyph-name="ccedilla" unicode="&#xe7;" horiz-adv-x="507" 
d="M174 -221v56q57 5 78.5 14.5t21.5 25.5q0 29 -75 32v91q-183 46 -183 265q0 142 79 212t218 70q101 0 164 -21v-168h-117l-14 73q-21 7 -41 7q-95 0 -95 -158q0 -90 36.5 -127.5t108.5 -37.5q71 0 125 22v-99q-68 -49 -184 -49q-15 0 -27 1v-28q68 -4 95.5 -21.5
t27.5 -56.5q0 -92 -218 -103z" />
    <glyph glyph-name="egrave" unicode="&#xe8;" horiz-adv-x="548" 
d="M301 -13q-139 0 -212 72.5t-73 208.5q0 130 73.5 203.5t196.5 73.5q126 0 184.5 -70.5t58.5 -235.5h-323q7 -68 43 -97.5t102 -29.5q74 0 153 25v-97q-77 -53 -203 -53zM206 324l145 6q0 108 -67 108q-33 0 -53 -25.5t-25 -88.5zM379 576l-238 69l59 127l212 -120z" />
    <glyph glyph-name="eacute" unicode="&#xe9;" horiz-adv-x="548" 
d="M190 576l-32 76l212 120l59 -127zM301 -13q-139 0 -212 72.5t-73 208.5q0 130 73.5 203.5t196.5 73.5q126 0 184.5 -70.5t58.5 -235.5h-323q7 -68 43 -97.5t102 -29.5q74 0 153 25v-97q-77 -53 -203 -53zM206 324l145 6q0 108 -67 108q-33 0 -53 -25.5t-25 -88.5z" />
    <glyph glyph-name="ecircumflex" unicode="&#xea;" horiz-adv-x="548" 
d="M156 575l-36 50l120 135h86l120 -135l-37 -50l-126 66zM301 -13q-139 0 -212 72.5t-73 208.5q0 130 73.5 203.5t196.5 73.5q126 0 184.5 -70.5t58.5 -235.5h-323q7 -68 43 -97.5t102 -29.5q74 0 153 25v-97q-77 -53 -203 -53zM206 324l145 6q0 108 -67 108
q-33 0 -53 -25.5t-25 -88.5z" />
    <glyph glyph-name="edieresis" unicode="&#xeb;" horiz-adv-x="548" 
d="M178 581q-37 0 -62.5 22.5t-25.5 59.5q0 38 25.5 60t62.5 22q38 0 64 -22t26 -60q0 -37 -26 -59.5t-64 -22.5zM387 581q-37 0 -63 22.5t-26 59.5q0 38 25.5 60t63.5 22t63.5 -22t25.5 -60q0 -37 -25.5 -59.5t-63.5 -22.5zM301 -13q-139 0 -212 72.5t-73 208.5
q0 130 73.5 203.5t196.5 73.5q126 0 184.5 -70.5t58.5 -235.5h-323q7 -68 43 -97.5t102 -29.5q74 0 153 25v-97q-77 -53 -203 -53zM206 324l145 6q0 108 -67 108q-33 0 -53 -25.5t-25 -88.5z" />
    <glyph glyph-name="igrave" unicode="&#xec;" horiz-adv-x="322" 
d="M14 0v91l57 14v307l-62 16v93l229 23l17 -7v-432l54 -14v-91h-295zM251 576l-238 69l59 127l212 -120z" />
    <glyph glyph-name="iacute" unicode="&#xed;" horiz-adv-x="322" 
d="M62 576l-32 76l212 120l59 -127zM14 0v91l57 14v307l-62 16v93l229 23l17 -7v-432l54 -14v-91h-295z" />
    <glyph glyph-name="icircumflex" unicode="&#xee;" horiz-adv-x="322" 
d="M28 575l-36 50l120 135h86l120 -135l-37 -50l-126 66zM14 0v91l57 14v307l-62 16v93l229 23l17 -7v-432l54 -14v-91h-295z" />
    <glyph glyph-name="idieresis" unicode="&#xef;" horiz-adv-x="322" 
d="M50 581q-37 0 -62.5 22.5t-25.5 59.5q0 38 25.5 60t62.5 22q38 0 64 -22t26 -60q0 -37 -26 -59.5t-64 -22.5zM259 581q-37 0 -63 22.5t-26 59.5q0 38 25.5 60t63.5 22t63.5 -22t25.5 -60q0 -37 -25.5 -59.5t-63.5 -22.5zM14 0v91l57 14v307l-62 16v93l229 23l17 -7v-432
l54 -14v-91h-295z" />
    <glyph glyph-name="eth" unicode="&#xf0;" horiz-adv-x="584" 
d="M460 676l-67 -31q174 -130 174 -338q0 -156 -75 -238t-200 -82q-131 0 -203.5 73.5t-72.5 194.5q0 66 20 117.5t52.5 81.5t71 45t78.5 15q43 0 75 -16h6q-28 41 -78 78l-122 -56l-28 60l84 38l-74 40l85 94q80 -30 142 -65l104 48zM293 96q41 0 61 33.5t20 129.5
q0 90 -21 142q-25 15 -58 15q-43 0 -64.5 -34t-21.5 -120q0 -96 21 -131t63 -35z" />
    <glyph glyph-name="ntilde" unicode="&#xf1;" horiz-adv-x="633" 
d="M14 0v91l57 14v307l-60 16v93l220 23l16 -7v-57h6q85 65 176 65q139 0 139 -132v-308l53 -14v-91h-279v91l42 11v247q0 31 -15 44t-47 13q-28 0 -67 -13v-291l42 -11v-91h-283zM210 582l-68 46q50 106 128 106q25 0 60 -14t48 -14q33 0 55 33l68 -46q-49 -106 -128 -106
q-25 0 -60 13.5t-48 13.5q-33 0 -55 -32z" />
    <glyph glyph-name="ograve" unicode="&#xf2;" horiz-adv-x="585" 
d="M294 97q40 0 60.5 36.5t20.5 129.5q0 97 -21.5 135t-62.5 38q-40 0 -61 -35.5t-21 -130.5q0 -97 21.5 -135t63.5 -38zM293 -13q-133 0 -205 74t-72 202q0 133 78 207.5t198 74.5q133 0 205 -71.5t72 -203.5q0 -133 -78.5 -208t-197.5 -75zM388 576l-238 69l59 127
l212 -120z" />
    <glyph glyph-name="oacute" unicode="&#xf3;" horiz-adv-x="585" 
d="M199 576l-32 76l212 120l59 -127zM294 97q40 0 60.5 36.5t20.5 129.5q0 97 -21.5 135t-62.5 38q-40 0 -61 -35.5t-21 -130.5q0 -97 21.5 -135t63.5 -38zM293 -13q-133 0 -205 74t-72 202q0 133 78 207.5t198 74.5q133 0 205 -71.5t72 -203.5q0 -133 -78.5 -208
t-197.5 -75z" />
    <glyph glyph-name="ocircumflex" unicode="&#xf4;" horiz-adv-x="585" 
d="M166 575l-36 50l120 135h86l120 -135l-37 -50l-126 66zM294 97q40 0 60.5 36.5t20.5 129.5q0 97 -21.5 135t-62.5 38q-40 0 -61 -35.5t-21 -130.5q0 -97 21.5 -135t63.5 -38zM293 -13q-133 0 -205 74t-72 202q0 133 78 207.5t198 74.5q133 0 205 -71.5t72 -203.5
q0 -133 -78.5 -208t-197.5 -75z" />
    <glyph glyph-name="otilde" unicode="&#xf5;" horiz-adv-x="585" 
d="M294 97q40 0 60.5 36.5t20.5 129.5q0 97 -21.5 135t-62.5 38q-40 0 -61 -35.5t-21 -130.5q0 -97 21.5 -135t63.5 -38zM293 -13q-133 0 -205 74t-72 202q0 133 78 207.5t198 74.5q133 0 205 -71.5t72 -203.5q0 -133 -78.5 -208t-197.5 -75zM181 582l-68 46q50 106 128 106
q25 0 60 -14t48 -14q33 0 55 33l68 -46q-49 -106 -128 -106q-25 0 -60 13.5t-48 13.5q-33 0 -55 -32z" />
    <glyph glyph-name="odieresis" unicode="&#xf6;" horiz-adv-x="585" 
d="M188 581q-37 0 -62.5 22.5t-25.5 59.5q0 38 25.5 60t62.5 22q38 0 64 -22t26 -60q0 -37 -26 -59.5t-64 -22.5zM397 581q-37 0 -63 22.5t-26 59.5q0 38 25.5 60t63.5 22t63.5 -22t25.5 -60q0 -37 -25.5 -59.5t-63.5 -22.5zM294 97q40 0 60.5 36.5t20.5 129.5
q0 97 -21.5 135t-62.5 38q-40 0 -61 -35.5t-21 -130.5q0 -97 21.5 -135t63.5 -38zM293 -13q-133 0 -205 74t-72 202q0 133 78 207.5t198 74.5q133 0 205 -71.5t72 -203.5q0 -133 -78.5 -208t-197.5 -75z" />
    <glyph glyph-name="divide" unicode="&#xf7;" horiz-adv-x="540" 
d="M270 51q-40 0 -66.5 26.5t-26.5 61.5q0 37 26.5 63t66.5 26q41 0 67 -26t26 -63q0 -36 -26.5 -62t-66.5 -26zM45 281v118h450v-118h-450zM270 452q-40 0 -66.5 26t-26.5 62q0 37 26.5 63t66.5 26t66.5 -26t26.5 -63q0 -36 -26.5 -62t-66.5 -26z" />
    <glyph glyph-name="oslash" unicode="&#xf8;" horiz-adv-x="585" 
d="M89 -37l-64 46l53 63q-62 71 -62 191q0 133 78 207.5t198 74.5q88 0 153 -34l44 53l64 -46l-46 -56q62 -71 62 -192q0 -133 -78.5 -208t-197.5 -75q-89 0 -154 35zM294 96q45 0 68.5 36.5t23.5 130.5q0 22 -2 52l-159 -190q20 -29 69 -29zM199 271q0 -22 2 -52l159 190
q-21 29 -69 29q-45 0 -68.5 -35.5t-23.5 -131.5z" />
    <glyph glyph-name="ugrave" unicode="&#xf9;" horiz-adv-x="633" 
d="M217 -12q-154 0 -154 148v278l-56 17v92l223 21l16 -8v-347q0 -34 13 -48.5t47 -14.5q32 0 71 15v273l-53 17v92l219 21l17 -8v-415l57 -16v-91l-217 -24l-16 7v58h-6q-67 -67 -161 -67zM407 576l-238 69l59 127l212 -120z" />
    <glyph glyph-name="uacute" unicode="&#xfa;" horiz-adv-x="633" 
d="M219 576l-32 76l212 120l59 -127zM217 -12q-154 0 -154 148v278l-56 17v92l223 21l16 -8v-347q0 -34 13 -48.5t47 -14.5q32 0 71 15v273l-53 17v92l219 21l17 -8v-415l57 -16v-91l-217 -24l-16 7v58h-6q-67 -67 -161 -67z" />
    <glyph glyph-name="ucircumflex" unicode="&#xfb;" horiz-adv-x="633" 
d="M185 575l-36 50l120 135h86l120 -135l-37 -50l-126 66zM217 -12q-154 0 -154 148v278l-56 17v92l223 21l16 -8v-347q0 -34 13 -48.5t47 -14.5q32 0 71 15v273l-53 17v92l219 21l17 -8v-415l57 -16v-91l-217 -24l-16 7v58h-6q-67 -67 -161 -67z" />
    <glyph glyph-name="udieresis" unicode="&#xfc;" horiz-adv-x="633" 
d="M207 581q-37 0 -62.5 22.5t-25.5 59.5q0 38 25.5 60t62.5 22q38 0 64 -22t26 -60q0 -37 -26 -59.5t-64 -22.5zM416 581q-37 0 -63 22.5t-26 59.5q0 38 25.5 60t63.5 22t63.5 -22t25.5 -60q0 -37 -25.5 -59.5t-63.5 -22.5zM217 -12q-154 0 -154 148v278l-56 17v92l223 21
l16 -8v-347q0 -34 13 -48.5t47 -14.5q32 0 71 15v273l-53 17v92l219 21l17 -8v-415l57 -16v-91l-217 -24l-16 7v58h-6q-67 -67 -161 -67z" />
    <glyph glyph-name="yacute" unicode="&#xfd;" horiz-adv-x="604" 
d="M173 -203q-63 0 -100 16v115q31 -7 54 -7q68 0 87 48l15 39l-178 421l-46 14v91h287v-91l-49 -12l89 -240h4l78 240l-49 12v91h230v-91l-43 -14l-185 -485q-30 -77 -73.5 -112t-120.5 -35zM230 576l-32 76l212 120l59 -127z" />
    <glyph glyph-name="thorn" unicode="&#xfe;" horiz-adv-x="609" 
d="M2 -200v89l58 13v712l-57 16v97l223 23l17 -8v-251h5q68 55 148 55q83 0 138 -60t55 -198q0 -156 -74 -228.5t-198 -72.5q-47 0 -74 6v-92l66 -12v-89h-307zM303 96q48 0 70.5 36t22.5 133q0 82 -20.5 116t-64.5 34q-40 0 -68 -15v-286q26 -18 60 -18z" />
    <glyph glyph-name="ydieresis" unicode="&#xff;" horiz-adv-x="604" 
d="M173 -203q-63 0 -100 16v115q31 -7 54 -7q68 0 87 48l15 39l-178 421l-46 14v91h287v-91l-49 -12l89 -240h4l78 240l-49 12v91h230v-91l-43 -14l-185 -485q-30 -77 -73.5 -112t-120.5 -35zM218 581q-37 0 -62.5 22.5t-25.5 59.5q0 38 25.5 60t62.5 22q38 0 64 -22t26 -60
q0 -37 -26 -59.5t-64 -22.5zM427 581q-37 0 -63 22.5t-26 59.5q0 38 25.5 60t63.5 22t63.5 -22t25.5 -60q0 -37 -25.5 -59.5t-63.5 -22.5z" />
    <glyph glyph-name="Amacron" unicode="&#x100;" horiz-adv-x="733" 
d="M7 0v97l56 17l210 579h191l205 -579l56 -17v-97h-341v97l67 17l-29 91h-189l-30 -91l68 -17v-97h-264zM326 494l-63 -193h129l-61 193h-5zM220 737v110h289v-110h-289z" />
    <glyph glyph-name="amacron" unicode="&#x101;" horiz-adv-x="546" 
d="M170 -13q-71 0 -114.5 40.5t-43.5 105.5q0 74 47.5 108.5t147.5 52.5l93 18v26q0 42 -20.5 58t-79.5 16q-77 0 -137 -10v106q105 37 224 37q101 0 148.5 -42.5t47.5 -132.5v-238q0 -32 36 -32h16v-87q-37 -25 -107 -25q-87 0 -108 62h-5q-50 -63 -145 -63zM248 93
q32 0 52 20v115l-47 -2q-59 -4 -59 -67q0 -66 54 -66zM128 596v110h289v-110h-289z" />
    <glyph glyph-name="Abreve" unicode="&#x102;" horiz-adv-x="733" 
d="M7 0v97l56 17l210 579h191l205 -579l56 -17v-97h-341v97l67 17l-29 91h-189l-30 -91l68 -17v-97h-264zM326 494l-63 -193h129l-61 193h-5zM365 725q-71 0 -113 39.5t-45 101.5h104q7 -34 54 -34q46 0 53 34h105q-3 -61 -45 -101t-113 -40z" />
    <glyph glyph-name="abreve" unicode="&#x103;" horiz-adv-x="546" 
d="M170 -13q-71 0 -114.5 40.5t-43.5 105.5q0 74 47.5 108.5t147.5 52.5l93 18v26q0 42 -20.5 58t-79.5 16q-77 0 -137 -10v106q105 37 224 37q101 0 148.5 -42.5t47.5 -132.5v-238q0 -32 36 -32h16v-87q-37 -25 -107 -25q-87 0 -108 62h-5q-50 -63 -145 -63zM248 93
q32 0 52 20v115l-47 -2q-59 -4 -59 -67q0 -66 54 -66zM271 585q-71 0 -114 42.5t-45 106.5h105q7 -39 54 -39t54 39h104q-2 -64 -44.5 -106.5t-113.5 -42.5z" />
    <glyph glyph-name="Aogonek" unicode="&#x104;" horiz-adv-x="733" 
d="M605 -197q-63 0 -94.5 24t-31.5 62q0 71 85 111h-180v97l67 17l-29 91h-189l-30 -91l68 -17v-97h-264v97l56 17l210 579h191l205 -579l56 -17v-97h-55q-48 -52 -48 -81q0 -33 41 -33q10 0 26 2v-71q-31 -14 -84 -14zM263 301h129l-61 193h-5z" />
    <glyph glyph-name="aogonek" unicode="&#x105;" horiz-adv-x="546" 
d="M433 -197q-63 0 -94.5 24t-31.5 62q0 67 84 102q-55 11 -71 59h-5q-50 -63 -145 -63q-71 0 -114.5 40.5t-43.5 105.5q0 74 47.5 108.5t147.5 52.5l93 18v26q0 42 -20.5 58t-79.5 16q-77 0 -137 -10v106q105 37 224 37q101 0 148.5 -42.5t47.5 -132.5v-238q0 -32 36 -32
h16v-87q-37 -17 -61 -42t-24 -52q0 -33 40 -33q11 0 27 2v-71q-32 -14 -84 -14zM248 93q32 0 52 20v115l-47 -2q-59 -4 -59 -67q0 -66 54 -66z" />
    <glyph glyph-name="Cacute" unicode="&#x106;" horiz-adv-x="651" 
d="M368 -12q-159 0 -253 86t-94 267q0 98 30.5 170.5t83.5 113.5t115.5 60.5t135.5 19.5q140 0 218 -31l6 -206h-121l-31 95q-36 16 -77 16q-77 0 -111 -55t-34 -163q0 -141 34 -194t117 -53q47 0 79 19l32 99h120l-9 -205q-89 -39 -241 -39zM504 774l-240 -52l-28 78
l218 104z" />
    <glyph glyph-name="cacute" unicode="&#x107;" horiz-adv-x="507" 
d="M198 576l-32 76l212 120l59 -127zM296 -13q-139 0 -209.5 72.5t-70.5 203.5q0 142 79 212t218 70q101 0 164 -21v-168h-117l-14 73q-21 7 -41 7q-95 0 -95 -158q0 -90 36.5 -127.5t108.5 -37.5q71 0 125 22v-99q-68 -49 -184 -49z" />
    <glyph glyph-name="Ccircumflex" unicode="&#x108;" horiz-adv-x="651" 
d="M238 722l-34 51l121 118h86l120 -118l-33 -51l-130 52zM368 -12q-159 0 -253 86t-94 267q0 98 30.5 170.5t83.5 113.5t115.5 60.5t135.5 19.5q140 0 218 -31l6 -206h-121l-31 95q-36 16 -77 16q-77 0 -111 -55t-34 -163q0 -141 34 -194t117 -53q47 0 79 19l32 99h120
l-9 -205q-89 -39 -241 -39z" />
    <glyph glyph-name="ccircumflex" unicode="&#x109;" horiz-adv-x="507" 
d="M164 575l-36 50l120 135h86l120 -135l-37 -50l-126 66zM296 -13q-139 0 -209.5 72.5t-70.5 203.5q0 142 79 212t218 70q101 0 164 -21v-168h-117l-14 73q-21 7 -41 7q-95 0 -95 -158q0 -90 36.5 -127.5t108.5 -37.5q71 0 125 22v-99q-68 -49 -184 -49z" />
    <glyph glyph-name="Cdotaccent" unicode="&#x10a;" horiz-adv-x="651" 
d="M368 -12q-159 0 -253 86t-94 267q0 98 30.5 170.5t83.5 113.5t115.5 60.5t135.5 19.5q140 0 218 -31l6 -206h-121l-31 95q-36 16 -77 16q-77 0 -111 -55t-34 -163q0 -141 34 -194t117 -53q47 0 79 19l32 99h120l-9 -205q-89 -39 -241 -39zM366 725q-41 0 -69.5 24.5
t-28.5 65.5t28.5 65t69.5 24q42 0 70 -24t28 -65t-28 -65.5t-70 -24.5z" />
    <glyph glyph-name="cdotaccent" unicode="&#x10b;" horiz-adv-x="507" 
d="M296 -13q-139 0 -209.5 72.5t-70.5 203.5q0 142 79 212t218 70q101 0 164 -21v-168h-117l-14 73q-21 7 -41 7q-95 0 -95 -158q0 -90 36.5 -127.5t108.5 -37.5q71 0 125 22v-99q-68 -49 -184 -49zM291 577q-41 0 -69.5 24.5t-28.5 65.5q0 40 28.5 64.5t69.5 24.5
q42 0 70 -24.5t28 -64.5q0 -41 -28 -65.5t-70 -24.5z" />
    <glyph glyph-name="Ccaron" unicode="&#x10c;" horiz-adv-x="651" 
d="M497 895l33 -50l-120 -119h-86l-121 119l34 50l130 -51zM368 -12q-159 0 -253 86t-94 267q0 98 30.5 170.5t83.5 113.5t115.5 60.5t135.5 19.5q140 0 218 -31l6 -206h-121l-31 95q-36 16 -77 16q-77 0 -111 -55t-34 -163q0 -141 34 -194t117 -53q47 0 79 19l32 99h120
l-9 -205q-89 -39 -241 -39z" />
    <glyph glyph-name="ccaron" unicode="&#x10d;" horiz-adv-x="507" 
d="M249 582l-120 134l36 50l127 -65l126 65l37 -50l-120 -134h-86zM296 -13q-139 0 -209.5 72.5t-70.5 203.5q0 142 79 212t218 70q101 0 164 -21v-168h-117l-14 73q-21 7 -41 7q-95 0 -95 -158q0 -90 36.5 -127.5t108.5 -37.5q71 0 125 22v-99q-68 -49 -184 -49z" />
    <glyph glyph-name="Dcaron" unicode="&#x10e;" horiz-adv-x="721" 
d="M471 895l33 -50l-120 -119h-86l-121 119l34 50l130 -51zM17 0v97l69 17v465l-68 17v97h337q346 0 346 -335q0 -180 -92 -269t-251 -89h-341zM289 117h56q75 0 109.5 48.5t34.5 178.5q0 73 -9.5 120t-30.5 71t-47 32.5t-66 8.5h-47v-459z" />
    <glyph glyph-name="dcaron" unicode="&#x10f;" horiz-adv-x="620" 
d="M667 559l-91 13l14 178l140 -18zM229 -12q-87 0 -148 63t-61 203q0 151 71 221t188 70q50 0 87 -15v87l-62 16v93l229 24l17 -9v-620l57 -16v-91l-206 -24l-16 7v52h-6q-46 -61 -150 -61zM300 116q36 0 66 17v282q-27 19 -60 19q-46 0 -69.5 -34.5t-23.5 -126.5
q0 -85 21.5 -121t65.5 -36z" />
    <glyph glyph-name="Dcroat" unicode="&#x110;" horiz-adv-x="721" 
d="M25 295v119h61v165l-68 17v97h337q346 0 346 -335q0 -180 -92 -269t-251 -89h-341v97l69 17v181h-61zM289 117h56q75 0 109.5 48.5t34.5 178.5q0 73 -9.5 120t-30.5 71t-47 32.5t-66 8.5h-47v-162h116v-119h-116v-178z" />
    <glyph glyph-name="dcroat" unicode="&#x111;" horiz-adv-x="620" 
d="M234 574v52h132v18l-62 16v66l229 24l17 -9v-115h58v-52h-58v-453l57 -16v-91l-206 -24l-16 7v52h-6q-46 -61 -150 -61q-87 0 -148 63t-61 203q0 151 71 221t188 70q50 0 87 -15v44h-132zM300 116q36 0 66 17v282q-27 19 -60 19q-46 0 -69.5 -34.5t-23.5 -126.5
q0 -85 21.5 -121t65.5 -36z" />
    <glyph glyph-name="Emacron" unicode="&#x112;" horiz-adv-x="641" 
d="M17 0v97l69 17v465l-69 17v97h581l9 -210h-111l-36 99h-175v-176h62l18 65h90v-237h-90l-18 67h-62v-190h178l48 122h113l-10 -233h-597zM183 737v110h289v-110h-289z" />
    <glyph glyph-name="emacron" unicode="&#x113;" horiz-adv-x="548" 
d="M301 -13q-139 0 -212 72.5t-73 208.5q0 130 73.5 203.5t196.5 73.5q126 0 184.5 -70.5t58.5 -235.5h-323q7 -68 43 -97.5t102 -29.5q74 0 153 25v-97q-77 -53 -203 -53zM206 324l145 6q0 108 -67 108q-33 0 -53 -25.5t-25 -88.5zM138 596v110h289v-110h-289z" />
    <glyph glyph-name="Ebreve" unicode="&#x114;" horiz-adv-x="641" 
d="M17 0v97l69 17v465l-69 17v97h581l9 -210h-111l-36 99h-175v-176h62l18 65h90v-237h-90l-18 67h-62v-190h178l48 122h113l-10 -233h-597zM328 725q-71 0 -113 39.5t-45 101.5h104q7 -34 54 -34q46 0 53 34h105q-3 -61 -45 -101t-113 -40z" />
    <glyph glyph-name="ebreve" unicode="&#x115;" horiz-adv-x="548" 
d="M301 -13q-139 0 -212 72.5t-73 208.5q0 130 73.5 203.5t196.5 73.5q126 0 184.5 -70.5t58.5 -235.5h-323q7 -68 43 -97.5t102 -29.5q74 0 153 25v-97q-77 -53 -203 -53zM206 324l145 6q0 108 -67 108q-33 0 -53 -25.5t-25 -88.5zM283 585q-71 0 -114 42.5t-45 106.5h105
q7 -39 54 -39t54 39h104q-2 -64 -44.5 -106.5t-113.5 -42.5z" />
    <glyph glyph-name="Edotaccent" unicode="&#x116;" horiz-adv-x="641" 
d="M327 725q-41 0 -69.5 24.5t-28.5 65.5t28.5 65t69.5 24q42 0 70 -24t28 -65t-28 -65.5t-70 -24.5zM17 0v97l69 17v465l-69 17v97h581l9 -210h-111l-36 99h-175v-176h62l18 65h90v-237h-90l-18 67h-62v-190h178l48 122h113l-10 -233h-597z" />
    <glyph glyph-name="edotaccent" unicode="&#x117;" horiz-adv-x="548" 
d="M301 -13q-139 0 -212 72.5t-73 208.5q0 130 73.5 203.5t196.5 73.5q126 0 184.5 -70.5t58.5 -235.5h-323q7 -68 43 -97.5t102 -29.5q74 0 153 25v-97q-77 -53 -203 -53zM206 324l145 6q0 108 -67 108q-33 0 -53 -25.5t-25 -88.5zM283 577q-41 0 -69.5 24.5t-28.5 65.5
q0 40 28.5 64.5t69.5 24.5q42 0 70 -24.5t28 -64.5q0 -41 -28 -65.5t-70 -24.5z" />
    <glyph glyph-name="Eogonek" unicode="&#x118;" horiz-adv-x="641" 
d="M17 0v97l69 17v465l-69 17v97h581l9 -210h-111l-36 99h-175v-176h62l18 65h90v-237h-90l-18 67h-62v-190h178l48 122h113l-10 -233h-66q-27 -28 -37.5 -45.5t-10.5 -35.5q0 -33 40 -33q11 0 27 2v-71q-33 -14 -84 -14q-64 0 -95.5 24t-31.5 62q0 74 93 111h-432z" />
    <glyph glyph-name="eogonek" unicode="&#x119;" horiz-adv-x="548" 
d="M451 -183q-33 -14 -84 -14q-64 0 -95.5 24t-31.5 62q0 61 80 99q-2 -1 -19 -1q-139 0 -212 72.5t-73 208.5q0 130 73.5 203.5t196.5 73.5q126 0 184.5 -70.5t58.5 -235.5h-323q7 -68 43 -97.5t102 -29.5q74 0 153 25v-97q-51 -25 -85.5 -58t-34.5 -63q0 -33 40 -33
q11 0 27 2v-71zM284 438q-33 0 -53 -25.5t-25 -88.5l145 6q0 108 -67 108z" />
    <glyph glyph-name="Ecaron" unicode="&#x11a;" horiz-adv-x="641" 
d="M458 895l33 -50l-120 -119h-86l-121 119l34 50l130 -51zM17 0v97l69 17v465l-69 17v97h581l9 -210h-111l-36 99h-175v-176h62l18 65h90v-237h-90l-18 67h-62v-190h178l48 122h113l-10 -233h-597z" />
    <glyph glyph-name="ecaron" unicode="&#x11b;" horiz-adv-x="548" 
d="M240 582l-120 134l36 50l127 -65l126 65l37 -50l-120 -134h-86zM301 -13q-139 0 -212 72.5t-73 208.5q0 130 73.5 203.5t196.5 73.5q126 0 184.5 -70.5t58.5 -235.5h-323q7 -68 43 -97.5t102 -29.5q74 0 153 25v-97q-77 -53 -203 -53zM206 324l145 6q0 108 -67 108
q-33 0 -53 -25.5t-25 -88.5z" />
    <glyph glyph-name="Gcircumflex" unicode="&#x11c;" horiz-adv-x="705" 
d="M246 722l-34 51l121 118h86l120 -118l-33 -51l-130 52zM392 -12q-371 0 -371 353q0 98 30 170.5t84 113.5t120 60.5t146 19.5q139 0 219 -32l8 -204h-121l-34 95q-35 15 -85 15q-154 0 -154 -218q0 -141 34 -196t119 -55q35 0 61 10v111l-62 16v97h306v-97l-54 -16v-205
q-106 -38 -246 -38z" />
    <glyph glyph-name="gcircumflex" unicode="&#x11d;" horiz-adv-x="568" 
d="M155 575l-36 50l120 135h86l120 -135l-37 -50l-126 66zM253 -204q-123 0 -188 33.5t-65 88.5q0 78 112 108v5q-70 21 -70 86q0 63 77 113q-82 45 -82 135q0 85 64 132.5t171 47.5q65 0 113 -17l171 24v-108l-72 3q23 -35 23 -71q0 -86 -63.5 -133t-171.5 -47q-42 0 -74 7
q-12 -13 -12 -30q0 -27 37 -27h173q74 0 119.5 -35.5t45.5 -110.5q0 -90 -76.5 -147t-231.5 -57zM267 -102q126 0 126 61q0 22 -14 30t-49 8h-126q-35 -15 -35 -49q0 -50 98 -50zM272 285q64 0 64 84q0 49 -17 67.5t-47 18.5q-62 0 -62 -83q0 -87 62 -87z" />
    <glyph glyph-name="Gbreve" unicode="&#x11e;" horiz-adv-x="705" 
d="M375 725q-71 0 -113 39.5t-45 101.5h104q7 -34 54 -34q46 0 53 34h105q-3 -61 -45 -101t-113 -40zM392 -12q-371 0 -371 353q0 98 30 170.5t84 113.5t120 60.5t146 19.5q139 0 219 -32l8 -204h-121l-34 95q-35 15 -85 15q-154 0 -154 -218q0 -141 34 -196t119 -55
q35 0 61 10v111l-62 16v97h306v-97l-54 -16v-205q-106 -38 -246 -38z" />
    <glyph glyph-name="gbreve" unicode="&#x11f;" horiz-adv-x="568" 
d="M253 -204q-123 0 -188 33.5t-65 88.5q0 78 112 108v5q-70 21 -70 86q0 63 77 113q-82 45 -82 135q0 85 64 132.5t171 47.5q65 0 113 -17l171 24v-108l-72 3q23 -35 23 -71q0 -86 -63.5 -133t-171.5 -47q-42 0 -74 7q-12 -13 -12 -30q0 -27 37 -27h173q74 0 119.5 -35.5
t45.5 -110.5q0 -90 -76.5 -147t-231.5 -57zM267 -102q126 0 126 61q0 22 -14 30t-49 8h-126q-35 -15 -35 -49q0 -50 98 -50zM272 285q64 0 64 84q0 49 -17 67.5t-47 18.5q-62 0 -62 -83q0 -87 62 -87zM282 585q-71 0 -114 42.5t-45 106.5h105q3 -18 17.5 -28.5t36.5 -10.5
t36.5 10.5t17.5 28.5h104q-2 -64 -44.5 -106.5t-113.5 -42.5z" />
    <glyph glyph-name="Gdotaccent" unicode="&#x120;" horiz-adv-x="705" 
d="M374 725q-41 0 -69.5 24.5t-28.5 65.5t28.5 65t69.5 24q42 0 70 -24t28 -65t-28 -65.5t-70 -24.5zM392 -12q-371 0 -371 353q0 98 30 170.5t84 113.5t120 60.5t146 19.5q139 0 219 -32l8 -204h-121l-34 95q-35 15 -85 15q-154 0 -154 -218q0 -141 34 -196t119 -55
q35 0 61 10v111l-62 16v97h306v-97l-54 -16v-205q-106 -38 -246 -38z" />
    <glyph glyph-name="gdotaccent" unicode="&#x121;" horiz-adv-x="568" 
d="M253 -204q-123 0 -188 33.5t-65 88.5q0 78 112 108v5q-70 21 -70 86q0 63 77 113q-82 45 -82 135q0 85 64 132.5t171 47.5q65 0 113 -17l171 24v-108l-72 3q23 -35 23 -71q0 -86 -63.5 -133t-171.5 -47q-42 0 -74 7q-12 -13 -12 -30q0 -27 37 -27h173q74 0 119.5 -35.5
t45.5 -110.5q0 -90 -76.5 -147t-231.5 -57zM267 -102q126 0 126 61q0 22 -14 30t-49 8h-126q-35 -15 -35 -49q0 -50 98 -50zM272 285q64 0 64 84q0 49 -17 67.5t-47 18.5q-62 0 -62 -83q0 -87 62 -87zM281 577q-41 0 -69.5 24.5t-28.5 65.5q0 40 28.5 64.5t69.5 24.5
q42 0 70 -24.5t28 -64.5q0 -41 -28 -65.5t-70 -24.5z" />
    <glyph glyph-name="Gcommaaccent" unicode="&#x122;" horiz-adv-x="705" 
d="M282 -189q9 67 9 153h174q-10 -96 -49 -153h-134zM392 -12q-371 0 -371 353q0 98 30 170.5t84 113.5t120 60.5t146 19.5q139 0 219 -32l8 -204h-121l-34 95q-35 15 -85 15q-154 0 -154 -218q0 -141 34 -196t119 -55q35 0 61 10v111l-62 16v97h306v-97l-54 -16v-205
q-106 -38 -246 -38z" />
    <glyph glyph-name="gcommaaccent" unicode="&#x123;" horiz-adv-x="568" 
d="M376 746q-10 -75 -10 -153h-174q10 95 50 153h134zM253 -204q-123 0 -188 33.5t-65 88.5q0 78 112 108v5q-70 21 -70 86q0 63 77 113q-82 45 -82 135q0 85 64 132.5t171 47.5q65 0 113 -17l171 24v-108l-72 3q23 -35 23 -71q0 -86 -63.5 -133t-171.5 -47q-42 0 -74 7
q-12 -13 -12 -30q0 -27 37 -27h173q74 0 119.5 -35.5t45.5 -110.5q0 -90 -76.5 -147t-231.5 -57zM267 -102q126 0 126 61q0 22 -14 30t-49 8h-126q-35 -15 -35 -49q0 -50 98 -50zM272 285q64 0 64 84q0 49 -17 67.5t-47 18.5q-62 0 -62 -83q0 -87 62 -87z" />
    <glyph glyph-name="Hcircumflex" unicode="&#x124;" horiz-adv-x="770" 
d="M17 0v97l69 17v465l-69 17v97h330v-97l-58 -16v-170h194v170l-60 16v97h330v-97l-68 -17v-465l69 -17v-97h-331v97l60 16v187h-194v-187l58 -16v-97h-330zM255 722l-34 51l121 118h86l120 -118l-33 -51l-130 52z" />
    <glyph glyph-name="hcircumflex" unicode="&#x125;" horiz-adv-x="632" 
d="M14 0v91l57 14v513l-60 16v92l227 24l17 -9v-259h5q82 63 169 63q139 0 139 -132v-308l53 -14v-91h-279v91l42 11v247q0 32 -15 45t-47 13q-25 0 -67 -14v-291l42 -11v-91h-283zM193 767l-34 51l121 118h86l120 -118l-33 -51l-130 52z" />
    <glyph glyph-name="Hbar" unicode="&#x126;" horiz-adv-x="770" 
d="M12 458v70h74v51l-69 17v97h330v-95l-58 -16v-54h194v54l-60 16v95h330v-97l-68 -17v-51h73v-70h-73v-344l69 -17v-97h-331v97l60 16v187h-194v-187l58 -16v-97h-330v97l69 17v344h-74zM289 400h194v58h-194v-58z" />
    <glyph glyph-name="hbar" unicode="&#x127;" horiz-adv-x="632" 
d="M1 574v52h70v18l-60 16v66l227 24l17 -9v-115h128v-52h-128v-92h5q82 63 169 63q139 0 139 -132v-308l53 -14v-91h-279v91l42 11v247q0 32 -15 45t-47 13q-25 0 -67 -14v-291l42 -11v-91h-283v91l57 14v469h-70z" />
    <glyph glyph-name="Itilde" unicode="&#x128;" horiz-adv-x="377" 
d="M17 0v97l70 17v465l-70 17v97h343v-97l-70 -17v-465l70 -17v-97h-343zM73 726l-68 46q50 105 128 105q25 0 64 -13t52 -13q33 0 55 33l68 -46q-49 -106 -128 -106q-25 0 -64 13t-52 13q-33 0 -55 -32z" />
    <glyph glyph-name="itilde" unicode="&#x129;" horiz-adv-x="322" 
d="M14 0v91l57 14v307l-62 16v93l229 23l17 -7v-432l54 -14v-91h-295zM44 582l-68 46q50 106 128 106q25 0 60 -14t48 -14q33 0 55 33l68 -46q-49 -106 -128 -106q-25 0 -60 13.5t-48 13.5q-33 0 -55 -32z" />
    <glyph glyph-name="Imacron" unicode="&#x12a;" horiz-adv-x="377" 
d="M17 0v97l70 17v465l-70 17v97h343v-97l-70 -17v-465l70 -17v-97h-343zM43 737v110h289v-110h-289z" />
    <glyph glyph-name="imacron" unicode="&#x12b;" horiz-adv-x="322" 
d="M14 0v91l57 14v307l-62 16v93l229 23l17 -7v-432l54 -14v-91h-295zM11 596v110h272v-110h-272z" />
    <glyph glyph-name="Ibreve" unicode="&#x12c;" horiz-adv-x="377" 
d="M17 0v97l70 17v465l-70 17v97h343v-97l-70 -17v-465l70 -17v-97h-343zM189 725q-71 0 -113 39.5t-45 101.5h104q7 -34 54 -34q46 0 53 34h105q-3 -61 -45 -101t-113 -40z" />
    <glyph glyph-name="ibreve" unicode="&#x12d;" horiz-adv-x="322" 
d="M14 0v91l57 14v307l-62 16v93l229 23l17 -7v-432l54 -14v-91h-295zM155 585q-71 0 -114 42.5t-45 106.5h105q7 -39 54 -39t54 39h104q-2 -64 -44.5 -106.5t-113.5 -42.5z" />
    <glyph glyph-name="Iogonek" unicode="&#x12e;" horiz-adv-x="377" 
d="M17 0v97l70 17v465l-70 17v97h343v-97l-70 -17v-465l70 -17v-97h-76q-42 -47 -42 -81q0 -33 40 -33q11 0 27 2v-71q-33 -14 -85 -14q-63 0 -94.5 24t-31.5 62q0 34 22.5 63t60.5 48h-164z" />
    <glyph glyph-name="iogonek" unicode="&#x12f;" horiz-adv-x="322" 
d="M14 0v91l57 14v307l-62 16v93l229 23l17 -7v-432l54 -14v-91h-54q-42 -51 -42 -81q0 -33 40 -33q11 0 27 2v-71q-31 -14 -84 -14q-63 0 -94.5 24t-31.5 62q0 35 24.5 64t66.5 47h-147zM158 577q-43 0 -72 24.5t-29 65.5q0 40 29 64.5t72 24.5t72 -24.5t29 -64.5
q0 -41 -29 -65.5t-72 -24.5z" />
    <glyph glyph-name="Idotaccent" unicode="&#x130;" horiz-adv-x="377" 
d="M17 0v97l70 17v465l-70 17v97h343v-97l-70 -17v-465l70 -17v-97h-343zM188 725q-41 0 -69.5 24.5t-28.5 65.5t28.5 65t69.5 24q42 0 70 -24t28 -65t-28 -65.5t-70 -24.5z" />
    <glyph glyph-name="dotlessi" unicode="&#x131;" horiz-adv-x="322" 
d="M14 0v91l57 14v307l-62 16v93l229 23l17 -7v-432l54 -14v-91h-295z" />
    <glyph glyph-name="IJ" unicode="&#x132;" horiz-adv-x="836" 
d="M17 0v97l70 17v465l-70 17v97h343v-97l-70 -17v-465l70 -17v-97h-343zM528 -8q-80 0 -140 30v119q46 -13 79 -13q43 0 65 21t22 72v358l-69 17v97h337v-97l-65 -17v-370q0 -217 -229 -217z" />
    <glyph glyph-name="ij" unicode="&#x133;" horiz-adv-x="601" 
d="M14 0v91l57 14v307l-62 16v93l229 23l17 -7v-432l54 -14v-91h-295zM158 577q-43 0 -72 24.5t-29 65.5q0 40 29 64.5t72 24.5t72 -24.5t29 -64.5q0 -41 -29 -65.5t-72 -24.5zM347 -198q-53 0 -95 17v106q20 -4 45 -4q36 0 53.5 16t17.5 54v421l-63 16v93l229 23l17 -7
v-543q0 -96 -48 -144t-156 -48zM454 577q-43 0 -72 24.5t-29 65.5q0 40 29 64.5t72 24.5t72 -24.5t29 -64.5q0 -41 -29 -65.5t-72 -24.5z" />
    <glyph glyph-name="Jcircumflex" unicode="&#x134;" horiz-adv-x="474" 
d="M159 722l-34 51l121 118h86l120 -118l-33 -51l-130 52zM165 -8q-83 0 -152 31v118q52 -13 86 -13q46 0 69.5 21t23.5 72v358l-69 17v97h338v-97l-66 -17v-370q0 -217 -230 -217z" />
    <glyph glyph-name="jcircumflex" unicode="&#x135;" horiz-adv-x="306" 
d="M52 -198q-53 0 -95 17v106q20 -4 45 -4q36 0 53.5 16t17.5 54v421l-63 16v93l229 23l17 -7v-543q0 -96 -48 -144t-156 -48zM23 575l-36 50l120 135h86l120 -135l-37 -50l-126 66z" />
    <glyph glyph-name="Kcommaaccent" unicode="&#x136;" horiz-adv-x="739" 
d="M17 0v97l69 17v465l-69 17v97h332v-97l-60 -16v-207l189 208l-53 15v97h283v-97l-59 -19l-174 -175l191 -289l59 -16v-97h-222l-167 267l-47 -43v-111l60 -16v-97h-332zM287 -189q9 67 9 153h174q-10 -96 -49 -153h-134z" />
    <glyph glyph-name="kcommaaccent" unicode="&#x137;" horiz-adv-x="607" 
d="M14 0v91l57 14v513l-60 16v92l227 24l17 -8v-440l19 13l111 115l-51 13v91h245v-91l-52 -15l-111 -118l142 -209l39 -10v-91h-182l-132 206l-28 -5v-99l46 -11v-91h-287zM212 -189q9 68 9 153h174q-10 -96 -49 -153h-134z" />
    <glyph glyph-name="Lacute" unicode="&#x139;" horiz-adv-x="605" 
d="M327 774l-240 -52l-28 78l218 104zM17 0v97l69 17v465l-69 17v97h345v-97l-73 -16v-466h147l49 144h112l-13 -258h-567z" />
    <glyph glyph-name="lacute" unicode="&#x13a;" horiz-adv-x="326" 
d="M300 817l-240 -52l-28 78l218 104zM14 0v91l59 14v512l-64 17v92l231 23l16 -8v-636l57 -14v-91h-299z" />
    <glyph glyph-name="Lcommaaccent" unicode="&#x13b;" horiz-adv-x="605" 
d="M217 -189q9 68 9 153h174q-10 -96 -49 -153h-134zM17 0v97l69 17v465l-69 17v97h345v-97l-73 -16v-466h147l49 144h112l-13 -258h-567z" />
    <glyph glyph-name="lcommaaccent" unicode="&#x13c;" horiz-adv-x="326" 
d="M69 -189q9 68 9 153h174q-10 -96 -49 -153h-134zM14 0v91l59 14v512l-64 17v92l231 23l16 -8v-636l57 -14v-91h-299z" />
    <glyph glyph-name="Lcaron" unicode="&#x13d;" horiz-adv-x="605" 
d="M398 530l15 183l141 -17l-63 -180zM17 0v97l69 17v465l-69 17v97h345v-97l-73 -16v-466h147l49 144h112l-13 -258h-567z" />
    <glyph glyph-name="lcaron" unicode="&#x13e;" horiz-adv-x="326" 
d="M374 559l-91 13l14 178l140 -18zM14 0v91l59 14v512l-64 17v92l231 23l16 -8v-636l57 -14v-91h-299z" />
    <glyph glyph-name="Ldot" unicode="&#x13f;" horiz-adv-x="605" 
d="M17 0v97l69 17v465l-69 17v97h345v-97l-73 -16v-466h147l49 134h112l-13 -248h-567zM507 303q-39 0 -65 25t-26 60q0 36 26 61t65 25q38 0 63.5 -25t25.5 -61q0 -35 -25.5 -60t-63.5 -25z" />
    <glyph glyph-name="ldot" unicode="&#x140;" horiz-adv-x="420" 
d="M14 0v91l59 14v512l-64 17v92l231 23l16 -8v-636l57 -14v-91h-299zM373 285q-38 0 -63 24.5t-25 58.5q0 35 25 60t63 25t63 -25t25 -60q0 -34 -25 -58.5t-63 -24.5z" />
    <glyph glyph-name="Lslash" unicode="&#x141;" horiz-adv-x="605" 
d="M17 208v118l69 23v230l-69 17v97h343v-97l-71 -16v-165l148 51v-118l-148 -51v-183h147l49 144h112l-13 -258h-567v97l69 17v117z" />
    <glyph glyph-name="lslash" unicode="&#x142;" horiz-adv-x="326" 
d="M9 255v110l64 32v220l-64 17v92l231 23l16 -8v-251l68 35v-110l-68 -35v-275l57 -14v-91h-299v91l59 14v182z" />
    <glyph glyph-name="Nacute" unicode="&#x143;" horiz-adv-x="736" 
d="M534 774l-240 -52l-28 78l218 104zM17 0v97l69 17v465l-69 17v97h283l225 -393h5v278l-70 18v97h263v-97l-61 -17v-579h-180l-259 462h-5v-349l71 -16v-97h-272z" />
    <glyph glyph-name="nacute" unicode="&#x144;" horiz-adv-x="633" 
d="M228 576l-32 76l212 120l59 -127zM14 0v91l57 14v307l-60 16v93l220 23l16 -7v-57h6q85 65 176 65q139 0 139 -132v-308l53 -14v-91h-279v91l42 11v247q0 31 -15 44t-47 13q-28 0 -67 -13v-291l42 -11v-91h-283z" />
    <glyph glyph-name="Ncommaaccent" unicode="&#x145;" horiz-adv-x="736" 
d="M293 -189q9 67 9 153h174q-10 -96 -49 -153h-134zM17 0v97l69 17v465l-69 17v97h283l225 -393h5v278l-70 18v97h263v-97l-61 -17v-579h-180l-259 462h-5v-349l71 -16v-97h-272z" />
    <glyph glyph-name="ncommaaccent" unicode="&#x146;" horiz-adv-x="633" 
d="M229 -189q9 68 9 153h174q-10 -96 -49 -153h-134zM14 0v91l57 14v307l-60 16v93l220 23l16 -7v-57h6q85 65 176 65q139 0 139 -132v-308l53 -14v-91h-279v91l42 11v247q0 31 -15 44t-47 13q-28 0 -67 -13v-291l42 -11v-91h-283z" />
    <glyph glyph-name="Ncaron" unicode="&#x147;" horiz-adv-x="736" 
d="M524 895l33 -50l-120 -119h-86l-121 119l34 50l130 -51zM17 0v97l69 17v465l-69 17v97h283l225 -393h5v278l-70 18v97h263v-97l-61 -17v-579h-180l-259 462h-5v-349l71 -16v-97h-272z" />
    <glyph glyph-name="ncaron" unicode="&#x148;" horiz-adv-x="633" 
d="M278 582l-120 134l36 50l127 -65l126 65l37 -50l-120 -134h-86zM14 0v91l57 14v307l-60 16v93l220 23l16 -7v-57h6q85 65 176 65q139 0 139 -132v-308l53 -14v-91h-279v91l42 11v247q0 31 -15 44t-47 13q-28 0 -67 -13v-291l42 -11v-91h-283z" />
    <glyph glyph-name="napostrophe" unicode="&#x149;" horiz-adv-x="742" 
d="M-46 469q12 122 12 224h168q-12 -126 -62 -224h-118zM122 0v91l57 14v307l-60 16v93l220 23l16 -7v-57h6q85 65 176 65q139 0 139 -132v-308l53 -14v-91h-279v91l42 11v247q0 31 -15 44t-47 13q-28 0 -67 -13v-291l42 -11v-91h-283z" />
    <glyph glyph-name="Eng" unicode="&#x14a;" horiz-adv-x="736" 
d="M469 -183q-63 0 -111 21v109q32 -6 68 -6q68 0 79 33l-282 488h-5v-349l71 -16v-97h-272v97l69 17v465l-69 17v97h283l225 -393h5v278l-70 18v97h263v-97l-61 -17v-563q0 -99 -46 -149t-147 -50z" />
    <glyph glyph-name="eng" unicode="&#x14b;" horiz-adv-x="613" 
d="M568 413v-419q0 -96 -48.5 -144t-154.5 -48q-52 0 -95 17v106q20 -4 44 -4q35 0 52.5 16t17.5 54v358q0 31 -15 44t-47 13q-28 0 -67 -13v-291l50 -11v-91h-291v91l57 14v307l-60 16v93l220 23l16 -7v-57h6q85 65 176 65q139 0 139 -132z" />
    <glyph glyph-name="Omacron" unicode="&#x14c;" horiz-adv-x="713" 
d="M211 737v110h289v-110h-289zM356 111q62 0 93.5 54t31.5 174q0 136 -29.5 190t-94.5 54q-125 0 -125 -228q0 -135 29 -189.5t95 -54.5zM354 -12q-150 0 -241.5 90.5t-91.5 263.5q0 92 28 163.5t76 114t107.5 64t127.5 21.5q150 0 241 -90t91 -264q0 -91 -28 -162.5
t-76 -114t-107.5 -64.5t-126.5 -22z" />
    <glyph glyph-name="omacron" unicode="&#x14d;" horiz-adv-x="585" 
d="M148 596v110h289v-110h-289zM294 97q40 0 60.5 36.5t20.5 129.5q0 97 -21.5 135t-62.5 38q-40 0 -61 -35.5t-21 -130.5q0 -97 21.5 -135t63.5 -38zM293 -13q-133 0 -205 74t-72 202q0 133 78 207.5t198 74.5q133 0 205 -71.5t72 -203.5q0 -133 -78.5 -208t-197.5 -75z
" />
    <glyph glyph-name="Obreve" unicode="&#x14e;" horiz-adv-x="713" 
d="M357 725q-71 0 -113 39.5t-45 101.5h104q7 -34 54 -34q46 0 53 34h105q-3 -61 -45 -101t-113 -40zM356 111q62 0 93.5 54t31.5 174q0 136 -29.5 190t-94.5 54q-125 0 -125 -228q0 -135 29 -189.5t95 -54.5zM354 -12q-150 0 -241.5 90.5t-91.5 263.5q0 92 28 163.5t76 114
t107.5 64t127.5 21.5q150 0 241 -90t91 -264q0 -91 -28 -162.5t-76 -114t-107.5 -64.5t-126.5 -22z" />
    <glyph glyph-name="obreve" unicode="&#x14f;" horiz-adv-x="585" 
d="M294 97q40 0 60.5 36.5t20.5 129.5q0 97 -21.5 135t-62.5 38q-40 0 -61 -35.5t-21 -130.5q0 -97 21.5 -135t63.5 -38zM293 -13q-133 0 -205 74t-72 202q0 133 78 207.5t198 74.5q133 0 205 -71.5t72 -203.5q0 -133 -78.5 -208t-197.5 -75zM293 585q-71 0 -114 42.5
t-45 106.5h105q7 -39 54 -39t54 39h104q-2 -64 -44.5 -106.5t-113.5 -42.5z" />
    <glyph glyph-name="Ohungarumlaut" unicode="&#x150;" horiz-adv-x="713" 
d="M281 723l-72 40l79 157l119 -70zM463 724l-69 45l93 152l113 -80zM356 111q62 0 93.5 54t31.5 174q0 136 -29.5 190t-94.5 54q-125 0 -125 -228q0 -135 29 -189.5t95 -54.5zM354 -12q-150 0 -241.5 90.5t-91.5 263.5q0 92 28 163.5t76 114t107.5 64t127.5 21.5
q150 0 241 -90t91 -264q0 -91 -28 -162.5t-76 -114t-107.5 -64.5t-126.5 -22z" />
    <glyph glyph-name="ohungarumlaut" unicode="&#x151;" horiz-adv-x="585" 
d="M189 570l-57 42l113 174l105 -79zM383 572l-55 47l126 167l99 -87zM294 97q40 0 60.5 36.5t20.5 129.5q0 97 -21.5 135t-62.5 38q-40 0 -61 -35.5t-21 -130.5q0 -97 21.5 -135t63.5 -38zM293 -13q-133 0 -205 74t-72 202q0 133 78 207.5t198 74.5q133 0 205 -71.5
t72 -203.5q0 -133 -78.5 -208t-197.5 -75z" />
    <glyph glyph-name="OE" unicode="&#x152;" horiz-adv-x="985" 
d="M369 0q-348 0 -348 335q0 180 93 269t252 89h577l9 -210h-112l-35 99h-176v-176h61l17 65h90v-237h-90l-17 67h-61v-190h179l48 122h113l-10 -233h-590zM429 576h-50q-76 0 -111.5 -49t-35.5 -178q0 -73 10 -120t31.5 -71t48 -32.5t66.5 -8.5h41v459z" />
    <glyph glyph-name="oe" unicode="&#x153;" horiz-adv-x="907" 
d="M660 -13q-132 0 -192 75q-64 -75 -175 -75q-133 0 -205 74t-72 202q0 133 78 207.5t198 74.5q121 0 182 -72q58 72 171 72q126 0 184.5 -70.5t58.5 -235.5h-323q7 -68 43 -97.5t102 -29.5q74 0 153 25v-97q-77 -53 -203 -53zM294 97q40 0 60.5 36.5t20.5 129.5
q0 97 -21.5 135t-62.5 38q-40 0 -61 -35.5t-21 -130.5q0 -97 21.5 -135t63.5 -38zM643 438q-33 0 -53 -25.5t-25 -88.5l145 6q0 108 -67 108z" />
    <glyph glyph-name="Racute" unicode="&#x154;" horiz-adv-x="707" 
d="M480 774l-240 -52l-28 78l218 104zM17 0v97l70 17v464l-69 18v97h356q269 0 269 -205q0 -65 -31 -102.5t-87 -60.5v-4l123 -210l51 -14v-97h-210l-151 276h-48v-164l58 -15v-97h-331zM290 381h63q87 0 87 105q0 48 -22.5 69.5t-71.5 21.5h-56v-196z" />
    <glyph glyph-name="racute" unicode="&#x155;" horiz-adv-x="425" 
d="M143 576l-32 76l212 120l59 -127zM14 0v91l57 14v307l-60 16v93l220 23l16 -7v-80h6q50 86 135 86q16 0 27 -3v-162q-20 5 -47 5q-70 0 -113 -20v-258l74 -14v-91h-315z" />
    <glyph glyph-name="Rcommaaccent" unicode="&#x156;" horiz-adv-x="707" 
d="M288 -189q9 67 9 153h174q-10 -96 -49 -153h-134zM17 0v97l70 17v464l-69 18v97h356q269 0 269 -205q0 -65 -31 -102.5t-87 -60.5v-4l123 -210l51 -14v-97h-210l-151 276h-48v-164l58 -15v-97h-331zM290 381h63q87 0 87 105q0 48 -22.5 69.5t-71.5 21.5h-56v-196z" />
    <glyph glyph-name="rcommaaccent" unicode="&#x157;" horiz-adv-x="425" 
d="M67 -189q9 68 9 153h174q-10 -96 -49 -153h-134zM14 0v91l57 14v307l-60 16v93l220 23l16 -7v-80h6q50 86 135 86q16 0 27 -3v-162q-20 5 -47 5q-70 0 -113 -20v-258l74 -14v-91h-315z" />
    <glyph glyph-name="Rcaron" unicode="&#x158;" horiz-adv-x="707" 
d="M465 895l33 -50l-120 -119h-86l-121 119l34 50l130 -51zM17 0v97l70 17v464l-69 18v97h356q269 0 269 -205q0 -65 -31 -102.5t-87 -60.5v-4l123 -210l51 -14v-97h-210l-151 276h-48v-164l58 -15v-97h-331zM290 381h63q87 0 87 105q0 48 -22.5 69.5t-71.5 21.5h-56v-196z
" />
    <glyph glyph-name="rcaron" unicode="&#x159;" horiz-adv-x="425" 
d="M193 582l-120 134l36 50l127 -65l126 65l37 -50l-120 -134h-86zM14 0v91l57 14v307l-60 16v93l220 23l16 -7v-80h6q50 86 135 86q16 0 27 -3v-162q-20 5 -47 5q-70 0 -113 -20v-258l74 -14v-91h-315z" />
    <glyph glyph-name="Sacute" unicode="&#x15a;" horiz-adv-x="566" 
d="M262 -12q-142 0 -228 34l-10 188h124l25 -86q35 -16 83 -16q45 0 69 19t24 52q0 31 -26.5 50.5t-83.5 39.5l-40 15q-88 30 -129 74.5t-41 130.5q0 101 66.5 159t206.5 58q115 0 199 -28l10 -171h-122l-19 66q-32 16 -74 16q-38 0 -61 -16t-23 -45q0 -28 22 -44.5
t75 -35.5l41 -15q105 -36 149.5 -78.5t44.5 -135.5q0 -109 -73 -170t-209 -61zM429 774l-240 -52l-28 78l218 104z" />
    <glyph glyph-name="sacute" unicode="&#x15b;" horiz-adv-x="485" 
d="M154 576l-32 76l212 120l59 -127zM215 -13q-106 0 -187 33l-9 146h113l20 -59q30 -16 70 -16q33 0 51.5 12.5t18.5 34.5t-13.5 32.5t-50.5 19.5l-58 14q-77 17 -114.5 55.5t-37.5 107.5q0 82 59.5 130.5t178.5 48.5q108 0 177 -29v-139h-110l-13 53q-22 13 -60 13
q-69 0 -69 -42q0 -21 15.5 -32t56.5 -20l65 -15q149 -33 149 -159q0 -89 -61.5 -139t-190.5 -50z" />
    <glyph glyph-name="Scircumflex" unicode="&#x15c;" horiz-adv-x="566" 
d="M160 722l-34 51l121 118h86l120 -118l-33 -51l-130 52zM262 -12q-142 0 -228 34l-10 188h124l25 -86q35 -16 83 -16q45 0 69 19t24 52q0 31 -26.5 50.5t-83.5 39.5l-40 15q-88 30 -129 74.5t-41 130.5q0 101 66.5 159t206.5 58q115 0 199 -28l10 -171h-122l-19 66
q-32 16 -74 16q-38 0 -61 -16t-23 -45q0 -28 22 -44.5t75 -35.5l41 -15q105 -36 149.5 -78.5t44.5 -135.5q0 -109 -73 -170t-209 -61z" />
    <glyph glyph-name="scircumflex" unicode="&#x15d;" horiz-adv-x="485" 
d="M121 575l-36 50l120 135h86l120 -135l-37 -50l-126 66zM215 -13q-106 0 -187 33l-9 146h113l20 -59q30 -16 70 -16q33 0 51.5 12.5t18.5 34.5t-13.5 32.5t-50.5 19.5l-58 14q-77 17 -114.5 55.5t-37.5 107.5q0 82 59.5 130.5t178.5 48.5q108 0 177 -29v-139h-110l-13 53
q-22 13 -60 13q-69 0 -69 -42q0 -21 15.5 -32t56.5 -20l65 -15q149 -33 149 -159q0 -89 -61.5 -139t-190.5 -50z" />
    <glyph glyph-name="Scedilla" unicode="&#x15e;" horiz-adv-x="566" 
d="M176 -221v56q57 5 78.5 14.5t21.5 25.5q0 29 -75 32v84q-106 7 -167 31l-10 188h124l25 -86q35 -16 83 -16q45 0 69 19t24 52q0 31 -26.5 50.5t-83.5 39.5l-40 15q-88 30 -129 74.5t-41 130.5q0 101 66.5 159t206.5 58q115 0 199 -28l10 -171h-122l-19 66q-32 16 -74 16
q-38 0 -61 -16t-23 -45q0 -28 22 -44.5t75 -35.5l41 -15q105 -36 149.5 -78.5t44.5 -135.5q0 -107 -70.5 -168t-202.5 -63v-28q68 -4 95.5 -21.5t27.5 -56.5q0 -92 -218 -103z" />
    <glyph glyph-name="scedilla" unicode="&#x15f;" horiz-adv-x="485" 
d="M136 -221v56q57 5 78.5 14.5t21.5 25.5q0 29 -75 32v83q-77 7 -133 30l-9 146h113l20 -59q30 -16 70 -16q33 0 51.5 12.5t18.5 34.5t-13.5 32.5t-50.5 19.5l-58 14q-77 17 -114.5 55.5t-37.5 107.5q0 82 59.5 130.5t178.5 48.5q108 0 177 -29v-139h-110l-13 53
q-22 13 -60 13q-69 0 -69 -42q0 -21 15.5 -32t56.5 -20l65 -15q149 -33 149 -159q0 -86 -58 -135.5t-178 -53.5v-27q68 -4 95.5 -21.5t27.5 -56.5q0 -92 -218 -103z" />
    <glyph glyph-name="Scaron" unicode="&#x160;" horiz-adv-x="566" 
d="M420 895l33 -50l-120 -119h-86l-121 119l34 50l130 -51zM262 -12q-142 0 -228 34l-10 188h124l25 -86q35 -16 83 -16q45 0 69 19t24 52q0 31 -26.5 50.5t-83.5 39.5l-40 15q-88 30 -129 74.5t-41 130.5q0 101 66.5 159t206.5 58q115 0 199 -28l10 -171h-122l-19 66
q-32 16 -74 16q-38 0 -61 -16t-23 -45q0 -28 22 -44.5t75 -35.5l41 -15q105 -36 149.5 -78.5t44.5 -135.5q0 -109 -73 -170t-209 -61z" />
    <glyph glyph-name="scaron" unicode="&#x161;" horiz-adv-x="485" 
d="M205 582l-120 134l36 50l127 -65l126 65l37 -50l-120 -134h-86zM215 -13q-106 0 -187 33l-9 146h113l20 -59q30 -16 70 -16q33 0 51.5 12.5t18.5 34.5t-13.5 32.5t-50.5 19.5l-58 14q-77 17 -114.5 55.5t-37.5 107.5q0 82 59.5 130.5t178.5 48.5q108 0 177 -29v-139h-110
l-13 53q-22 13 -60 13q-69 0 -69 -42q0 -21 15.5 -32t56.5 -20l65 -15q149 -33 149 -159q0 -89 -61.5 -139t-190.5 -50z" />
    <glyph glyph-name="Tcommaaccent" unicode="&#x162;" horiz-adv-x="666" 
d="M241 -189q9 67 9 153h174q-10 -96 -49 -153h-134zM157 0v97l75 17v465h-73l-30 -121h-118l9 235h626l8 -235h-117l-30 121h-73v-465l74 -17v-97h-351z" />
    <glyph glyph-name="tcommaaccent" unicode="&#x163;" horiz-adv-x="387" 
d="M110 -189q9 68 9 153h174q-10 -96 -49 -153h-134zM236 -11q-85 0 -126.5 33.5t-41.5 114.5v288h-57v83l73 27l23 124h144v-125h108v-109h-108v-258q0 -34 15.5 -47.5t49.5 -13.5q24 0 49 7v-95q-46 -29 -129 -29z" />
    <glyph glyph-name="Tcaron" unicode="&#x164;" horiz-adv-x="666" 
d="M463 895l33 -50l-120 -119h-86l-121 119l34 50l130 -51zM157 0v97l75 17v465h-73l-30 -121h-118l9 235h626l8 -235h-117l-30 121h-73v-465l74 -17v-97h-351z" />
    <glyph glyph-name="tcaron" unicode="&#x165;" horiz-adv-x="387" 
d="M374 559l-91 13l14 178l140 -18zM236 -11q-85 0 -126.5 33.5t-41.5 114.5v288h-57v83l73 27l23 124h144v-125h108v-109h-108v-258q0 -34 15.5 -47.5t49.5 -13.5q24 0 49 7v-95q-46 -29 -129 -29z" />
    <glyph glyph-name="Tbar" unicode="&#x166;" horiz-adv-x="666" 
d="M101 308v94h131v177h-73l-30 -121h-118l9 235h626l8 -235h-117l-30 121h-73v-177h131v-94h-131v-194l74 -17v-97h-351v97l75 17v194h-131z" />
    <glyph glyph-name="tbar" unicode="&#x167;" horiz-adv-x="387" 
d="M11 297v68h57v60h-57v83l73 27l23 124h144v-125h108v-109h-108v-60h108v-68h-108v-130q0 -34 15.5 -47.5t49.5 -13.5q24 0 49 7v-95q-46 -29 -129 -29q-85 0 -126.5 33.5t-41.5 114.5v160h-57z" />
    <glyph glyph-name="Utilde" unicode="&#x168;" horiz-adv-x="718" 
d="M372 -12q-150 0 -223 61t-73 172v358l-65 17v97h331v-97l-63 -16v-345q0 -126 120 -126q58 0 87 29t29 97v345l-63 16v97h255v-97l-61 -17v-345q0 -114 -66 -180t-208 -66zM269 726l-68 46q50 105 128 105q25 0 64 -13t52 -13q33 0 55 33l68 -46q-49 -106 -128 -106
q-25 0 -64 13t-52 13q-33 0 -55 -32z" />
    <glyph glyph-name="utilde" unicode="&#x169;" horiz-adv-x="633" 
d="M217 -12q-154 0 -154 148v278l-56 17v92l223 21l16 -8v-347q0 -34 13 -48.5t47 -14.5q32 0 71 15v273l-53 17v92l219 21l17 -8v-415l57 -16v-91l-217 -24l-16 7v58h-6q-67 -67 -161 -67zM200 582l-68 46q50 106 128 106q25 0 60 -14t48 -14q33 0 55 33l68 -46
q-49 -106 -128 -106q-25 0 -60 13.5t-48 13.5q-33 0 -55 -32z" />
    <glyph glyph-name="Umacron" unicode="&#x16a;" horiz-adv-x="718" 
d="M372 -12q-150 0 -223 61t-73 172v358l-65 17v97h331v-97l-63 -16v-345q0 -126 120 -126q58 0 87 29t29 97v345l-63 16v97h255v-97l-61 -17v-345q0 -114 -66 -180t-208 -66zM240 737v110h289v-110h-289z" />
    <glyph glyph-name="umacron" unicode="&#x16b;" horiz-adv-x="633" 
d="M217 -12q-154 0 -154 148v278l-56 17v92l223 21l16 -8v-347q0 -34 13 -48.5t47 -14.5q32 0 71 15v273l-53 17v92l219 21l17 -8v-415l57 -16v-91l-217 -24l-16 7v58h-6q-67 -67 -161 -67zM167 596v110h289v-110h-289z" />
    <glyph glyph-name="Ubreve" unicode="&#x16c;" horiz-adv-x="718" 
d="M372 -12q-150 0 -223 61t-73 172v358l-65 17v97h331v-97l-63 -16v-345q0 -126 120 -126q58 0 87 29t29 97v345l-63 16v97h255v-97l-61 -17v-345q0 -114 -66 -180t-208 -66zM385 725q-71 0 -113 39.5t-45 101.5h104q7 -34 54 -34q46 0 53 34h105q-3 -61 -45 -101t-113 -40
z" />
    <glyph glyph-name="ubreve" unicode="&#x16d;" horiz-adv-x="633" 
d="M217 -12q-154 0 -154 148v278l-56 17v92l223 21l16 -8v-347q0 -34 13 -48.5t47 -14.5q32 0 71 15v273l-53 17v92l219 21l17 -8v-415l57 -16v-91l-217 -24l-16 7v58h-6q-67 -67 -161 -67zM312 585q-71 0 -114 42.5t-45 106.5h105q3 -18 17.5 -28.5t36.5 -10.5t36.5 10.5
t17.5 28.5h104q-2 -64 -44.5 -106.5t-113.5 -42.5z" />
    <glyph glyph-name="Uring" unicode="&#x16e;" horiz-adv-x="718" 
d="M372 -12q-150 0 -223 61t-73 172v358l-65 17v97h331v-97l-63 -16v-345q0 -126 120 -126q58 0 87 29t29 97v345l-63 16v97h255v-97l-61 -17v-345q0 -114 -66 -180t-208 -66zM385 771q22 0 34 13t12 36q0 22 -12.5 35.5t-33.5 13.5t-34 -14t-13 -35q0 -23 12.5 -36
t34.5 -13zM385 709q-50 0 -83.5 32.5t-33.5 78.5t33.5 78t83.5 32t83.5 -32t33.5 -78t-33.5 -78.5t-83.5 -32.5z" />
    <glyph glyph-name="uring" unicode="&#x16f;" horiz-adv-x="633" 
d="M310 638q22 0 34 13t12 36q0 22 -12.5 35.5t-33.5 13.5t-34 -14t-13 -35q0 -23 12.5 -36t34.5 -13zM310 576q-50 0 -83.5 32.5t-33.5 78.5t33.5 77.5t83.5 31.5t83.5 -32t33.5 -77q0 -46 -33.5 -78.5t-83.5 -32.5zM217 -12q-154 0 -154 148v278l-56 17v92l223 21l16 -8
v-347q0 -34 13 -48.5t47 -14.5q32 0 71 15v273l-53 17v92l219 21l17 -8v-415l57 -16v-91l-217 -24l-16 7v58h-6q-67 -67 -161 -67z" />
    <glyph glyph-name="Uhungarumlaut" unicode="&#x170;" horiz-adv-x="718" 
d="M309 723l-72 40l79 157l119 -70zM491 724l-69 45l93 152l113 -80zM372 -12q-150 0 -223 61t-73 172v358l-65 17v97h331v-97l-63 -16v-345q0 -126 120 -126q58 0 87 29t29 97v345l-63 16v97h255v-97l-61 -17v-345q0 -114 -66 -180t-208 -66z" />
    <glyph glyph-name="uhungarumlaut" unicode="&#x171;" horiz-adv-x="633" 
d="M217 -12q-154 0 -154 148v278l-56 17v92l223 21l16 -8v-347q0 -34 13 -48.5t47 -14.5q32 0 71 15v273l-53 17v92l219 21l17 -8v-415l57 -16v-91l-217 -24l-16 7v58h-6q-67 -67 -161 -67zM208 570l-57 42l113 174l105 -79zM402 572l-55 47l126 167l99 -87z" />
    <glyph glyph-name="Uogonek" unicode="&#x172;" horiz-adv-x="718" 
d="M365 -12q-143 0 -216 61.5t-73 171.5v358l-65 17v97h331v-97l-63 -16v-345q0 -126 120 -126q58 0 87 29t29 97v345l-63 16v97h255v-97l-61 -17v-345q0 -156 -117 -215q-43 -23 -67.5 -46t-24.5 -54q0 -33 40 -33q11 0 27 2v-71q-33 -14 -85 -14q-63 0 -94.5 24t-31.5 62
q0 63 81 99h-9z" />
    <glyph glyph-name="uogonek" unicode="&#x173;" horiz-adv-x="633" 
d="M429 -197q-63 0 -94.5 24t-31.5 62q0 63 81 103v63h-6q-67 -67 -161 -67q-154 0 -154 148v278l-56 17v92l223 21l16 -8v-347q0 -34 13 -48.5t47 -14.5q32 0 71 15v273l-53 17v92l219 21l17 -8v-415l57 -16v-91l-123 -13q-48 -49 -48 -82t40 -33q11 0 27 2v-71
q-31 -14 -84 -14z" />
    <glyph glyph-name="Wcircumflex" unicode="&#x174;" horiz-adv-x="1010" 
d="M411 722l-34 51l121 118h86l120 -118l-33 -51l-130 52zM207 0l-145 579l-50 17v97h317v-97l-59 -17l76 -348h5l116 462h144l116 -448h5l73 334l-64 17v97h257v-97l-52 -17l-142 -579h-195l-100 412h-4l-103 -412h-195z" />
    <glyph glyph-name="wcircumflex" unicode="&#x175;" horiz-adv-x="848" 
d="M314 575l-36 50l120 135h86l120 -135l-37 -50l-126 66zM174 0l-128 429l-41 14v91h268v-91l-44 -12l56 -216h4l94 319h128l94 -319h4l55 216l-43 12v91h219v-91l-41 -14l-128 -429h-158l-87 300h-3l-90 -300h-159z" />
    <glyph glyph-name="Ycircumflex" unicode="&#x176;" horiz-adv-x="675" 
d="M170 0v97l73 17v164l-180 301l-53 17v97h318v-97l-53 -15l101 -187h4l97 187l-53 15v97h241v-97l-54 -17l-166 -296v-169l72 -17v-97h-347zM236 722l-34 51l121 118h86l120 -118l-33 -51l-130 52z" />
    <glyph glyph-name="ycircumflex" unicode="&#x177;" horiz-adv-x="604" 
d="M173 -203q-63 0 -100 16v115q31 -7 54 -7q68 0 87 48l15 39l-178 421l-46 14v91h287v-91l-49 -12l89 -240h4l78 240l-49 12v91h230v-91l-43 -14l-185 -485q-30 -77 -73.5 -112t-120.5 -35zM196 575l-36 50l120 135h86l120 -135l-37 -50l-126 66z" />
    <glyph glyph-name="Ydieresis" unicode="&#x178;" horiz-adv-x="675" 
d="M170 0v97l73 17v164l-180 301l-53 17v97h318v-97l-53 -15l101 -187h4l97 187l-53 15v97h241v-97l-54 -17l-166 -296v-169l72 -17v-97h-347zM261 727q-37 0 -62.5 22t-25.5 60q0 37 25.5 59.5t62.5 22.5q38 0 64 -22.5t26 -59.5q0 -38 -26 -60t-64 -22zM470 727
q-38 0 -63.5 22t-25.5 60q0 37 26 59.5t63 22.5q38 0 63.5 -22.5t25.5 -59.5q0 -38 -25.5 -60t-63.5 -22z" />
    <glyph glyph-name="Zacute" unicode="&#x179;" horiz-adv-x="600" 
d="M462 774l-240 -52l-28 78l218 104zM18 0v119l332 455v4h-160l-42 -111h-118l12 226h538v-119l-332 -455v-4h175l46 130h115l-11 -245h-555z" />
    <glyph glyph-name="zacute" unicode="&#x17a;" horiz-adv-x="507" 
d="M166 576l-32 76l212 120l59 -127zM18 0v97l254 331v4h-126l-27 -82h-92l10 184h443v-100l-245 -325v-4h126l33 93h95l-14 -198h-457z" />
    <glyph glyph-name="Zdotaccent" unicode="&#x17b;" horiz-adv-x="600" 
d="M18 0v119l332 455v4h-160l-42 -111h-118l12 226h538v-119l-332 -455v-4h175l46 130h115l-11 -245h-555zM312 725q-41 0 -69.5 24.5t-28.5 65.5t28.5 65t69.5 24q42 0 70 -24t28 -65t-28 -65.5t-70 -24.5z" />
    <glyph glyph-name="zdotaccent" unicode="&#x17c;" horiz-adv-x="507" 
d="M18 0v97l254 331v4h-126l-27 -82h-92l10 184h443v-100l-245 -325v-4h126l33 93h95l-14 -198h-457zM259 577q-41 0 -69.5 24.5t-28.5 65.5q0 40 28.5 64.5t69.5 24.5q42 0 70 -24.5t28 -64.5q0 -41 -28 -65.5t-70 -24.5z" />
    <glyph glyph-name="Zcaron" unicode="&#x17d;" horiz-adv-x="600" 
d="M442 895l33 -50l-120 -119h-86l-121 119l34 50l130 -51zM18 0v119l332 455v4h-160l-42 -111h-118l12 226h538v-119l-332 -455v-4h175l46 130h115l-11 -245h-555z" />
    <glyph glyph-name="zcaron" unicode="&#x17e;" horiz-adv-x="507" 
d="M216 582l-120 134l36 50l127 -65l126 65l37 -50l-120 -134h-86zM18 0v97l254 331v4h-126l-27 -82h-92l10 184h443v-100l-245 -325v-4h126l33 93h95l-14 -198h-457z" />
    <glyph glyph-name="florin" unicode="&#x192;" horiz-adv-x="494" 
d="M50 308v107h83l18 106q32 179 212 179q73 0 124 -22v-110q-31 7 -59 7q-40 0 -58.5 -16.5t-26.5 -59.5l-15 -84h102v-107h-121l-61 -342q-25 -149 -196 -149q-64 0 -102 19v107q24 -4 43 -4q56 0 66 58l55 311h-64z" />
    <glyph glyph-name="Aringacute" unicode="&#x1fa;" horiz-adv-x="733" 
d="M7 0v97l56 17l210 579h191l205 -579l56 -17v-97h-341v97l67 17l-29 91h-189l-30 -91l68 -17v-97h-264zM326 494l-63 -193h129l-61 193h-5zM500 985l-240 -52l-28 78l218 104zM364 772q22 0 34 13t12 36q0 22 -12.5 35.5t-33.5 13.5t-34 -14t-13 -35q0 -23 12.5 -36
t34.5 -13zM364 710q-50 0 -83.5 32.5t-33.5 78.5t33.5 78t83.5 32t83.5 -32t33.5 -78t-33.5 -78.5t-83.5 -32.5z" />
    <glyph glyph-name="aringacute" unicode="&#x1fb;" horiz-adv-x="546" 
d="M170 -13q-71 0 -114.5 40.5t-43.5 105.5q0 74 47.5 108.5t147.5 52.5l93 18v26q0 42 -20.5 58t-79.5 16q-77 0 -137 -10v106q105 37 224 37q101 0 148.5 -42.5t47.5 -132.5v-238q0 -32 36 -32h16v-87q-37 -25 -107 -25q-87 0 -108 62h-5q-50 -63 -145 -63zM248 93
q32 0 52 20v115l-47 -2q-59 -4 -59 -67q0 -66 54 -66zM273 634q22 0 34 13t12 36q0 22 -12.5 35.5t-33.5 13.5t-34 -14t-13 -35q0 -23 12.5 -36t34.5 -13zM273 572q-50 0 -83.5 32.5t-33.5 78.5t33.5 77.5t83.5 31.5t83.5 -32t33.5 -77q0 -46 -33.5 -78.5t-83.5 -32.5z
M406 849l-240 -52l-28 78l218 104z" />
    <glyph glyph-name="AEacute" unicode="&#x1fc;" horiz-adv-x="999" 
d="M777 774l-240 -52l-28 78l218 104zM207 115l79 -18v-97h-279v97l56 18l299 473l-57 8v97h652l9 -210h-112l-35 99h-172v-176h57l17 65h90v-237h-90l-17 67h-57v-190h175l48 122h113l-10 -233h-594v97l69 17v84h-192zM313 295h135v225h-3z" />
    <glyph glyph-name="aeacute" unicode="&#x1fd;" horiz-adv-x="826" 
d="M341 576l-32 76l212 120l59 -127zM181 -13q-79 0 -124 40t-45 106q0 74 47.5 109t147.5 53l93 18v25q0 42 -20.5 58t-79.5 16q-77 0 -137 -10v106q105 37 213 37q98 0 141 -49q60 49 152 49q123 0 180.5 -71t57.5 -236h-321q7 -68 42.5 -97t101.5 -29q73 0 152 25v-97
q-77 -53 -202 -53q-154 0 -225 89q-67 -89 -174 -89zM323 132q-18 39 -23 99l-47 -4q-59 -3 -59 -68q0 -66 57 -66q36 0 72 39zM486 323l144 6q0 109 -67 109q-33 0 -52.5 -25.5t-24.5 -89.5z" />
    <glyph glyph-name="Oslashacute" unicode="&#x1fe;" horiz-adv-x="713" 
d="M496 774l-240 -52l-28 78l218 104zM108 -35l-69 50l60 77q-78 92 -78 250q0 92 28 163.5t76 114t107.5 64t127.5 21.5q105 0 183 -45l47 60l69 -51l-50 -64q83 -93 83 -254q0 -91 -28 -162.5t-76 -114t-107.5 -64.5t-126.5 -22q-111 0 -190 49zM356 111q133 0 133 228
q0 61 -6 105l-224 -287q29 -46 97 -46zM224 355q0 -61 4 -97l222 283q-31 42 -93 42q-133 0 -133 -228z" />
    <glyph glyph-name="oslashacute" unicode="&#x1ff;" horiz-adv-x="585" 
d="M199 576l-32 76l212 120l59 -127zM89 -37l-64 46l53 63q-62 71 -62 191q0 133 78 207.5t198 74.5q88 0 153 -34l44 53l64 -46l-46 -56q62 -71 62 -192q0 -133 -78.5 -208t-197.5 -75q-89 0 -154 35zM294 96q45 0 68.5 36.5t23.5 130.5q0 22 -2 52l-159 -190
q20 -29 69 -29zM199 271q0 -22 2 -52l159 190q-21 29 -69 29q-45 0 -68.5 -35.5t-23.5 -131.5z" />
    <glyph glyph-name="Scommaaccent" unicode="&#x218;" horiz-adv-x="566" 
d="M187 -189q9 68 9 153h174q-10 -96 -49 -153h-134zM262 -12q-142 0 -228 34l-10 188h124l25 -86q35 -16 83 -16q45 0 69 19t24 52q0 31 -26.5 50.5t-83.5 39.5l-40 15q-88 30 -129 74.5t-41 130.5q0 101 66.5 159t206.5 58q115 0 199 -28l10 -171h-122l-19 66
q-32 16 -74 16q-38 0 -61 -16t-23 -45q0 -28 22 -44.5t75 -35.5l41 -15q105 -36 149.5 -78.5t44.5 -135.5q0 -109 -73 -170t-209 -61z" />
    <glyph glyph-name="scommaaccent" unicode="&#x219;" horiz-adv-x="485" 
d="M154 -189q9 68 9 153h174q-10 -96 -49 -153h-134zM215 -13q-106 0 -187 33l-9 146h113l20 -59q30 -16 70 -16q33 0 51.5 12.5t18.5 34.5t-13.5 32.5t-50.5 19.5l-58 14q-77 17 -114.5 55.5t-37.5 107.5q0 82 59.5 130.5t178.5 48.5q108 0 177 -29v-139h-110l-13 53
q-22 13 -60 13q-69 0 -69 -42q0 -21 15.5 -32t56.5 -20l65 -15q149 -33 149 -159q0 -89 -61.5 -139t-190.5 -50z" />
    <glyph glyph-name="uni0237" unicode="&#x237;" horiz-adv-x="306" 
d="M52 -198q-53 0 -95 17v106q20 -4 45 -4q36 0 53.5 16t17.5 54v421l-63 16v93l229 23l17 -7v-543q0 -96 -48 -144t-156 -48z" />
    <glyph glyph-name="circumflex" unicode="&#x2c6;" 
d="M122 575l-36 50l120 135h86l120 -135l-37 -50l-126 66z" />
    <glyph glyph-name="caron" unicode="&#x2c7;" 
d="M206 582l-120 134l36 50l127 -65l126 65l37 -50l-120 -134h-86z" />
    <glyph glyph-name="breve" unicode="&#x2d8;" 
d="M254 585q-71 0 -114 42.5t-45 106.5h105q3 -18 17.5 -28.5t36.5 -10.5t36.5 10.5t17.5 28.5h104q-2 -64 -44.5 -106.5t-113.5 -42.5z" />
    <glyph glyph-name="dotaccent" unicode="&#x2d9;" 
d="M248 577q-41 0 -69.5 24.5t-28.5 65.5q0 40 28.5 64.5t69.5 24.5q42 0 70 -24.5t28 -64.5q0 -41 -28 -65.5t-70 -24.5z" />
    <glyph glyph-name="ring" unicode="&#x2da;" 
d="M249 638q22 0 34 13t12 36q0 22 -12.5 35.5t-33.5 13.5t-34 -14t-13 -35q0 -23 12.5 -36t34.5 -13zM249 576q-50 0 -83.5 32.5t-33.5 78.5t33.5 77.5t83.5 31.5t83.5 -32t33.5 -77q0 -46 -33.5 -78.5t-83.5 -32.5z" />
    <glyph glyph-name="ogonek" unicode="&#x2db;" horiz-adv-x="538" 
d="M262 -197q-64 0 -95.5 24t-31.5 62q0 75 107 111h85q-27 -28 -37.5 -45.5t-10.5 -35.5q0 -33 40 -33q11 0 27 2v-71q-33 -14 -84 -14z" />
    <glyph glyph-name="tilde" unicode="&#x2dc;" 
d="M139 582l-68 46q50 106 128 106q25 0 60 -14t48 -14q33 0 55 33l68 -46q-49 -106 -128 -106q-25 0 -60 13.5t-48 13.5q-33 0 -55 -32z" />
    <glyph glyph-name="hungarumlaut" unicode="&#x2dd;" 
d="M159 570l-57 42l113 174l105 -79zM353 572l-55 47l126 167l99 -87z" />
    <glyph glyph-name="Wgrave" unicode="&#x1e80;" horiz-adv-x="1010" 
d="M642 722l-240 52l50 130l218 -104zM207 0l-145 579l-50 17v97h317v-97l-59 -17l76 -348h5l116 462h144l116 -448h5l73 334l-64 17v97h257v-97l-52 -17l-142 -579h-195l-100 412h-4l-103 -412h-195z" />
    <glyph glyph-name="wgrave" unicode="&#x1e81;" horiz-adv-x="848" 
d="M174 0l-128 429l-41 14v91h268v-91l-44 -12l56 -216h4l94 319h128l94 -319h4l55 216l-43 12v91h219v-91l-41 -14l-128 -429h-158l-87 300h-3l-90 -300h-159zM537 576l-238 69l59 127l212 -120z" />
    <glyph glyph-name="Wacute" unicode="&#x1e82;" horiz-adv-x="1010" 
d="M680 774l-240 -52l-28 78l218 104zM207 0l-145 579l-50 17v97h317v-97l-59 -17l76 -348h5l116 462h144l116 -448h5l73 334l-64 17v97h257v-97l-52 -17l-142 -579h-195l-100 412h-4l-103 -412h-195z" />
    <glyph glyph-name="wacute" unicode="&#x1e83;" horiz-adv-x="848" 
d="M348 576l-32 76l212 120l59 -127zM174 0l-128 429l-41 14v91h268v-91l-44 -12l56 -216h4l94 319h128l94 -319h4l55 216l-43 12v91h219v-91l-41 -14l-128 -429h-158l-87 300h-3l-90 -300h-159z" />
    <glyph glyph-name="Wdieresis" unicode="&#x1e84;" horiz-adv-x="1010" 
d="M436 727q-37 0 -62.5 22t-25.5 60q0 37 25.5 59.5t62.5 22.5q38 0 64 -22.5t26 -59.5q0 -38 -26 -60t-64 -22zM645 727q-38 0 -63.5 22t-25.5 60q0 37 26 59.5t63 22.5q38 0 63.5 -22.5t25.5 -59.5q0 -38 -25.5 -60t-63.5 -22zM207 0l-145 579l-50 17v97h317v-97l-59 -17
l76 -348h5l116 462h144l116 -448h5l73 334l-64 17v97h257v-97l-52 -17l-142 -579h-195l-100 412h-4l-103 -412h-195z" />
    <glyph glyph-name="wdieresis" unicode="&#x1e85;" horiz-adv-x="848" 
d="M336 581q-37 0 -62.5 22.5t-25.5 59.5q0 38 25.5 60t62.5 22q38 0 64 -22t26 -60q0 -37 -26 -59.5t-64 -22.5zM545 581q-37 0 -63 22.5t-26 59.5q0 38 25.5 60t63.5 22t63.5 -22t25.5 -60q0 -37 -25.5 -59.5t-63.5 -22.5zM174 0l-128 429l-41 14v91h268v-91l-44 -12
l56 -216h4l94 319h128l94 -319h4l55 216l-43 12v91h219v-91l-41 -14l-128 -429h-158l-87 300h-3l-90 -300h-159z" />
    <glyph glyph-name="Ygrave" unicode="&#x1ef2;" horiz-adv-x="675" 
d="M170 0v97l73 17v164l-180 301l-53 17v97h318v-97l-53 -15l101 -187h4l97 187l-53 15v97h241v-97l-54 -17l-166 -296v-169l72 -17v-97h-347zM467 722l-240 52l50 130l218 -104z" />
    <glyph glyph-name="ygrave" unicode="&#x1ef3;" horiz-adv-x="604" 
d="M173 -203q-63 0 -100 16v115q31 -7 54 -7q68 0 87 48l15 39l-178 421l-46 14v91h287v-91l-49 -12l89 -240h4l78 240l-49 12v91h230v-91l-43 -14l-185 -485q-30 -77 -73.5 -112t-120.5 -35zM418 576l-238 69l59 127l212 -120z" />
    <glyph glyph-name="uni2009" unicode="&#x2009;" horiz-adv-x="74" 
 />
    <glyph glyph-name="endash" unicode="&#x2013;" horiz-adv-x="410" 
d="M28 233v108h354v-108h-354z" />
    <glyph glyph-name="emdash" unicode="&#x2014;" horiz-adv-x="714" 
d="M28 233v108h658v-108h-658z" />
    <glyph glyph-name="quoteleft" unicode="&#x2018;" horiz-adv-x="252" 
d="M36 469q12 125 62 224h118q-12 -122 -12 -224h-168z" />
    <glyph glyph-name="quoteright" unicode="&#x2019;" horiz-adv-x="252" 
d="M36 469q12 122 12 224h168q-12 -126 -62 -224h-118z" />
    <glyph glyph-name="quotesinglbase" unicode="&#x201a;" horiz-adv-x="252" 
d="M36 -71q12 123 12 224h168q-12 -125 -62 -224h-118z" />
    <glyph glyph-name="quotedblleft" unicode="&#x201c;" horiz-adv-x="461" 
d="M36 469q12 125 62 224h118q-12 -122 -12 -224h-168zM245 469q12 125 62 224h118q-12 -122 -12 -224h-168z" />
    <glyph glyph-name="quotedblright" unicode="&#x201d;" horiz-adv-x="461" 
d="M36 469q12 122 12 224h168q-12 -126 -62 -224h-118zM245 469q12 122 12 224h168q-12 -126 -62 -224h-118z" />
    <glyph glyph-name="quotedblbase" unicode="&#x201e;" horiz-adv-x="461" 
d="M36 -71q12 123 12 224h168q-12 -125 -62 -224h-118zM245 -71q12 123 12 224h168q-12 -125 -62 -224h-118z" />
    <glyph glyph-name="dagger" unicode="&#x2020;" horiz-adv-x="449" 
d="M28 405v166l133 -28l-32 150h190l-31 -150l132 28v-166l-135 27l32 -107v-51l-43 -274h-99l-43 274v51l32 107z" />
    <glyph glyph-name="daggerdbl" unicode="&#x2021;" horiz-adv-x="451" 
d="M30 413v166l132 -28l-31 142h190l-31 -142l132 28v-166l-135 28l32 -73v-43l-32 -73l135 28v-166l-132 27l31 -141h-190l31 141l-132 -27v166l134 -28l-32 73v43l32 73z" />
    <glyph glyph-name="bullet" unicode="&#x2022;" horiz-adv-x="371" 
d="M184 163q-64 0 -108.5 44.5t-44.5 107.5q0 64 44.5 108t108.5 44q63 0 109.5 -44t46.5 -108q0 -62 -46.5 -107t-109.5 -45z" />
    <glyph glyph-name="ellipsis" unicode="&#x2026;" horiz-adv-x="779" 
d="M129 -13q-42 0 -70 27.5t-28 65.5q0 39 28 66.5t70 27.5q43 0 70.5 -27.5t27.5 -66.5q0 -38 -27.5 -65.5t-70.5 -27.5zM390 -13q-43 0 -71 27.5t-28 65.5q0 39 28 66.5t71 27.5t70.5 -27.5t27.5 -66.5q0 -38 -27.5 -65.5t-70.5 -27.5zM650 -13q-42 0 -70 27.5t-28 65.5
q0 39 28 66.5t70 27.5q43 0 71 -27.5t28 -66.5q0 -38 -28 -65.5t-71 -27.5z" />
    <glyph glyph-name="perthousand" unicode="&#x2030;" horiz-adv-x="1332" 
d="M212 384q29 0 37.5 25.5t8.5 91.5q0 68 -9 96t-37 28t-37 -27.5t-9 -92.5t9 -93t37 -28zM211 305q-81 0 -136 49.5t-55 146.5q0 100 56.5 152t135.5 52t136.5 -50.5t57.5 -148.5q0 -99 -56.5 -150t-138.5 -51zM162 -40l472 753h105l-472 -753h-105zM696 68
q29 0 37.5 25.5t8.5 91.5q0 67 -9 95.5t-37 28.5t-37 -27t-9 -93t9 -93.5t37 -27.5zM695 -12q-81 0 -136 50t-55 147q0 100 56 151.5t136 51.5q79 0 136 -50t57 -148q0 -99 -56.5 -150.5t-137.5 -51.5zM1119 68q28 0 37 26t9 91q0 67 -9 95.5t-37 28.5t-37 -27t-9 -93
t9 -93.5t37 -27.5zM1118 -12q-81 0 -136.5 50t-55.5 147q0 100 56.5 151.5t136.5 51.5q79 0 136 -50t57 -148q0 -99 -56.5 -150.5t-137.5 -51.5z" />
    <glyph glyph-name="uni2032" unicode="&#x2032;" horiz-adv-x="251" 
d="M35 469l11 224h169l-56 -224h-124z" />
    <glyph glyph-name="uni2033" unicode="&#x2033;" horiz-adv-x="457" 
d="M35 469l11 224h169l-56 -224h-124zM242 469l10 224h170l-56 -224h-124z" />
    <glyph glyph-name="guilsinglleft" unicode="&#x2039;" horiz-adv-x="283" 
d="M135 59l-107 170v47l107 170h118l-77 -193l77 -194h-118z" />
    <glyph glyph-name="guilsinglright" unicode="&#x203a;" horiz-adv-x="283" 
d="M30 59l77 193l-77 194h118l107 -170v-47l-107 -170h-118z" />
    <glyph glyph-name="fraction" unicode="&#x2044;" horiz-adv-x="234" 
d="M-180 -40l488 753h105l-488 -753h-105z" />
    <glyph glyph-name="Euro" unicode="&#x20ac;" horiz-adv-x="627" 
d="M24 366v84h65q45 255 310 255q118 0 186 -27l7 -185h-120l-22 77q-20 12 -54 12q-96 0 -114 -132h148v-84h-153v-5q0 -34 1 -49h152v-84h-140q15 -56 49 -79.5t96 -23.5q69 0 156 32v-111q-89 -58 -207 -58q-247 0 -294 240h-66v84h56v54h-56z" />
    <glyph glyph-name="trademark" unicode="&#x2122;" horiz-adv-x="828" 
d="M361 388v55l30 7v181l-30 7v55h172l45 -152h4l45 152h182v-55l-30 -7v-181l30 -7v-55h-162v55l25 7v159h-4l-63 -218h-76l-63 215h-4v-156l25 -7v-55h-126zM89 388v55l32 7v183h-28l-14 -61h-63l3 121h315l4 -121h-64l-14 61h-28v-183l32 -7v-55h-175z" />
    <glyph glyph-name="onethird" unicode="&#x2153;" horiz-adv-x="905" 
d="M693 -6q-80 0 -132 26v75q44 -12 91 -12q73 0 73 47q0 45 -62 45h-46v77h39q64 0 64 41q0 43 -62 43q-47 0 -80 -11v75q45 25 132 25q72 0 111 -27t39 -77q0 -73 -86 -98v-3q46 -6 73.5 -32t27.5 -70q0 -58 -47 -91t-135 -33zM32 282v68l60 10v210l-63 -3v67l135 70h75
v-344l61 -10v-68h-268zM140 -40l488 753h105l-488 -753h-105z" />
    <glyph glyph-name="twothirds" unicode="&#x2154;" horiz-adv-x="940" 
d="M729 -6q-80 0 -132 26v75q44 -12 91 -12q73 0 73 47q0 45 -62 45h-46v77h39q64 0 64 41q0 43 -62 43q-47 0 -80 -11v75q45 25 132 25q72 0 111 -27t39 -77q0 -73 -86 -98v-3q46 -6 73.5 -32t27.5 -70q0 -58 -47 -91t-135 -33zM33 282v81l93 85q69 62 69 102q0 54 -62 54
q-50 0 -87 -14v80q62 37 147 37q75 0 115.5 -34.5t40.5 -93.5q0 -51 -29.5 -87t-94.5 -79l-53 -35v-3h92l22 38l71 1l-11 -132h-313zM182 -40l488 753h105l-488 -753h-105z" />
    <glyph glyph-name="oneeighth" unicode="&#x215b;" horiz-adv-x="925" 
d="M705 -8q-182 0 -182 117q0 65 83 94q-70 32 -70 101q0 56 46 88.5t130 32.5q79 0 121 -29t42 -76q0 -59 -75 -86q93 -31 93 -110q0 -64 -49.5 -98t-138.5 -34zM699 67q61 0 61 42q0 20 -20.5 33t-70.5 26q-31 -20 -31 -55q0 -46 61 -46zM729 266q32 17 32 48q0 36 -47 36
t-47 -32q0 -19 12.5 -29t49.5 -23zM32 282v68l60 10v210l-63 -3v67l135 70h75v-344l61 -10v-68h-268zM127 -40l488 753h105l-488 -753h-105z" />
    <glyph glyph-name="threeeighths" unicode="&#x215c;" horiz-adv-x="946" 
d="M725 -8q-182 0 -182 117q0 65 83 94q-70 32 -70 101q0 56 46 88.5t130 32.5q79 0 121 -29t42 -76q0 -59 -75 -86q93 -31 93 -110q0 -64 -49.5 -98t-138.5 -34zM719 67q61 0 61 42q0 20 -20.5 33t-70.5 26q-31 -20 -31 -55q0 -46 61 -46zM749 266q32 17 32 48q0 36 -47 36
t-47 -32q0 -19 12.5 -29t49.5 -23zM146 -40l488 753h105l-488 -753h-105zM160 276q-80 0 -132 26v75q44 -12 91 -12q73 0 73 47q0 45 -62 45h-46v77h39q64 0 64 41q0 43 -62 43q-47 0 -80 -11v75q45 25 132 25q72 0 111 -27t39 -77q0 -73 -86 -98v-3q46 -6 73.5 -32
t27.5 -70q0 -58 -47 -91t-135 -33z" />
    <glyph glyph-name="fiveeighths" unicode="&#x215d;" horiz-adv-x="922" 
d="M701 -8q-182 0 -182 117q0 65 83 94q-70 32 -70 101q0 56 46 88.5t130 32.5q79 0 121 -29t42 -76q0 -59 -75 -86q93 -31 93 -110q0 -64 -49.5 -98t-138.5 -34zM695 67q61 0 61 42q0 20 -20.5 33t-70.5 26q-31 -20 -31 -55q0 -46 61 -46zM725 266q32 17 32 48q0 36 -47 36
t-47 -32q0 -19 12.5 -29t49.5 -23zM151 276q-80 0 -132 28v73q46 -13 82 -13q79 0 79 52t-79 52q-29 0 -64 -7l13 239h259l-7 -99h-175l-4 -61q24 7 58 7q69 0 108.5 -31.5t39.5 -95.5q0 -63 -45 -103.5t-133 -40.5zM124 -40l488 753h105l-488 -753h-105z" />
    <glyph glyph-name="seveneighths" unicode="&#x215e;" horiz-adv-x="946" 
d="M725 -8q-182 0 -182 117q0 65 83 94q-70 32 -70 101q0 56 46 88.5t130 32.5q79 0 121 -29t42 -76q0 -59 -75 -86q93 -31 93 -110q0 -64 -49.5 -98t-138.5 -34zM719 67q61 0 61 42q0 20 -20.5 33t-70.5 26q-31 -20 -31 -55q0 -46 61 -46zM749 266q32 17 32 48q0 36 -47 36
t-47 -32q0 -19 12.5 -29t49.5 -23zM84 282l183 315v3h-136l-19 -49h-79l9 149h329v-83l-126 -335h-161zM131 -40l488 753h105l-488 -753h-105z" />
    <glyph glyph-name="minus" unicode="&#x2212;" horiz-adv-x="540" 
d="M45 281v118h450v-118h-450z" />
    <glyph glyph-name="uni24C5" unicode="&#x24c5;" horiz-adv-x="772" 
d="M385 -14q-150 0 -252 104.5t-102 253.5t102 252.5t252 103.5q149 0 252.5 -104t103.5 -252t-103.5 -253t-252.5 -105zM385 55q120 0 198.5 84t78.5 205t-78.5 204.5t-198.5 83.5q-121 0 -198 -83.5t-77 -204.5q0 -122 77 -205.5t198 -83.5zM232 168v60l31 10v212l-31 8
v60h185q146 0 146 -112q0 -45 -23 -72t-51 -35t-62 -8q-28 0 -43 5v-60l34 -8v-60h-186zM384 446v-92q6 -2 22 -2q22 0 31.5 11.5t9.5 36.5q0 46 -43 46h-20z" />
    <glyph glyph-name="space_uni0326" 
d="M149 -189q9 68 9 153h174q-10 -96 -49 -153h-134z" />
    <glyph glyph-name="caron.alt" 
d="M266 559l-91 13l14 178l140 -18z" />
    <glyph glyph-name="space_uni0326.alt" 
d="M336 746q-10 -75 -10 -153h-174q10 95 50 153h134z" />
    <glyph glyph-name="acute.pl" 
d="M297 575l-98 10l49 186l166 -46z" />
    <glyph glyph-name="grave.uc" 
d="M352 722l-240 52l50 130l218 -104z" />
    <glyph glyph-name="dieresis.uc" 
d="M144 727q-37 0 -62.5 22t-25.5 60q0 37 25.5 59.5t62.5 22.5q38 0 64 -22.5t26 -59.5q0 -38 -26 -60t-64 -22zM353 727q-38 0 -63.5 22t-25.5 60q0 37 26 59.5t63 22.5q38 0 63.5 -22.5t25.5 -59.5q0 -38 -25.5 -60t-63.5 -22z" />
    <glyph glyph-name="macron.uc" 
d="M104 737v110h289v-110h-289z" />
    <glyph glyph-name="acute.uc" 
d="M388 774l-240 -52l-28 78l218 104z" />
    <glyph glyph-name="circumflex.uc" 
d="M119 722l-34 51l121 118h86l120 -118l-33 -51l-130 52z" />
    <glyph glyph-name="caron.uc" 
d="M379 895l33 -50l-120 -119h-86l-121 119l34 50l130 -51z" />
    <glyph glyph-name="breve.uc" 
d="M254 725q-71 0 -113 39.5t-45 101.5h104q7 -34 54 -34q46 0 53 34h105q-3 -61 -45 -101t-113 -40z" />
    <glyph glyph-name="dotaccent.uc" 
d="M248 725q-41 0 -69.5 24.5t-28.5 65.5t28.5 65t69.5 24q42 0 70 -24t28 -65t-28 -65.5t-70 -24.5z" />
    <glyph glyph-name="ring.uc" 
d="M249 775q22 0 34 13t12 36q0 22 -12.5 35.5t-33.5 13.5t-34 -14t-13 -35q0 -23 12.5 -36t34.5 -13zM249 713q-50 0 -83.5 32.5t-33.5 78.5t33.5 78t83.5 32t83.5 -32t33.5 -78t-33.5 -78.5t-83.5 -32.5z" />
    <glyph glyph-name="tilde.uc" 
d="M134 726l-68 46q50 105 128 105q25 0 64 -13t52 -13q33 0 55 33l68 -46q-49 -106 -128 -106q-25 0 -64 13t-52 13q-33 0 -55 -32z" />
    <glyph glyph-name="hungarumlaut.uc" 
d="M172 723l-72 40l79 157l119 -70zM354 724l-69 45l93 152l113 -80z" />
    <glyph glyph-name="acute.ucpl" 
d="M298 726l-103 11l51 182l173 -43z" />
    <glyph glyph-name="Cacute.pl" horiz-adv-x="651" 
d="M368 -12q-159 0 -253 86t-94 267q0 98 30.5 170.5t83.5 113.5t115.5 60.5t135.5 19.5q140 0 218 -31l6 -206h-121l-31 95q-36 16 -77 16q-77 0 -111 -55t-34 -163q0 -141 34 -194t117 -53q47 0 79 19l32 99h120l-9 -205q-89 -39 -241 -39zM410 726l-103 11l51 182
l173 -43z" />
    <glyph glyph-name="Nacute.pl" horiz-adv-x="736" 
d="M435 726l-103 11l51 182l173 -43zM17 0v97l69 17v465l-69 17v97h283l225 -393h5v278l-70 18v97h263v-97l-61 -17v-579h-180l-259 462h-5v-349l71 -16v-97h-272z" />
    <glyph glyph-name="Oacute.pl" horiz-adv-x="713" 
d="M398 726l-103 11l51 182l173 -43zM356 111q62 0 93.5 54t31.5 174q0 136 -29.5 190t-94.5 54q-125 0 -125 -228q0 -135 29 -189.5t95 -54.5zM354 -12q-150 0 -241.5 90.5t-91.5 263.5q0 92 28 163.5t76 114t107.5 64t127.5 21.5q150 0 241 -90t91 -264q0 -91 -28 -162.5
t-76 -114t-107.5 -64.5t-126.5 -22z" />
    <glyph glyph-name="Sacute.pl" horiz-adv-x="566" 
d="M262 -12q-142 0 -228 34l-10 188h124l25 -86q35 -16 83 -16q45 0 69 19t24 52q0 31 -26.5 50.5t-83.5 39.5l-40 15q-88 30 -129 74.5t-41 130.5q0 101 66.5 159t206.5 58q115 0 199 -28l10 -171h-122l-19 66q-32 16 -74 16q-38 0 -61 -16t-23 -45q0 -28 22 -44.5
t75 -35.5l41 -15q105 -36 149.5 -78.5t44.5 -135.5q0 -109 -73 -170t-209 -61zM333 726l-103 11l51 182l173 -43z" />
    <glyph glyph-name="Zacute.pl" horiz-adv-x="600" 
d="M18 0v119l332 455v4h-160l-42 -111h-118l12 226h538v-119l-332 -455v-4h175l46 130h115l-11 -245h-555zM354 726l-103 11l51 182l173 -43z" />
    <glyph glyph-name="cacute.pl" horiz-adv-x="507" 
d="M296 -13q-139 0 -209.5 72.5t-70.5 203.5q0 142 79 212t218 70q101 0 164 -21v-168h-117l-14 73q-21 7 -41 7q-95 0 -95 -158q0 -90 36.5 -127.5t108.5 -37.5q71 0 125 22v-99q-68 -49 -184 -49zM340 575l-98 10l49 186l166 -46z" />
    <glyph glyph-name="idotaccent" horiz-adv-x="322" 
d="M14 0v91l57 14v307l-62 16v93l229 23l17 -7v-432l54 -14v-91h-295zM158 577q-43 0 -72 24.5t-29 65.5q0 40 29 64.5t72 24.5t72 -24.5t29 -64.5q0 -41 -29 -65.5t-72 -24.5z" />
    <glyph glyph-name="nacute.pl" horiz-adv-x="633" 
d="M367 575l-98 10l49 186l166 -46zM14 0v91l57 14v307l-60 16v93l220 23l16 -7v-57h6q85 65 176 65q139 0 139 -132v-308l53 -14v-91h-279v91l42 11v247q0 31 -15 44t-47 13q-28 0 -67 -13v-291l42 -11v-91h-283z" />
    <glyph glyph-name="oacute.pl" horiz-adv-x="585" 
d="M294 97q40 0 60.5 36.5t20.5 129.5q0 97 -21.5 135t-62.5 38q-40 0 -61 -35.5t-21 -130.5q0 -97 21.5 -135t63.5 -38zM293 -13q-133 0 -205 74t-72 202q0 133 78 207.5t198 74.5q133 0 205 -71.5t72 -203.5q0 -133 -78.5 -208t-197.5 -75zM341 575l-98 10l49 186l166 -46
z" />
    <glyph glyph-name="sacute.pl" horiz-adv-x="485" 
d="M215 -13q-106 0 -187 33l-9 146h113l20 -59q30 -16 70 -16q33 0 51.5 12.5t18.5 34.5t-13.5 32.5t-50.5 19.5l-58 14q-77 17 -114.5 55.5t-37.5 107.5q0 82 59.5 130.5t178.5 48.5q108 0 177 -29v-139h-110l-13 53q-22 13 -60 13q-69 0 -69 -42q0 -21 15.5 -32t56.5 -20
l65 -15q149 -33 149 -159q0 -89 -61.5 -139t-190.5 -50zM296 575l-98 10l49 186l166 -46z" />
    <glyph glyph-name="zacute.pl" horiz-adv-x="507" 
d="M18 0v97l254 331v4h-126l-27 -82h-92l10 184h443v-100l-245 -325v-4h126l33 93h95l-14 -198h-457zM303 575l-98 10l49 186l166 -46z" />
    <glyph glyph-name="dollar.old" horiz-adv-x="559" 
d="M167 -109l15 101q-99 9 -149 28l-10 165h113l29 -78q8 -3 32 -9l24 164l-20 5q-89 21 -131.5 66t-42.5 126q0 91 63 143t189 55l9 62h85l-10 -65q73 -6 130 -25l10 -149h-112l-18 60q-23 7 -25 7l-21 -144l25 -7q97 -25 140 -68.5t43 -129.5q0 -97 -68.5 -152t-199.5 -57
l-14 -98h-86zM364 166q0 27 -14 43.5t-47 29.5l-21 -145q82 7 82 72zM189 491q0 -25 12.5 -39.5t43.5 -25.5l19 127q-34 -3 -54.5 -19.5t-20.5 -42.5z" />
    <glyph glyph-name="Euro.old" horiz-adv-x="613" 
d="M24 342v78h64q44 236 302 236q108 0 181 -25l7 -174h-117l-21 73q-20 10 -53 10q-93 0 -111 -120h144v-78h-149v-4q0 -33 1 -48h148v-79h-136q15 -51 48.5 -72.5t92.5 -21.5q67 0 152 30v-103q-88 -55 -202 -55q-113 0 -187.5 54.5t-98.5 167.5h-65v79h55v52h-55z" />
    <glyph glyph-name="sterling.old" horiz-adv-x="539" 
d="M37 261v101h59v66q0 110 64 168.5t173 58.5q113 0 173 -44v-109q-46 18 -107 18q-53 0 -83.5 -26.5t-36.5 -88.5l-4 -43h154v-101h-163v-4q-4 -50 -21 -78.5t-51 -49.5v-3h323l-16 -126h-476v96q36 17 53.5 45.5t17.5 80.5v39h-59z" />
    <glyph glyph-name="yen.old" horiz-adv-x="635" 
d="M75 278v75h111l-125 180l-50 17v94h308v-94l-49 -13l87 -150h3l83 150l-49 13v94h230v-94l-50 -17l-119 -180h117v-75h-153v-49h153v-75h-153v-44l71 -16v-94h-334v94l72 16v44h-153v75h153v49h-153z" />
    <glyph glyph-name="zero.old" horiz-adv-x="640" 
d="M321 102q47 0 69.5 43t22.5 147q0 116 -21 158t-72 42q-47 0 -70.5 -44t-23.5 -146q0 -116 21.5 -158t73.5 -42zM319 -11q-133 0 -214 76.5t-81 228.5q0 155 85 233.5t213 78.5q131 0 212.5 -77t81.5 -229q0 -154 -84.5 -232.5t-212.5 -78.5z" />
    <glyph glyph-name="one.old" horiz-adv-x="441" 
d="M28 0v93l100 17v310l-101 -9v92l200 96h97v-489l95 -17v-93h-391z" />
    <glyph glyph-name="two.old" horiz-adv-x="519" 
d="M15 0v107l152 125q110 92 110 158q0 38 -25.5 58t-71.5 20q-63 0 -145 -24v107q99 54 221 54q113 0 173 -48.5t60 -134.5q0 -72 -44.5 -123t-151.5 -119l-81 -52v-2h158l33 54h94l-10 -180h-472z" />
    <glyph glyph-name="three.old" horiz-adv-x="522" 
d="M218 -109q-122 0 -204 47v104q67 -23 147 -23q128 0 128 91q0 50 -27 71.5t-85 21.5h-66v107h54q113 0 113 82q0 84 -111 84q-59 0 -127 -18v100q78 47 203 47q111 0 169.5 -45t58.5 -132q0 -60 -36 -100.5t-98 -57.5v-4q71 -10 115.5 -54t44.5 -119q0 -94 -73 -148
t-206 -54z" />
    <glyph glyph-name="four.old" horiz-adv-x="606" 
d="M313 -102v176h-297v97l327 422h166v-410h73v-109h-73v-176h-196zM149 183h164v210h-4l-160 -207v-3z" />
    <glyph glyph-name="five.old" horiz-adv-x="526" 
d="M223 -110q-118 0 -204 48v101q73 -23 148 -23q61 0 95.5 28t34.5 82q0 52 -36.5 73.5t-105.5 21.5q-49 0 -106 -12l22 384h398l-11 -140h-271l-9 -123q29 6 78 6q113 0 179 -52t66 -156t-72 -171t-206 -67z" />
    <glyph glyph-name="six.old" horiz-adv-x="605" 
d="M311 -12q-136 0 -211 92t-75 246q0 187 94 282.5t236 95.5q117 0 183 -42v-105q-43 14 -135 14q-77 0 -124.5 -37.5t-53.5 -133.5q59 41 144 41q103 0 159 -56.5t56 -152.5q0 -105 -70 -174.5t-203 -69.5zM310 98q75 0 75 121q0 109 -81 109q-47 0 -79 -19q-1 -12 -1 -33
q0 -93 20.5 -135.5t65.5 -42.5z" />
    <glyph glyph-name="seven.old" horiz-adv-x="536" 
d="M88 -100l300 551v4h-240l-26 -71h-104l9 209h494v-107l-217 -586h-216z" />
    <glyph glyph-name="eight.old" horiz-adv-x="611" 
d="M304 -13q-139 0 -209.5 50.5t-70.5 140.5q0 54 37.5 96.5t99.5 65.5q-59 28 -86.5 68t-27.5 101q0 89 70.5 142.5t195.5 53.5q122 0 186 -46.5t64 -126.5q0 -100 -126 -148q74 -27 112.5 -69.5t38.5 -112.5q0 -103 -74.5 -159t-209.5 -56zM291 97q106 0 106 83
q0 39 -34 61.5t-118 49.5q-59 -36 -59 -109q0 -41 27.5 -63t77.5 -22zM342 428q60 37 60 93q0 37 -23 55.5t-61 18.5q-37 0 -60 -18.5t-23 -48.5q0 -38 23 -58t84 -42z" />
    <glyph glyph-name="nine.old" horiz-adv-x="605" 
d="M245 -111q-120 0 -186 42v106q48 -17 137 -17q86 0 132 37.5t52 135.5q-59 -41 -144 -41q-103 0 -158.5 56.5t-55.5 152.5q0 105 69.5 174.5t202.5 69.5q137 0 211.5 -89t74.5 -250q0 -189 -91.5 -283t-243.5 -94zM301 263q46 0 79 20q1 11 1 34q0 93 -20.5 135t-65.5 42
q-75 0 -75 -120q0 -111 81 -111z" />
    <glyph glyph-name="percent.old" horiz-adv-x="888" 
d="M206 355q27 0 36 24t9 84q0 62 -8.5 88t-36.5 26q-27 0 -35.5 -25t-8.5 -85q0 -61 8.5 -86.5t35.5 -25.5zM206 281q-79 0 -132.5 46t-53.5 136q0 93 54.5 141t131.5 48t132 -46.5t55 -137.5q0 -92 -54.5 -139.5t-132.5 -47.5zM161 -36l457 695h102l-457 -695h-102z
M681 64q28 0 36.5 23.5t8.5 84.5q0 62 -9 88t-36 26t-35.5 -25t-8.5 -85q0 -61 8.5 -86.5t35.5 -25.5zM680 -11q-78 0 -131.5 46.5t-53.5 136.5q0 93 54.5 140.5t131.5 47.5t132 -46.5t55 -137.5q0 -92 -54.5 -139.5t-133.5 -47.5z" />
    <glyph glyph-name="perthousand.old" horiz-adv-x="1288" 
d="M206 355q27 0 36 24t9 84q0 62 -8.5 88t-36.5 26q-27 0 -35.5 -25t-8.5 -85q0 -61 8.5 -86.5t35.5 -25.5zM206 281q-79 0 -132.5 46t-53.5 136q0 93 54.5 141t131.5 48t132 -46.5t55 -137.5q0 -92 -54.5 -139.5t-132.5 -47.5zM157 -36l456 695h102l-456 -695h-102z
M672 64q28 0 36.5 23.5t8.5 84.5t-8.5 87.5t-35.5 26.5q-28 0 -36.5 -25t-8.5 -85q0 -61 8.5 -86.5t35.5 -25.5zM672 -11q-79 0 -132.5 46.5t-53.5 136.5q0 93 55 140.5t132 47.5q76 0 131.5 -46.5t55.5 -137.5q0 -92 -55 -139.5t-133 -47.5zM1081 64q27 0 36 24t9 84
q0 62 -9 88t-36 26t-36 -25t-9 -85t9 -86t36 -26zM1080 -11q-78 0 -131.5 46.5t-53.5 136.5q0 93 54.5 140.5t131.5 47.5q76 0 131.5 -46.5t55.5 -137.5q0 -92 -55 -139.5t-133 -47.5z" />
    <glyph glyph-name="plus.old" horiz-adv-x="540" 
d="M209 542h122v-171h164v-118h-164v-171h-122v171h-164v118h164v171z" />
    <glyph glyph-name="minus.old" horiz-adv-x="540" 
d="M45 253v118h450v-118h-450z" />
    <glyph glyph-name="multiply.old" horiz-adv-x="540" 
d="M130 81l-79 79l141 143l-141 143l79 80l140 -143l140 142l79 -79l-140 -143l141 -143l-80 -79l-140 142z" />
    <glyph glyph-name="divide.old" horiz-adv-x="540" 
d="M270 23q-40 0 -66.5 26.5t-26.5 61.5q0 37 26.5 63t66.5 26q41 0 67 -26t26 -63q0 -36 -26.5 -62t-66.5 -26zM45 253v118h450v-118h-450zM270 424q-40 0 -66.5 26t-26.5 62q0 37 26.5 63t66.5 26t66.5 -26t26.5 -63q0 -36 -26.5 -62t-66.5 -26z" />
    <glyph glyph-name="equal.old" horiz-adv-x="538" 
d="M46 115v118h447v-118h-447zM46 317v118h447v-118h-447z" />
    <glyph glyph-name="less.old" horiz-adv-x="500" 
d="M45 355l404 174v-133l-256 -97l256 -98v-132l-404 173v113z" />
    <glyph glyph-name="greater.old" horiz-adv-x="500" 
d="M455 242l-405 -173v132l257 97l-257 98v133l405 -174v-113z" />
    <glyph glyph-name="numbersign.old" horiz-adv-x="527" 
d="M55 368v135h97l23 141h96l-23 -141h89l23 141h96l-23 -141h74v-135h-96l-14 -81h74v-135h-95l-25 -152h-96l25 152h-90l-25 -152h-96l25 152h-74v135h96l13 81h-74zM225 368l-13 -81h89l14 81h-90z" />
    <glyph glyph-name="zero.num" horiz-adv-x="446" 
d="M223 356q54 0 54 131q0 79 -12.5 108.5t-41.5 29.5q-28 0 -41 -31t-13 -100q0 -77 12.5 -107.5t41.5 -30.5zM223 275q-90 0 -144.5 53.5t-54.5 159.5q0 110 56.5 164.5t142.5 54.5q90 0 145 -54t55 -160q0 -109 -57 -163.5t-143 -54.5z" />
    <glyph glyph-name="one.num" horiz-adv-x="312" 
d="M29 282v68l60 10v210l-63 -3v67l135 70h75v-344l61 -10v-68h-268z" />
    <glyph glyph-name="two.num" horiz-adv-x="382" 
d="M30 282v81l93 85q69 62 69 102q0 54 -62 54q-50 0 -87 -14v80q62 37 147 37q75 0 115.5 -34.5t40.5 -93.5q0 -51 -29.5 -87t-94.5 -79l-53 -35v-3h92l22 38l71 1l-11 -132h-313z" />
    <glyph glyph-name="three.num" horiz-adv-x="366" 
d="M157 276q-80 0 -132 26v75q44 -12 91 -12q73 0 73 47q0 45 -62 45h-46v77h39q64 0 64 41q0 43 -62 43q-47 0 -80 -11v75q45 25 132 25q72 0 111 -27t39 -77q0 -73 -86 -98v-3q46 -6 73.5 -32t27.5 -70q0 -58 -47 -91t-135 -33z" />
    <glyph glyph-name="four.num" horiz-adv-x="416" 
d="M161 282v68l43 10v42h-180v66l202 232h115v-225h46v-73h-46v-42l47 -10v-68h-227zM120 475h84v97h-3l-81 -95v-2z" />
    <glyph glyph-name="five.num" horiz-adv-x="352" 
d="M148 276q-80 0 -132 28v73q46 -13 82 -13q79 0 79 52t-79 52q-29 0 -64 -7l13 239h259l-7 -99h-175l-4 -61q24 7 58 7q69 0 108.5 -31.5t39.5 -95.5q0 -63 -45 -103.5t-133 -40.5z" />
    <glyph glyph-name="six.num" horiz-adv-x="412" 
d="M212 275q-90 0 -139 56t-49 150q0 112 59 169t151 57q83 0 126 -25v-79q-24 9 -90 9q-101 0 -106 -83q37 22 94 22q65 0 98 -34t33 -93q0 -64 -44.5 -106.5t-132.5 -42.5zM212 354q44 0 44 65q0 57 -47 57q-30 0 -45 -9v-21q0 -92 48 -92z" />
    <glyph glyph-name="seven.num" horiz-adv-x="391" 
d="M81 282l183 315v3h-136l-19 -49h-79l9 149h329v-83l-126 -335h-161z" />
    <glyph glyph-name="eight.num" horiz-adv-x="431" 
d="M213 274q-182 0 -182 117q0 65 83 94q-70 32 -70 101q0 56 46 88.5t130 32.5q79 0 121 -29t42 -76q0 -59 -75 -86q93 -29 93 -110q0 -64 -49.5 -98t-138.5 -34zM207 349q61 0 61 42q0 20 -20.5 33t-70.5 27q-31 -22 -31 -56q0 -46 61 -46zM237 548q32 17 32 49
q0 35 -47 35t-47 -32q0 -19 13 -29t49 -23z" />
    <glyph glyph-name="nine.num" horiz-adv-x="415" 
d="M178 275q-82 0 -126 25v79q36 -9 90 -9t80 18.5t29 65.5q-40 -24 -96 -24q-66 0 -99 34.5t-33 93.5q0 64 44.5 106.5t132.5 42.5q90 0 140.5 -56.5t50.5 -149.5q0 -113 -56.5 -169.5t-156.5 -56.5zM204 505q30 0 47 10v20q0 93 -51 93q-44 0 -44 -65q0 -58 48 -58z" />
    <glyph glyph-name="zero.den" horiz-adv-x="446" 
d="M223 74q54 0 54 131q0 79 -12.5 108.5t-41.5 29.5q-28 0 -41 -31t-13 -100q0 -77 12.5 -107.5t41.5 -30.5zM223 -7q-90 0 -144.5 53.5t-54.5 159.5q0 110 56.5 164.5t142.5 54.5q90 0 145 -54t55 -160q0 -109 -57 -163.5t-143 -54.5z" />
    <glyph glyph-name="one.den" horiz-adv-x="312" 
d="M29 0v68l60 10v210l-63 -3v67l135 70h75v-344l61 -10v-68h-268z" />
    <glyph glyph-name="two.den" horiz-adv-x="382" 
d="M30 0v81l93 85q69 62 69 102q0 26 -16.5 40t-45.5 14q-50 0 -87 -14v80q65 37 147 37q75 0 115.5 -35t40.5 -94q0 -50 -29.5 -86t-94.5 -79l-53 -36v-2h92l22 38l71 1l-11 -132h-313z" />
    <glyph glyph-name="three.den" horiz-adv-x="366" 
d="M157 -6q-80 0 -132 26v75q44 -12 91 -12q73 0 73 47q0 45 -62 45h-46v77h39q64 0 64 41q0 43 -62 43q-47 0 -80 -11v75q45 25 132 25q72 0 111 -27t39 -77q0 -73 -86 -98v-3q46 -6 73.5 -32t27.5 -70q0 -58 -47 -91t-135 -33z" />
    <glyph glyph-name="four.den" horiz-adv-x="416" 
d="M161 0v68l43 10v42h-180v66l202 232h115v-226h46v-72h-46v-42l47 -10v-68h-227zM120 192h84v98h-3l-81 -95v-3z" />
    <glyph glyph-name="five.den" horiz-adv-x="352" 
d="M148 -6q-80 0 -132 28v73q46 -13 82 -13q79 0 79 52t-79 52q-29 0 -64 -7l13 239h255l-6 -96h-172l-4 -64q25 7 58 7q69 0 108.5 -31.5t39.5 -95.5q0 -63 -45 -103.5t-133 -40.5z" />
    <glyph glyph-name="six.den" horiz-adv-x="412" 
d="M212 -7q-90 0 -139 56t-49 150q0 112 59 169t151 57q83 0 126 -25v-79q-24 9 -90 9q-101 0 -106 -83q37 22 94 22q65 0 98 -34t33 -93q0 -64 -44.5 -106.5t-132.5 -42.5zM212 72q44 0 44 65q0 57 -47 57q-30 0 -45 -9v-21q0 -92 48 -92z" />
    <glyph glyph-name="seven.den" horiz-adv-x="391" 
d="M81 0l183 315v3h-136l-19 -49h-79l9 149h329v-83l-126 -335h-161z" />
    <glyph glyph-name="eight.den" horiz-adv-x="431" 
d="M213 -8q-182 0 -182 117q0 65 83 94q-70 32 -70 101q0 56 46 88.5t130 32.5q79 0 121 -29t42 -76q0 -59 -75 -86q93 -31 93 -110q0 -64 -49.5 -98t-138.5 -34zM207 67q61 0 61 42q0 20 -20.5 33t-70.5 26q-31 -20 -31 -55q0 -46 61 -46zM237 266q32 17 32 48q0 36 -47 36
t-47 -32q0 -19 12.5 -29t49.5 -23z" />
    <glyph glyph-name="nine.den" horiz-adv-x="415" 
d="M178 -7q-82 0 -126 25v79q36 -9 90 -9t80 18.5t29 65.5q-40 -24 -96 -24q-66 0 -99 34.5t-33 93.5q0 64 44.5 106.5t132.5 42.5q90 0 140.5 -56.5t50.5 -149.5q0 -113 -56.5 -169.5t-156.5 -56.5zM204 223q30 0 47 10v20q0 93 -51 93q-44 0 -44 -65q0 -58 48 -58z" />
    <glyph glyph-name="zero.sub" horiz-adv-x="446" 
d="M223 -46q54 0 54 131q0 79 -12.5 108.5t-41.5 29.5q-28 0 -41 -31t-13 -100q0 -77 12.5 -107.5t41.5 -30.5zM223 -127q-90 0 -144.5 53.5t-54.5 159.5q0 110 56.5 164.5t142.5 54.5q90 0 145 -54t55 -160q0 -109 -57 -163.5t-143 -54.5z" />
    <glyph glyph-name="one.sub" horiz-adv-x="312" 
d="M29 -120v68l60 10v210l-63 -3v67l135 70h75v-344l61 -10v-68h-268z" />
    <glyph glyph-name="two.sub" horiz-adv-x="382" 
d="M30 -120v81l93 85q69 62 69 102q0 26 -16.5 40t-45.5 14q-50 0 -87 -14v80q65 37 147 37q75 0 115.5 -35t40.5 -94q0 -50 -29.5 -86t-94.5 -79l-53 -36v-2h92l22 38l71 1l-11 -132h-313z" />
    <glyph glyph-name="three.sub" horiz-adv-x="366" 
d="M157 -126q-80 0 -132 26v75q44 -12 91 -12q73 0 73 47q0 45 -62 45h-46v77h39q64 0 64 41q0 43 -62 43q-47 0 -80 -11v75q45 25 132 25q72 0 111 -27t39 -77q0 -73 -86 -98v-3q46 -6 73.5 -32t27.5 -70q0 -58 -47 -91t-135 -33z" />
    <glyph glyph-name="four.sub" horiz-adv-x="416" 
d="M161 -120v68l43 10v42h-180v66l202 232h115v-226h46v-72h-46v-42l47 -10v-68h-227zM120 72h84v98h-3l-81 -95v-3z" />
    <glyph glyph-name="five.sub" horiz-adv-x="352" 
d="M148 -126q-80 0 -132 28v73q46 -13 82 -13q79 0 79 52t-79 52q-29 0 -64 -7l13 239h255l-6 -96h-172l-4 -64q25 7 58 7q69 0 108.5 -31.5t39.5 -95.5q0 -63 -45 -103.5t-133 -40.5z" />
    <glyph glyph-name="six.sub" horiz-adv-x="412" 
d="M212 -127q-90 0 -139 56t-49 150q0 112 59 169t151 57q83 0 126 -25v-79q-24 9 -90 9q-101 0 -106 -83q37 22 94 22q65 0 98 -34t33 -93q0 -64 -44.5 -106.5t-132.5 -42.5zM212 -48q44 0 44 65q0 57 -47 57q-30 0 -45 -9v-21q0 -92 48 -92z" />
    <glyph glyph-name="seven.sub" horiz-adv-x="391" 
d="M81 -120l183 315v3h-136l-19 -49h-79l9 149h329v-83l-126 -335h-161z" />
    <glyph glyph-name="eight.sub" horiz-adv-x="431" 
d="M213 -128q-182 0 -182 117q0 65 83 94q-70 32 -70 101q0 56 46 88.5t130 32.5q79 0 121 -29t42 -76q0 -59 -75 -86q93 -31 93 -110q0 -64 -49.5 -98t-138.5 -34zM207 -53q61 0 61 42q0 20 -20.5 33t-70.5 26q-31 -20 -31 -55q0 -46 61 -46zM237 146q32 17 32 48
q0 36 -47 36t-47 -32q0 -19 12.5 -29t49.5 -23z" />
    <glyph glyph-name="nine.sub" horiz-adv-x="415" 
d="M178 -127q-82 0 -126 25v79q36 -9 90 -9t80 18.5t29 65.5q-40 -24 -96 -24q-66 0 -99 34.5t-33 93.5q0 64 44.5 106.5t132.5 42.5q90 0 140.5 -56.5t50.5 -149.5q0 -113 -56.5 -169.5t-156.5 -56.5zM204 103q30 0 47 10v20q0 93 -51 93q-44 0 -44 -65q0 -58 48 -58z" />
    <glyph glyph-name="zero.sup" horiz-adv-x="446" 
d="M223 396q54 0 54 131q0 79 -12.5 108.5t-41.5 29.5q-28 0 -41 -31t-13 -100q0 -77 12.5 -107.5t41.5 -30.5zM223 315q-90 0 -144.5 53.5t-54.5 159.5q0 110 56.5 164.5t142.5 54.5q90 0 145 -54t55 -160q0 -109 -57 -163.5t-143 -54.5z" />
    <glyph glyph-name="one.sup" horiz-adv-x="312" 
d="M29 322v68l60 10v210l-63 -3v67l135 70h75v-344l61 -10v-68h-268z" />
    <glyph glyph-name="two.sup" horiz-adv-x="382" 
d="M30 322v81l93 85q69 62 69 102q0 54 -62 54q-50 0 -87 -14v80q62 37 147 37q75 0 115.5 -34.5t40.5 -93.5q0 -51 -29.5 -87t-94.5 -79l-53 -35v-3h92l22 38l71 1l-11 -132h-313z" />
    <glyph glyph-name="three.sup" horiz-adv-x="366" 
d="M157 316q-80 0 -132 26v75q44 -12 91 -12q73 0 73 47q0 45 -62 45h-46v77h39q64 0 64 41q0 43 -62 43q-47 0 -80 -11v75q45 25 132 25q72 0 111 -27t39 -77q0 -73 -86 -98v-3q46 -6 73.5 -32t27.5 -70q0 -58 -47 -91t-135 -33z" />
    <glyph glyph-name="four.sup" horiz-adv-x="416" 
d="M161 322v68l43 10v42h-180v66l202 232h115v-225h46v-73h-46v-42l47 -10v-68h-227zM120 515h84v97h-3l-81 -95v-2z" />
    <glyph glyph-name="five.sup" horiz-adv-x="352" 
d="M148 316q-80 0 -132 28v73q46 -13 82 -13q79 0 79 52t-79 52q-29 0 -64 -7l13 239h255l-6 -96h-172l-4 -64q24 7 58 7q69 0 108.5 -31.5t39.5 -95.5q0 -63 -45 -103.5t-133 -40.5z" />
    <glyph glyph-name="six.sup" horiz-adv-x="412" 
d="M212 315q-90 0 -139 56t-49 150q0 112 59 169t151 57q83 0 126 -25v-79q-24 9 -90 9q-101 0 -106 -83q37 22 94 22q65 0 98 -34t33 -93q0 -64 -44.5 -106.5t-132.5 -42.5zM212 394q44 0 44 65q0 57 -47 57q-30 0 -45 -9v-21q0 -92 48 -92z" />
    <glyph glyph-name="seven.sup" horiz-adv-x="391" 
d="M81 322l183 315v3h-136l-19 -49h-79l9 149h329v-83l-126 -335h-161z" />
    <glyph glyph-name="eight.sup" horiz-adv-x="431" 
d="M213 314q-182 0 -182 117q0 65 83 94q-70 32 -70 101q0 56 46 88.5t130 32.5q79 0 121 -29t42 -76q0 -59 -75 -86q93 -29 93 -110q0 -64 -49.5 -98t-138.5 -34zM207 389q61 0 61 42q0 20 -20.5 33t-70.5 27q-31 -22 -31 -56q0 -46 61 -46zM237 588q32 17 32 49
q0 35 -47 35t-47 -32q0 -19 13 -29t49 -23z" />
    <glyph glyph-name="nine.sup" horiz-adv-x="415" 
d="M178 315q-82 0 -126 25v79q36 -9 90 -9t80 18.5t29 65.5q-40 -24 -96 -24q-66 0 -99 34.5t-33 93.5q0 64 44.5 106.5t132.5 42.5q90 0 140.5 -56.5t50.5 -149.5q0 -113 -56.5 -169.5t-156.5 -56.5zM204 545q30 0 47 10v20q0 93 -51 93q-44 0 -44 -65q0 -58 48 -58z" />
    <glyph glyph-name="K.alt" horiz-adv-x="738" 
d="M511 0l-195 281v87l175 211l-64 17v97h281v-97l-59 -19l-172 -200l191 -264l56 -16v-97h-213zM17 0v97l69 17v465l-69 17v97h332v-97l-60 -16v-467l60 -16v-97h-332z" />
    <glyph glyph-name="P.alt" horiz-adv-x="647" 
d="M17 0v97l69 17v465l-69 17v97h341q275 0 275 -204q0 -111 -62 -165t-173 -54q-11 0 -23 1t-22 2t-17.5 2.5l-12.5 2.5l-5 1v96l6 -1q6 0 14.5 -0.5t14.5 -0.5q78 0 78 103q0 52 -20 75.5t-64 23.5h-58v-462l80 -16v-97h-352z" />
    <glyph glyph-name="R.alt" horiz-adv-x="705" 
d="M518 340v-4q57 -13 84 -44t27 -90v-59q0 -23 10.5 -32t36.5 -9h17v-91q-43 -23 -109 -23q-85 0 -121.5 34.5t-36.5 114.5v72q0 39 -17 53t-64 14h-55v-164l58 -15v-97h-331v97l70 17v464l-69 18v97h352q269 0 269 -196q0 -68 -30 -104t-91 -53zM290 381h64
q46 0 65.5 26.5t19.5 79.5q0 48 -22.5 69t-71.5 21h-55v-196z" />
    <glyph glyph-name="a.alt" horiz-adv-x="546" 
d="M170 -13q-71 0 -114.5 40.5t-43.5 105.5q0 74 47.5 108.5t147.5 52.5l93 18v37q0 46 -18 65t-64 19q-26 0 -35 -2l-15 -69h-117v149q98 34 226 34q110 0 158 -42t48 -133v-238q0 -32 36 -32h16v-87q-37 -25 -107 -25q-87 0 -108 62h-5q-50 -63 -145 -63zM248 93
q32 0 52 20v115l-47 -2q-59 -4 -59 -67q0 -66 54 -66z" />
    <glyph glyph-name="k.alt" horiz-adv-x="607" 
d="M423 0l-147 212v66l116 152l-56 13v91h252v-91l-60 -15l-105 -131l133 -192l42 -14v-91h-175zM14 0v91l57 13v514l-60 16v92l227 24l17 -9v-639l46 -11v-91h-287z" />
    <glyph glyph-name="Kcommaaccent.alt" horiz-adv-x="738" 
d="M305 -189q9 67 9 153h174q-10 -96 -49 -153h-134zM511 0l-195 281v87l175 211l-64 17v97h281v-97l-59 -19l-172 -200l191 -264l56 -16v-97h-213zM17 0v97l69 17v465l-69 17v97h332v-97l-60 -16v-467l60 -16v-97h-332z" />
    <glyph glyph-name="Racute.alt" horiz-adv-x="705" 
d="M484 774l-240 -52l-28 78l218 104zM518 340v-4q57 -13 84 -44t27 -90v-59q0 -23 10.5 -32t36.5 -9h17v-91q-43 -23 -109 -23q-85 0 -121.5 34.5t-36.5 114.5v72q0 39 -17 53t-64 14h-55v-164l58 -15v-97h-331v97l70 17v464l-69 18v97h352q269 0 269 -196q0 -68 -30 -104
t-91 -53zM290 381h64q46 0 65.5 26.5t19.5 79.5q0 48 -22.5 69t-71.5 21h-55v-196z" />
    <glyph glyph-name="Rcaron.alt" horiz-adv-x="705" 
d="M468 895l33 -50l-120 -119h-86l-121 119l34 50l130 -51zM518 340v-4q57 -13 84 -44t27 -90v-59q0 -23 10.5 -32t36.5 -9h17v-91q-43 -23 -109 -23q-85 0 -121.5 34.5t-36.5 114.5v72q0 39 -17 53t-64 14h-55v-164l58 -15v-97h-331v97l70 17v464l-69 18v97h352
q269 0 269 -196q0 -68 -30 -104t-91 -53zM290 381h64q46 0 65.5 26.5t19.5 79.5q0 48 -22.5 69t-71.5 21h-55v-196z" />
    <glyph glyph-name="Rcommaaccent.alt" horiz-adv-x="705" 
d="M266 -189q9 67 9 153h174q-10 -96 -49 -153h-134zM518 340v-4q57 -13 84 -44t27 -90v-59q0 -23 10.5 -32t36.5 -9h17v-91q-43 -23 -109 -23q-85 0 -121.5 34.5t-36.5 114.5v72q0 39 -17 53t-64 14h-55v-164l58 -15v-97h-331v97l70 17v464l-69 18v97h352q269 0 269 -196
q0 -68 -30 -104t-91 -53zM290 381h64q46 0 65.5 26.5t19.5 79.5q0 48 -22.5 69t-71.5 21h-55v-196z" />
    <glyph glyph-name="Thorn.alt" horiz-adv-x="646" 
d="M17 0v97l69 17v465l-69 17v97h330v-97l-58 -16v-38h69q271 0 271 -192q0 -88 -60 -137.5t-163 -49.5q-52 0 -88 8v94q10 -2 29 -2q42 0 61.5 20t19.5 65t-19.5 62.5t-63.5 17.5h-56v-315l80 -16v-97h-352z" />
    <glyph glyph-name="aacute.alt" horiz-adv-x="546" 
d="M172 576l-32 76l212 120l59 -127zM170 -13q-71 0 -114.5 40.5t-43.5 105.5q0 74 47.5 108.5t147.5 52.5l93 18v37q0 46 -18 65t-64 19q-26 0 -35 -2l-15 -69h-117v149q98 34 226 34q110 0 158 -42t48 -133v-238q0 -32 36 -32h16v-87q-37 -25 -107 -25q-87 0 -108 62h-5
q-50 -63 -145 -63zM248 93q32 0 52 20v115l-47 -2q-59 -4 -59 -67q0 -66 54 -66z" />
    <glyph glyph-name="abreve.alt" horiz-adv-x="546" 
d="M170 -13q-71 0 -114.5 40.5t-43.5 105.5q0 74 47.5 108.5t147.5 52.5l93 18v37q0 46 -18 65t-64 19q-26 0 -35 -2l-15 -69h-117v149q98 34 226 34q110 0 158 -42t48 -133v-238q0 -32 36 -32h16v-87q-37 -25 -107 -25q-87 0 -108 62h-5q-50 -63 -145 -63zM248 93
q32 0 52 20v115l-47 -2q-59 -4 -59 -67q0 -66 54 -66zM264 585q-71 0 -114 42.5t-45 106.5h105q3 -18 17.5 -28.5t36.5 -10.5t36.5 10.5t17.5 28.5h104q-2 -64 -44.5 -106.5t-113.5 -42.5z" />
    <glyph glyph-name="acircumflex.alt" horiz-adv-x="546" 
d="M138 575l-36 50l120 135h86l120 -135l-37 -50l-126 66zM170 -13q-71 0 -114.5 40.5t-43.5 105.5q0 74 47.5 108.5t147.5 52.5l93 18v37q0 46 -18 65t-64 19q-26 0 -35 -2l-15 -69h-117v149q98 34 226 34q110 0 158 -42t48 -133v-238q0 -32 36 -32h16v-87
q-37 -25 -107 -25q-87 0 -108 62h-5q-50 -63 -145 -63zM248 93q32 0 52 20v115l-47 -2q-59 -4 -59 -67q0 -66 54 -66z" />
    <glyph glyph-name="adieresis.alt" horiz-adv-x="546" 
d="M160 581q-37 0 -62.5 22.5t-25.5 59.5q0 38 25.5 60t62.5 22q38 0 64 -22t26 -60q0 -37 -26 -59.5t-64 -22.5zM369 581q-37 0 -63 22.5t-26 59.5q0 38 25.5 60t63.5 22t63.5 -22t25.5 -60q0 -37 -25.5 -59.5t-63.5 -22.5zM170 -13q-71 0 -114.5 40.5t-43.5 105.5
q0 74 47.5 108.5t147.5 52.5l93 18v37q0 46 -18 65t-64 19q-26 0 -35 -2l-15 -69h-117v149q98 34 226 34q110 0 158 -42t48 -133v-238q0 -32 36 -32h16v-87q-37 -25 -107 -25q-87 0 -108 62h-5q-50 -63 -145 -63zM248 93q32 0 52 20v115l-47 -2q-59 -4 -59 -67q0 -66 54 -66
z" />
    <glyph glyph-name="agrave.alt" horiz-adv-x="546" 
d="M170 -13q-71 0 -114.5 40.5t-43.5 105.5q0 74 47.5 108.5t147.5 52.5l93 18v37q0 46 -18 65t-64 19q-26 0 -35 -2l-15 -69h-117v149q98 34 226 34q110 0 158 -42t48 -133v-238q0 -32 36 -32h16v-87q-37 -25 -107 -25q-87 0 -108 62h-5q-50 -63 -145 -63zM248 93
q32 0 52 20v115l-47 -2q-59 -4 -59 -67q0 -66 54 -66zM360 576l-238 69l59 127l212 -120z" />
    <glyph glyph-name="amacron.alt" horiz-adv-x="546" 
d="M170 -13q-71 0 -114.5 40.5t-43.5 105.5q0 74 47.5 108.5t147.5 52.5l93 18v37q0 46 -18 65t-64 19q-26 0 -35 -2l-15 -69h-117v149q98 34 226 34q110 0 158 -42t48 -133v-238q0 -32 36 -32h16v-87q-37 -25 -107 -25q-87 0 -108 62h-5q-50 -63 -145 -63zM248 93
q32 0 52 20v115l-47 -2q-59 -4 -59 -67q0 -66 54 -66zM120 596v110h289v-110h-289z" />
    <glyph glyph-name="aogonek.alt" horiz-adv-x="546" 
d="M433 -197q-63 0 -94.5 24t-31.5 62q0 67 84 102q-55 11 -71 59h-5q-50 -63 -145 -63q-71 0 -114.5 40.5t-43.5 105.5q0 74 47.5 108.5t147.5 52.5l93 18v37q0 46 -18 65t-64 19q-26 0 -35 -2l-15 -69h-117v149q98 34 226 34q110 0 158 -42t48 -133v-238q0 -32 36 -32h16
v-87q-37 -17 -61 -42t-24 -52q0 -33 40 -33q11 0 27 2v-71q-32 -14 -84 -14zM248 93q32 0 52 20v115l-47 -2q-59 -4 -59 -67q0 -66 54 -66z" />
    <glyph glyph-name="aring.alt" horiz-adv-x="546" 
d="M265 638q22 0 34 13t12 36q0 22 -12.5 35.5t-33.5 13.5t-34 -14t-13 -35q0 -23 12.5 -36t34.5 -13zM265 576q-50 0 -83.5 32.5t-33.5 78.5t33.5 77.5t83.5 31.5t83.5 -32t33.5 -77q0 -46 -33.5 -78.5t-83.5 -32.5zM170 -13q-71 0 -114.5 40.5t-43.5 105.5
q0 74 47.5 108.5t147.5 52.5l93 18v37q0 46 -18 65t-64 19q-26 0 -35 -2l-15 -69h-117v149q98 34 226 34q110 0 158 -42t48 -133v-238q0 -32 36 -32h16v-87q-37 -25 -107 -25q-87 0 -108 62h-5q-50 -63 -145 -63zM248 93q32 0 52 20v115l-47 -2q-59 -4 -59 -67q0 -66 54 -66
z" />
    <glyph glyph-name="aringacute.alt" horiz-adv-x="546" 
d="M264 634q22 0 34 13t12 36q0 22 -12.5 35.5t-33.5 13.5t-34 -14t-13 -35q0 -23 12.5 -36t34.5 -13zM264 572q-50 0 -83.5 32.5t-33.5 78.5t33.5 77.5t83.5 31.5t83.5 -32t33.5 -77q0 -46 -33.5 -78.5t-83.5 -32.5zM170 -13q-71 0 -114.5 40.5t-43.5 105.5
q0 74 47.5 108.5t147.5 52.5l93 18v37q0 46 -18 65t-64 19q-26 0 -35 -2l-15 -69h-117v149q98 34 226 34q110 0 158 -42t48 -133v-238q0 -32 36 -32h16v-87q-37 -25 -107 -25q-87 0 -108 62h-5q-50 -63 -145 -63zM248 93q32 0 52 20v115l-47 -2q-59 -4 -59 -67q0 -66 54 -66
zM402 849l-240 -52l-28 78l218 104z" />
    <glyph glyph-name="atilde.alt" horiz-adv-x="546" 
d="M170 -13q-71 0 -114.5 40.5t-43.5 105.5q0 74 47.5 108.5t147.5 52.5l93 18v37q0 46 -18 65t-64 19q-26 0 -35 -2l-15 -69h-117v149q98 34 226 34q110 0 158 -42t48 -133v-238q0 -32 36 -32h16v-87q-37 -25 -107 -25q-87 0 -108 62h-5q-50 -63 -145 -63zM248 93
q32 0 52 20v115l-47 -2q-59 -4 -59 -67q0 -66 54 -66zM153 582l-68 46q50 106 128 106q25 0 60 -14t48 -14q33 0 55 33l68 -46q-49 -106 -128 -106q-25 0 -60 13.5t-48 13.5q-33 0 -55 -32z" />
    <glyph glyph-name="ae.alt" horiz-adv-x="826" 
d="M275 545q99 0 142 -49q60 49 152 49q123 0 180.5 -71t57.5 -236h-321q7 -68 42.5 -97t101.5 -29q73 0 152 25v-97q-77 -53 -202 -53q-154 0 -225 89q-67 -89 -174 -89q-79 0 -124 40t-45 106q0 74 47.5 109t147.5 53l93 18v36q0 46 -18 65t-64 19q-26 0 -35 -2l-15 -69
h-117v149q98 34 224 34zM323 132q-18 39 -23 99l-47 -4q-59 -3 -59 -68q0 -66 57 -66q36 0 72 39zM486 323l144 6q0 109 -67 109q-33 0 -52.5 -25.5t-24.5 -89.5z" />
    <glyph glyph-name="aeacute.alt" horiz-adv-x="826" 
d="M342 576l-32 76l212 120l59 -127zM275 545q99 0 142 -49q60 49 152 49q123 0 180.5 -71t57.5 -236h-321q7 -68 42.5 -97t101.5 -29q73 0 152 25v-97q-77 -53 -202 -53q-154 0 -225 89q-67 -89 -174 -89q-79 0 -124 40t-45 106q0 74 47.5 109t147.5 53l93 18v36
q0 46 -18 65t-64 19q-26 0 -35 -2l-15 -69h-117v149q98 34 224 34zM323 132q-18 39 -23 99l-47 -4q-59 -3 -59 -68q0 -66 57 -66q36 0 72 39zM486 323l144 6q0 109 -67 109q-33 0 -52.5 -25.5t-24.5 -89.5z" />
    <glyph glyph-name="kcommaaccent.alt" horiz-adv-x="607" 
d="M228 -189q9 68 9 153h174q-10 -96 -49 -153h-134zM423 0l-147 212v66l116 152l-56 13v91h252v-91l-60 -15l-105 -131l133 -192l42 -14v-91h-175zM14 0v91l57 13v514l-60 16v92l227 24l17 -9v-639l46 -11v-91h-287z" />
    <glyph glyph-name="f_f_k.alt" horiz-adv-x="1236" 
d="M15 0v91l57 14v320h-59v83l59 23v39q0 88 49.5 128t126.5 40q60 0 104 -17v-108q-15 3 -36 3q-29 0 -44.5 -14.5t-15.5 -50.5v-17h130v47q0 89 58 128.5t149 39.5q69 0 145 -24l130 24l16 -7v-640l46 -11v-91h-272v91l42 11v516q-32 9 -59 9q-38 0 -54.5 -14t-16.5 -52
v-27h81v-109h-81v-323l41 -11v-91h-267v91l42 11v323h-130v-323l41 -11v-91h-282zM1052 0l-147 212v66l116 152l-56 13v91h252v-91l-60 -15l-105 -131l133 -192l42 -14v-91h-175z" />
    <glyph glyph-name="f_k.alt" horiz-adv-x="922" 
d="M15 0v91l57 14v320h-59v83l59 23v50q0 89 58 128.5t149 39.5q69 0 145 -24l130 24l16 -7v-640l46 -11v-91h-272v91l42 11v516q-32 9 -59 9q-38 0 -54.5 -14t-16.5 -52v-27h81v-109h-81v-323l41 -11v-91h-282zM738 0l-147 212v66l116 152l-56 13v91h252v-91l-60 -15
l-105 -131l133 -192l42 -14v-91h-175z" />
    <glyph glyph-name="registered.alt" horiz-adv-x="770" 
d="M224 179v59l29 9v198l-29 8v60h179q65 0 100 -28.5t35 -74.5q0 -55 -50 -73v-4l53 -88l22 -7v-59h-111l-67 126h-17v-60l22 -7v-59h-166zM368 365h24q34 0 34 39t-38 39h-20v-78zM384 55q120 0 198 84t78 205t-78 204.5t-198 83.5q-121 0 -198 -83.5t-77 -204.5
q0 -122 77 -205.5t198 -83.5zM384 -14q-150 0 -252 104.5t-102 253.5t102 252.5t252 103.5q149 0 252.5 -104t103.5 -252t-103.5 -253t-252.5 -105z" />
    <glyph glyph-name="questiondown.uc" horiz-adv-x="447" 
d="M257 -11q-233 0 -233 188q0 62 28 100.5t86 77.5q7 4 18.5 12t17 11.5t14.5 9.5t13 9.5t10 9t8.5 9.5t5.5 9t4 10t1 11q0 14 -4 30h104q17 -34 17 -70q0 -35 -16 -59t-53 -55q-31 -27 -44 -47.5t-13 -54.5q0 -81 93 -81q58 0 115 17v-98q-69 -39 -172 -39zM273 528
q-40 0 -66 26.5t-26 62.5q0 37 26 62.5t66 25.5t66.5 -25.5t26.5 -62.5q0 -36 -26.5 -62.5t-66.5 -26.5z" />
    <glyph glyph-name="exclamdown.uc" horiz-adv-x="275" 
d="M40 0l38 476h124l34 -476h-196zM138 528q-40 0 -66 26.5t-26 62.5q0 37 26 62.5t66 25.5t66.5 -25.5t26.5 -62.5q0 -36 -26.5 -62.5t-66.5 -26.5z" />
    <glyph glyph-name="hyphen.uc" horiz-adv-x="332" 
d="M33 266v136h266v-136h-266z" />
    <glyph glyph-name="endash.uc" horiz-adv-x="442" 
d="M28 283v108h386v-108h-386z" />
    <glyph glyph-name="emdash.uc" horiz-adv-x="766" 
d="M28 283v108h710v-108h-710z" />
    <glyph glyph-name="guilsinglleft.uc" horiz-adv-x="285" 
d="M136 89l-107 170v47l107 170h118l-77 -193l77 -194h-118z" />
    <glyph glyph-name="guilsinglright.uc" horiz-adv-x="285" 
d="M31 89l77 193l-77 194h118l107 -170v-47l-107 -170h-118z" />
    <glyph glyph-name="guillemotleft.uc" horiz-adv-x="493" 
d="M136 89l-107 170v47l107 170h118l-77 -193l77 -194h-118zM344 89l-107 170v47l107 170h118l-77 -193l77 -194h-118z" />
    <glyph glyph-name="guillemotright.uc" horiz-adv-x="493" 
d="M31 89l77 193l-77 194h118l107 -170v-47l-107 -170h-118zM239 89l77 193l-77 194h118l107 -170v-47l-107 -170h-118z" />
    <glyph glyph-name="parenleft.uc" horiz-adv-x="361" 
d="M280 -115q-55 41 -96 81t-79 94.5t-58 124.5t-20 152q0 263 253 452l64 -59q-71 -86 -108 -173t-37 -204q0 -140 35 -229t110 -181z" />
    <glyph glyph-name="parenright.uc" horiz-adv-x="361" 
d="M81 -115l-65 58q72 87 109 173.5t37 204.5q0 139 -35 228.5t-111 180.5l65 59q55 -41 96 -81t79 -94.5t58 -124.5t20 -152q0 -265 -253 -452z" />
    <glyph glyph-name="bracketleft.uc" horiz-adv-x="352" 
d="M49 -85v853h278v-97l-104 -18v-624l104 -17v-97h-278z" />
    <glyph glyph-name="bracketright.uc" horiz-adv-x="352" 
d="M24 -85v97l105 17v624l-105 18v97h279v-853h-279z" />
    <glyph glyph-name="braceleft.uc" horiz-adv-x="398" 
d="M373 -85q-146 4 -209 41.5t-63 110.5q0 25 17 78t17 67q0 30 -21 46t-82 25v116q61 9 82 25t21 46q0 14 -17 67t-17 78q0 73 63 111t209 42v-97q-52 -8 -71.5 -23.5t-19.5 -43.5q0 -17 7.5 -70.5t7.5 -71.5q0 -47 -29 -74t-98 -44v-5q69 -18 98 -45t29 -73
q0 -18 -7.5 -72t-7.5 -70q0 -29 19.5 -44t71.5 -23v-97z" />
    <glyph glyph-name="braceright.uc" horiz-adv-x="398" 
d="M24 -85v97q52 8 71.5 23t19.5 44q0 16 -7 70t-7 72q0 46 29 73t98 45v5q-69 17 -98 44t-29 74q0 18 7 71.5t7 70.5q0 28 -19.5 43.5t-71.5 23.5v97q147 -4 210 -42t63 -111q0 -25 -17 -78t-17 -67q0 -30 21 -46t82 -25v-116q-61 -9 -82 -25t-21 -46q0 -14 17 -67t17 -78
q0 -73 -63 -110.5t-210 -41.5z" />
    <glyph glyph-name="slash.uc" horiz-adv-x="384" 
d="M143 -60h-129l223 793h129z" />
    <glyph glyph-name="backslash.uc" horiz-adv-x="384" 
d="M370 -60h-129l-223 793h129z" />
    <glyph glyph-name="bar.uc" horiz-adv-x="251" 
d="M66 -60v793h118v-793h-118z" />
    <glyph glyph-name="at.uc" horiz-adv-x="855" 
d="M421 -48q-178 0 -282 94t-104 255q0 178 121.5 303.5t307.5 125.5q160 0 258.5 -89.5t98.5 -241.5q0 -131 -65.5 -202.5t-167.5 -71.5q-98 0 -120 64h-6q-53 -56 -128 -56q-50 0 -85 40.5t-35 111.5q0 113 61.5 184t155.5 71q63 0 110 -32l23 24h84l-53 -274
q-10 -51 28 -51q44 0 80 48.5t36 142.5q0 124 -70.5 192.5t-203.5 68.5q-155 0 -249.5 -102t-94.5 -255q0 -135 77.5 -206.5t226.5 -71.5q117 0 211 32v-64q-99 -40 -215 -40zM402 230q24 0 50 24l34 177q-15 32 -42 32q-36 0 -59.5 -49t-23.5 -125q0 -59 41 -59z" />
    </font>
</defs>
</svg>
