<?xml version="1.0" encoding="utf-8"?>
<!-- Generator: Adobe Illustrator 25.4.1, SVG Export Plug-In . SVG Version: 6.00 Build 0)  -->
<svg version="1.1" id="Layer_1" xmlns="http://www.w3.org/2000/svg" xmlns:xlink="http://www.w3.org/1999/xlink" x="0px" y="0px"
	 viewBox="0 0 25.2 20.3" enable-background="new 0 0 25.2 20.3" xml:space="preserve">
<g>
	<g>
		<path fill="#FFFFFF" d="M1.2,15.1c-0.7,0-1.2-0.6-1.2-1.2V6.4c0-0.7,0.6-1.2,1.2-1.2s1.2,0.6,1.2,1.2v7.4
			C2.5,14.5,1.9,15.1,1.2,15.1z"/>
	</g>
	<g>
		<path fill="#FFFFFF" d="M6.9,20.3c-0.7,0-1.2-0.6-1.2-1.2V1.2C5.7,0.6,6.2,0,6.9,0s1.2,0.6,1.2,1.2V19C8.2,19.7,7.6,20.3,6.9,20.3
			z"/>
	</g>
	<g>
		<path fill="#FFFFFF" d="M12.6,17.6c-0.7,0-1.2-0.6-1.2-1.2V3.9c0-0.7,0.6-1.2,1.2-1.2c0.7,0,1.2,0.6,1.2,1.2v12.4
			C13.9,17,13.3,17.6,12.6,17.6z"/>
	</g>
	<g>
		<path fill="#FFFFFF" d="M18.3,20.3c-0.7,0-1.2-0.6-1.2-1.2V1.2c0-0.7,0.6-1.2,1.2-1.2c0.7,0,1.2,0.6,1.2,1.2V19
			C19.5,19.7,19,20.3,18.3,20.3z"/>
	</g>
	<g>
		<path fill="#FFFFFF" d="M24,15.5c-0.7,0-1.2-0.6-1.2-1.2V6c0-0.7,0.6-1.2,1.2-1.2s1.2,0.6,1.2,1.2v8.3C25.2,15,24.7,15.5,24,15.5z
			"/>
	</g>
</g>
</svg>
