<?xml version="1.0" encoding="utf-8"?>
<!-- Generator: Adobe Illustrator 25.4.1, SVG Export Plug-In . SVG Version: 6.00 Build 0)  -->
<svg version="1.1" id="Layer_1" xmlns="http://www.w3.org/2000/svg" xmlns:xlink="http://www.w3.org/1999/xlink" x="0px" y="0px"
	 viewBox="0 0 95.8 37.1" enable-background="new 0 0 95.8 37.1" xml:space="preserve">
<g>
	<g>
		<path fill="#FFFFFF" d="M15.9,13.7c0,0.7-0.1,1.5-0.3,2.3c-0.2,0.8-0.6,1.4-1.2,2c-0.5,0.6-1.2,1.1-2.1,1.5
			c-0.9,0.4-1.9,0.6-3.2,0.6H0.4V0.2h8.8c0.8,0,1.6,0.2,2.3,0.5c0.7,0.3,1.3,0.7,1.9,1.3c0.5,0.5,1,1.1,1.3,1.9
			c0.3,0.7,0.5,1.5,0.5,2.3c0,0.6-0.1,1.1-0.4,1.7c-0.3,0.5-0.5,1-0.8,1.4c0.6,0.5,1,1.2,1.5,2C15.7,12,15.9,12.8,15.9,13.7z
			 M5.1,7.3h4.1c0.3,0,0.6-0.1,0.8-0.4c0.2-0.2,0.3-0.5,0.3-0.9c0-0.3-0.1-0.6-0.3-0.9C9.8,5,9.5,4.8,9.2,4.8H5.1V7.3z M9.2,15.4
			c0.2,0,0.3-0.1,0.5-0.2c0.2-0.1,0.3-0.2,0.4-0.4c0.1-0.2,0.2-0.4,0.3-0.6c0.1-0.2,0.1-0.4,0.1-0.6c0-0.2,0-0.4-0.1-0.6
			c-0.1-0.2-0.2-0.4-0.3-0.6c-0.1-0.2-0.3-0.3-0.4-0.4c-0.2-0.1-0.3-0.2-0.5-0.2H5.1v3.5H9.2z"/>
		<path fill="#FFFFFF" d="M38.9,10.1c0,1.4-0.3,2.7-0.8,3.9c-0.5,1.2-1.3,2.3-2.2,3.2c-0.9,0.9-2,1.6-3.2,2.2
			c-1.2,0.5-2.5,0.8-3.9,0.8c-1.4,0-2.7-0.3-3.9-0.8c-1.2-0.5-2.3-1.2-3.2-2.2c-0.9-0.9-1.6-2-2.2-3.2c-0.5-1.2-0.8-2.5-0.8-3.9
			c0-1.4,0.3-2.7,0.8-3.9C19.9,5,20.6,3.9,21.6,3c0.9-0.9,2-1.6,3.2-2.2C26,0.3,27.3,0,28.7,0c1.4,0,2.7,0.3,3.9,0.8
			C33.9,1.3,35,2,35.9,3c0.9,0.9,1.6,2,2.2,3.2C38.6,7.4,38.9,8.7,38.9,10.1z M32.6,14c0.5-0.5,0.9-1.1,1.1-1.8
			c0.2-0.7,0.3-1.4,0.3-2.1c0-0.7-0.1-1.5-0.3-2.1c-0.2-0.7-0.6-1.3-1.1-1.8c-0.5-0.5-1.1-0.9-1.8-1.2c-0.7-0.3-1.4-0.4-2.1-0.4
			c-0.7,0-1.4,0.1-2.1,0.4c-0.7,0.3-1.3,0.7-1.8,1.2c-0.5,0.5-0.9,1.1-1.1,1.8c-0.2,0.7-0.3,1.4-0.3,2.1c0,0.7,0.1,1.4,0.3,2.1
			c0.2,0.7,0.6,1.3,1.1,1.8c0.5,0.5,1.1,0.9,1.8,1.2c0.7,0.3,1.4,0.4,2.1,0.4c0.7,0,1.4-0.1,2.1-0.4C31.5,14.9,32.1,14.5,32.6,14z"
			/>
		<path fill="#FFFFFF" d="M62,10.1c0,1.4-0.3,2.7-0.8,3.9c-0.5,1.2-1.3,2.3-2.2,3.2c-0.9,0.9-2,1.6-3.2,2.2
			c-1.2,0.5-2.5,0.8-3.9,0.8c-1.4,0-2.7-0.3-3.9-0.8c-1.2-0.5-2.3-1.2-3.2-2.2c-0.9-0.9-1.6-2-2.2-3.2c-0.5-1.2-0.8-2.5-0.8-3.9
			c0-1.4,0.3-2.7,0.8-3.9C43,5,43.8,3.9,44.7,3c0.9-0.9,2-1.6,3.2-2.2C49.1,0.3,50.4,0,51.8,0c1.4,0,2.7,0.3,3.9,0.8
			C57,1.3,58.1,2,59,3c0.9,0.9,1.6,2,2.2,3.2C61.7,7.4,62,8.7,62,10.1z M55.7,14c0.5-0.5,0.9-1.1,1.1-1.8c0.2-0.7,0.3-1.4,0.3-2.1
			c0-0.7-0.1-1.5-0.3-2.1c-0.2-0.7-0.6-1.3-1.1-1.8c-0.5-0.5-1.1-0.9-1.8-1.2c-0.7-0.3-1.4-0.4-2.1-0.4c-0.7,0-1.4,0.1-2.1,0.4
			c-0.7,0.3-1.3,0.7-1.8,1.2C47.4,6.7,47,7.3,46.8,8c-0.2,0.7-0.3,1.4-0.3,2.1c0,0.7,0.1,1.4,0.3,2.1c0.2,0.7,0.6,1.3,1.1,1.8
			c0.5,0.5,1.1,0.9,1.8,1.2c0.7,0.3,1.4,0.4,2.1,0.4c0.7,0,1.4-0.1,2.1-0.4C54.6,14.9,55.2,14.5,55.7,14z"/>
		<path fill="#FFFFFF" d="M66,14.4c0.2,0.1,0.4,0.2,0.7,0.4c0.3,0.1,0.7,0.3,1.1,0.4c0.4,0.1,0.8,0.2,1.2,0.3
			c0.4,0.1,0.8,0.1,1.2,0.1c0.2,0,0.5,0,0.7-0.1c0.3,0,0.5-0.1,0.7-0.2c0.2-0.1,0.4-0.2,0.5-0.4c0.1-0.2,0.2-0.4,0.2-0.6
			c0-0.5-0.1-0.9-0.4-1.1c-0.3-0.3-0.8-0.5-1.5-0.8l-2.8-1.1c-1-0.4-1.7-1-2.2-1.9c-0.5-0.9-0.7-2-0.7-3.3c0-1,0.2-1.8,0.5-2.6
			c0.3-0.8,0.8-1.4,1.4-1.9c0.6-0.5,1.2-0.9,2-1.2C69.3,0.1,70.1,0,70.9,0C72,0,73,0.2,74,0.5c1,0.3,1.9,0.8,2.7,1.4l-2.2,3.8
			C74,5.3,73.5,5,72.9,4.7c-0.6-0.3-1.3-0.4-1.9-0.4c-0.2,0-0.4,0-0.5,0.1c-0.2,0.1-0.4,0.2-0.5,0.3c-0.2,0.1-0.3,0.3-0.4,0.4
			c-0.1,0.2-0.2,0.4-0.2,0.6c0,0.5,0.2,0.9,0.6,1.1c0.4,0.3,0.8,0.5,1.4,0.7l2.8,1.2c0.7,0.3,1.3,0.7,1.7,1.1
			c0.4,0.4,0.7,0.9,0.9,1.4c0.2,0.5,0.3,0.9,0.4,1.4c0,0.5,0.1,0.8,0.1,1.1c0,1-0.2,1.8-0.6,2.6c-0.4,0.8-0.9,1.5-1.5,2
			c-0.6,0.6-1.4,1-2.2,1.3c-0.9,0.3-1.8,0.5-2.7,0.5c-0.5,0-1.1-0.1-1.7-0.2c-0.6-0.1-1.1-0.3-1.7-0.4c-0.6-0.2-1.1-0.4-1.6-0.7
			s-1-0.5-1.4-0.8L66,14.4z"/>
		<path fill="#FFFFFF" d="M95.8,4.8h-5.4V20h-4.7V4.8h-5.4V0.2h15.5V4.8z"/>
	</g>
	<g>
		<g>
			<path fill="#FFFFFF" d="M0,35.4l0.9-1c0.9,0.9,2.1,1.4,3.4,1.4c1.6,0,2.5-0.8,2.5-1.8c0-1.2-0.9-1.6-2-2.1L3,31.1
				c-1.1-0.5-2.5-1.3-2.5-3c0-1.8,1.6-3.1,3.8-3.1c1.4,0,2.7,0.6,3.5,1.4l-0.8,1c-0.8-0.7-1.6-1.1-2.8-1.1C2.9,26.3,2,26.9,2,28
				c0,1.1,1.1,1.5,2,1.9l1.6,0.7c1.4,0.6,2.5,1.4,2.5,3.1c0,1.9-1.5,3.3-4.1,3.3C2.5,37.1,1,36.4,0,35.4z"/>
			<path fill="#FFFFFF" d="M10.4,31c0-3.8,1.8-6,4.4-6c2.6,0,4.4,2.2,4.4,6c0,3.8-1.8,6.1-4.4,6.1C12.2,37.1,10.4,34.8,10.4,31z
				 M17.7,31c0-2.9-1.2-4.7-2.9-4.7c-1.7,0-2.9,1.7-2.9,4.7c0,3,1.2,4.8,2.9,4.8C16.5,35.8,17.7,34,17.7,31z"/>
			<path fill="#FFFFFF" d="M22.6,25.2h1.4v10.4h5.7v1.3h-7.1V25.2z"/>
			<path fill="#FFFFFF" d="M32.4,32.5v-7.3h1.5v7.3c0,2.4,1,3.3,2.4,3.3c1.4,0,2.4-0.9,2.4-3.3v-7.3h1.4v7.3c0,3.3-1.6,4.6-3.8,4.6
				C34,37.1,32.4,35.8,32.4,32.5z"/>
			<path fill="#FFFFFF" d="M46.2,26.5h-3.8v-1.3h9v1.3h-3.8v10.4h-1.5V26.5z"/>
			<path fill="#FFFFFF" d="M54.1,35.6h2.8v-9.2h-2.8v-1.3h7.2v1.3h-2.8v9.2h2.8v1.3h-7.2V35.6z"/>
			<path fill="#FFFFFF" d="M64,31c0-3.8,1.8-6,4.4-6c2.6,0,4.4,2.2,4.4,6c0,3.8-1.8,6.1-4.4,6.1C65.8,37.1,64,34.8,64,31z M71.3,31
				c0-2.9-1.2-4.7-2.9-4.7c-1.7,0-2.9,1.7-2.9,4.7c0,3,1.2,4.8,2.9,4.8C70.1,35.8,71.3,34,71.3,31z"/>
			<path fill="#FFFFFF" d="M75.3,25.2h1.6l3.7,7.3l1.1,2.4h0c-0.1-1.2-0.2-2.5-0.2-3.7v-6.1h1.4v11.7h-1.6l-3.7-7.3l-1.1-2.4h0
				c0.1,1.2,0.2,2.4,0.2,3.7v6.1h-1.4V25.2z"/>
			<path fill="#FFFFFF" d="M85.8,35.4l0.9-1c0.9,0.9,2.1,1.4,3.4,1.4c1.6,0,2.5-0.8,2.5-1.8c0-1.2-0.9-1.6-2-2.1l-1.7-0.7
				c-1.1-0.5-2.5-1.3-2.5-3c0-1.8,1.6-3.1,3.8-3.1c1.4,0,2.7,0.6,3.5,1.4l-0.8,1c-0.8-0.7-1.6-1.1-2.8-1.1c-1.3,0-2.2,0.6-2.2,1.7
				c0,1.1,1.1,1.5,2,1.9l1.6,0.7c1.4,0.6,2.5,1.4,2.5,3.1c0,1.9-1.5,3.3-4.1,3.3C88.2,37.1,86.8,36.4,85.8,35.4z"/>
		</g>
	</g>
</g>
</svg>
