<?xml version="1.0" encoding="utf-8"?>
<!-- Generator: Adobe Illustrator 26.0.3, SVG Export Plug-In . SVG Version: 6.00 Build 0)  -->
<svg version="1.1" id="Layer_1" xmlns="http://www.w3.org/2000/svg" xmlns:xlink="http://www.w3.org/1999/xlink" x="0px" y="0px"
	 viewBox="0 0 21 24.8" style="enable-background:new 0 0 21 24.8;" xml:space="preserve">
<style type="text/css">
	.st0{fill:#ED1C24;}
</style>
<g id="Layer_2_00000047750993583146044590000000422101274931410060_">
	<g id="Layer_1-2">
		<path class="st0" d="M20.1,24.8H0.9c-0.5,0-0.9-0.4-0.9-0.9c0,0,0,0,0,0V0.9C0,0.4,0.4,0,0.9,0c0,0,0,0,0,0h19.3
			C20.6,0,21,0.4,21,0.8c0,0,0,0,0,0v23.1C21,24.4,20.6,24.8,20.1,24.8L20.1,24.8z M1.7,23.1h17.6V1.7H1.7V23.1z"/>
		<rect x="4.2" y="5.2" class="st0" width="12.6" height="2.7"/>
		<rect x="4.2" y="11" class="st0" width="8.6" height="1.6"/>
		<rect x="15.2" y="11" class="st0" width="1.6" height="1.6"/>
		<rect x="15.2" y="14.7" class="st0" width="1.6" height="1.6"/>
		<rect x="15.2" y="18.4" class="st0" width="1.6" height="1.6"/>
		<rect x="4.2" y="18.4" class="st0" width="8.6" height="1.6"/>
		<rect x="4.2" y="14.7" class="st0" width="5.4" height="1.6"/>
	</g>
</g>
</svg>
