<svg xmlns="http://www.w3.org/2000/svg" viewBox="0 0 45.12 45.12"><defs><style>.cls-1{fill:#ed1c24;}</style></defs><g id="Layer_2" data-name="Layer 2"><g id="Layer_1-2" data-name="Layer 1"><path class="cls-1" d="M7.52,11.28a3.76,3.76,0,1,1,3.76-3.76A3.76,3.76,0,0,1,7.52,11.28Zm0,3.76A7.52,7.52,0,1,0,0,7.52,7.52,7.52,0,0,0,7.52,15Z"/><path class="cls-1" d="M37.6,41.36a3.76,3.76,0,1,1,3.76-3.76A3.76,3.76,0,0,1,37.6,41.36Zm0,3.76a7.52,7.52,0,1,0-7.52-7.52A7.52,7.52,0,0,0,37.6,45.12Z"/><path class="cls-1" d="M22.56,26.32a3.76,3.76,0,1,1,3.76-3.76A3.76,3.76,0,0,1,22.56,26.32Zm0,3.76A7.52,7.52,0,1,0,15,22.56,7.52,7.52,0,0,0,22.56,30.08Z"/><path class="cls-1" d="M32,35.72H1.88a1.88,1.88,0,0,0,0,3.76H32a1.88,1.88,0,1,0,0-3.76Z"/><path class="cls-1" d="M43.24,5.64H13.16a1.88,1.88,0,0,0,0,3.76H43.24a1.88,1.88,0,0,0,0-3.76Z"/><path class="cls-1" d="M43.24,20.68h-15a1.88,1.88,0,1,0,0,3.76h15a1.88,1.88,0,0,0,0-3.76Z"/><path class="cls-1" d="M16.92,20.68h-15a1.88,1.88,0,0,0,0,3.76h15a1.88,1.88,0,0,0,0-3.76Z"/></g></g></svg>