<svg xmlns="http://www.w3.org/2000/svg" viewBox="0 0 54.63 53.41"><defs><style>.cls-1{fill:#ed1c24;}</style></defs><g id="Layer_2" data-name="Layer 2"><g id="Layer_1-2" data-name="Layer 1"><path class="cls-1" d="M38.27,11.88V2.67A2.68,2.68,0,0,0,35.6,0H2.67A2.68,2.68,0,0,0,0,2.67V40.4a2.72,2.72,0,0,0,1.42,2.36l20.29,10.5a1.34,1.34,0,0,0,2-1.2V41.83H35.6a2.68,2.68,0,0,0,2.67-2.67V24.56H32.93V35.15a1.32,1.32,0,0,1-1.34,1.34H23.72V13.84a2.72,2.72,0,0,0-1.43-2.36l-12-6.14H31.59a1.31,1.31,0,0,1,1.34,1.33v5.26h5.34Z"/><path class="cls-1" d="M45.12,7.52,53.8,16.2a2.67,2.67,0,0,1,0,3.87l-8.68,8.68a2.72,2.72,0,0,1-3.92,0,2.85,2.85,0,0,1,.09-3.92L45.21,21H30a2.64,2.64,0,0,1-2-.89,3,3,0,0,1,.67-4.58A2.89,2.89,0,0,1,30,15.17H45.21s-3.87-3.87-3.92-3.87a2.79,2.79,0,0,1-.09-3.87,2.76,2.76,0,0,1,3.92.09Z"/></g></g></svg>