<?xml version="1.0" encoding="utf-8"?>
<!-- Generator: Adobe Illustrator 25.4.1, SVG Export Plug-In . SVG Version: 6.00 Build 0)  -->
<svg version="1.1" id="Layer_1" xmlns="http://www.w3.org/2000/svg" xmlns:xlink="http://www.w3.org/1999/xlink" x="0px" y="0px"
	 viewBox="0 0 24 24" style="enable-background:new 0 0 24 24;" xml:space="preserve">
<style type="text/css">
	.st0{fill:#E99D00;}
</style>
<g id="Present_Box_1">
	<path class="st0" d="M22.5,3h-3.3c0.1-0.6,0-1.1-0.3-1.6C18.6,1.1,18.3,1,18,1c-1.6,0.2-3.1,0.9-4.2,2h-3.4C9.1,1.9,7.6,1.2,6,1
		C5.6,1,5.3,1.1,5.1,1.4C4.8,1.9,4.7,2.4,4.8,3H1.5C1.2,3,1,3.2,1,3.5v4C1,7.8,1.2,8,1.5,8h6.8L7.7,9H2.5C2.2,9,2,9.2,2,9.5v13
		C2,22.8,2.2,23,2.5,23h8c0.3,0,0.5-0.2,0.5-0.5V9.8l1-2l1,2.6v12.1c0,0.3,0.2,0.5,0.5,0.5h8c0.3,0,0.5-0.2,0.5-0.5v-13
		C22,9.2,21.8,9,21.5,9h-5.6l-0.4-1h7C22.8,8,23,7.8,23,7.5v-4C23,3.2,22.8,3,22.5,3C22.5,3,22.5,3,22.5,3z M15.1,9.7L15.1,9.7
		L15.1,9.7l-0.5-0.2c-0.3-0.1-0.5,0.1-0.6,0.3L13.9,10l-1.3-3.2c0.2-0.1,0.4-0.2,0.6-0.4L14,6.8l0.3,0.8l0,0L15.1,9.7z M9.7,10.2
		L9.4,9.7C9.3,9.5,9,9.4,8.8,9.5L8.5,9.6L10,6.9l0.7-0.3c0.2,0.1,0.3,0.2,0.5,0.3L9.7,10.2z M13,5c0,0.6-0.4,1-1,1s-1-0.4-1-1
		s0.4-1,1-1S13,4.4,13,5z M18.1,2c0.2,0.2,0.1,0.9,0,1.4l0,0v0.2c0,0.2,0,0.3-0.1,0.5c0,0.1,0,0.3,0,0.4v0.3c0,0.6,0,1.8-0.3,2.1
		S15.9,6.6,14.6,6l0,0l-0.7-0.3c0.2-0.5,0.2-1,0-1.4C15.2,3,17,2,18,2C18,2,18.1,2,18.1,2z M5.9,2c0,0,0.1,0,0.1,0
		c1.6,0.3,3,1,4.2,2.2c-0.2,0.5-0.2,1.1,0,1.6C8.7,6.4,6.6,7.2,6.3,6.9S6,5.4,6,4.8V4.5c0-0.1,0-0.3,0-0.4c0-0.2,0-0.3-0.1-0.5V3.4
		l0,0C5.8,2.9,5.7,2.2,5.9,2z"/>
</g>
</svg>
