<?xml version="1.0" standalone="no"?>
<!DOCTYPE svg PUBLIC "-//W3C//DTD SVG 20010904//EN"
 "http://www.w3.org/TR/2001/REC-SVG-20010904/DTD/svg10.dtd">
<svg version="1.0" xmlns="http://www.w3.org/2000/svg"
 width="310.000000pt" height="310.000000pt" viewBox="0 0 310.000000 310.000000"
 preserveAspectRatio="xMidYMid meet">
<metadata>
Created by potrace 1.11, written by Peter Selinger 2001-2013
</metadata>
<g transform="translate(0.000000,310.000000) scale(0.100000,-0.100000)"
fill="#000000" stroke="none">
<path d="M681 2209 c-211 -54 -374 -189 -460 -382 -40 -88 -53 -149 -57 -257
-11 -305 177 -570 473 -668 66 -22 97 -26 203 -26 165 -1 251 16 377 75 34 16
65 29 68 29 4 0 6 -15 5 -32 -1 -18 -2 -39 -1 -45 1 -10 50 -13 211 -13 l210
0 0 445 c0 348 3 447 13 450 66 23 151 3 167 -40 6 -16 10 -191 10 -441 l0
-414 210 0 c161 0 210 3 211 13 0 6 1 207 1 445 1 303 5 435 12 438 59 21 145
3 165 -34 7 -14 11 -159 11 -441 l0 -421 215 0 215 0 0 483 c-1 386 -4 495
-15 545 -36 154 -124 245 -269 281 -46 11 -179 16 -221 7 -11 -2 -40 -7 -65
-11 -54 -9 -114 -28 -197 -62 l-62 -26 -30 26 c-58 48 -135 70 -256 73 -61 1
-144 -4 -185 -12 -41 -7 -86 -15 -100 -17 -14 -3 -76 -21 -137 -42 -105 -35
-113 -39 -114 -64 0 -14 -1 -156 -1 -314 l0 -288 -45 -49 c-92 -101 -229 -161
-368 -162 -79 0 -90 1 -130 16 -78 29 -136 81 -172 154 -54 110 -31 246 58
333 64 63 121 84 221 83 l88 0 21 45 c29 63 97 157 155 213 l48 47 -55 25
c-122 56 -290 70 -428 35z"/>
</g>
</svg>
